M48
; DRILL file {KiCad (5.1.10)-1} date 10/14/21 07:24:41
; FORMAT={-:-/ absolute / inch / decimal}
; #@! TF.CreationDate,2021-10-14T07:24:41+09:00
; #@! TF.GenerationSoftware,Kicad,Pcbnew,(5.1.10)-1
; #@! TF.FileFunction,NonPlated,1,2,NPTH
FMAT,2
INCH
T1C0.0670
T2C0.1200
T3C0.1570
%
G90
G05
T1
X0.4693Y3.6614
X0.4693Y2.9134
X0.4693Y2.1654
X0.4693Y1.4173
X0.4693Y0.6693
X0.8693Y3.6614
X0.8693Y2.9134
X0.8693Y2.1654
X0.8693Y1.4173
X0.8693Y0.6693
X1.5913Y4.5965
X1.5913Y3.6614
X1.685Y0.6693
X1.7783Y2.9134
X1.872Y2.1654
X1.9913Y4.5965
X1.9913Y3.6614
X2.0591Y1.4173
X2.085Y0.6693
X2.1783Y2.9134
X2.272Y2.1654
X2.3394Y3.6614
X2.4591Y1.4173
X2.6201Y0.6693
X2.7134Y4.5965
X2.7134Y2.9134
X2.7394Y3.6614
X2.9004Y2.1654
X3.0201Y0.6693
X3.0874Y3.6614
X3.1134Y4.5965
X3.1134Y2.9134
X3.2744Y1.4173
X3.3004Y2.1654
X3.4614Y4.5965
X3.4614Y2.9134
X3.4874Y3.6614
X3.5551Y0.6693
X3.6484Y2.1654
X3.6744Y1.4173
X3.8354Y3.6614
X3.8614Y4.5965
X3.8614Y2.9134
X3.9551Y0.6693
X4.0224Y1.4173
X4.0484Y2.1654
X4.2094Y4.5965
X4.2094Y2.9134
X4.2354Y3.6614
X4.3965Y2.1654
X4.4224Y1.4173
X4.5835Y3.6614
X4.6094Y4.5965
X4.6094Y2.9134
X4.7705Y1.4173
X4.7965Y2.1654
X4.9575Y4.5965
X4.9575Y2.9134
X4.9835Y3.6614
X5.0512Y0.6693
X5.1445Y2.1654
X5.1705Y1.4173
X5.3315Y3.6614
X5.3575Y4.5965
X5.3575Y2.9134
X5.4512Y0.6693
X5.5185Y1.4173
X5.5445Y2.1654
X5.7055Y2.9134
X5.7315Y3.6614
X5.8925Y2.1654
X5.9185Y1.4173
X6.0795Y4.5965
X6.0795Y3.6614
X6.1055Y2.9134
X6.2665Y1.4173
X6.2925Y2.1654
X6.4535Y2.9134
X6.4795Y4.5965
X6.4795Y3.6614
X6.6406Y2.1654
X6.6665Y1.4173
X6.8535Y2.9134
X7.0406Y2.1654
X7.7626Y2.1654
X7.7626Y1.4173
X7.7626Y0.6693
X8.1626Y2.1654
X8.1626Y1.4173
X8.1626Y0.6693
T2
X1.7891Y1.6923
X2.7291Y1.6923
X4.7812Y0.9443
X5.7212Y0.9443
T3
X0.6693Y3.6614
X0.6693Y2.9134
X0.6693Y2.1654
X0.6693Y1.4173
X0.6693Y0.6693
X1.7891Y1.0923
X1.7913Y4.5965
X1.7913Y3.6614
X1.885Y0.6693
X1.9783Y2.9134
X2.072Y2.1654
X2.2591Y1.4173
X2.5394Y3.6614
X2.7291Y1.0923
X2.8201Y0.6693
X2.9134Y4.5965
X2.9134Y2.9134
X3.1004Y2.1654
X3.2874Y3.6614
X3.4744Y1.4173
X3.6614Y4.5965
X3.6614Y2.9134
X3.7551Y0.6693
X3.8484Y2.1654
X4.0354Y3.6614
X4.2224Y1.4173
X4.4094Y4.5965
X4.4094Y2.9134
X4.5965Y2.1654
X4.7812Y0.3443
X4.7835Y3.6614
X4.9705Y1.4173
X5.1575Y4.5965
X5.1575Y2.9134
X5.2512Y0.6693
X5.3445Y2.1654
X5.5315Y3.6614
X5.7185Y1.4173
X5.7212Y0.3443
X5.9055Y2.9134
X6.0925Y2.1654
X6.2795Y4.5965
X6.2795Y3.6614
X6.4665Y1.4173
X6.6535Y2.9134
X6.8406Y2.1654
X7.9626Y2.1654
X7.9626Y1.4173
X7.9626Y0.6693
T0
M30
