%TF.GenerationSoftware,KiCad,Pcbnew,(5.1.10)-1*%
%TF.CreationDate,2021-10-14T07:24:40+09:00*%
%TF.ProjectId,G_One_PCB,475f4f6e-655f-4504-9342-2e6b69636164,rev?*%
%TF.SameCoordinates,Original*%
%TF.FileFunction,Legend,Bot*%
%TF.FilePolarity,Positive*%
%FSLAX46Y46*%
G04 Gerber Fmt 4.6, Leading zero omitted, Abs format (unit mm)*
G04 Created by KiCad (PCBNEW (5.1.10)-1) date 2021-10-14 07:24:40*
%MOMM*%
%LPD*%
G01*
G04 APERTURE LIST*
%ADD10C,0.200000*%
G04 APERTURE END LIST*
%TO.C,K28(IoT0)1*%
D10*
X206154761Y50229619D02*
X206154761Y51229619D01*
X205583333Y50229619D02*
X206011904Y50801047D01*
X205583333Y51229619D02*
X206154761Y50658190D01*
X205202380Y51134380D02*
X205154761Y51182000D01*
X205059523Y51229619D01*
X204821428Y51229619D01*
X204726190Y51182000D01*
X204678571Y51134380D01*
X204630952Y51039142D01*
X204630952Y50943904D01*
X204678571Y50801047D01*
X205250000Y50229619D01*
X204630952Y50229619D01*
X204059523Y50801047D02*
X204154761Y50848666D01*
X204202380Y50896285D01*
X204250000Y50991523D01*
X204250000Y51039142D01*
X204202380Y51134380D01*
X204154761Y51182000D01*
X204059523Y51229619D01*
X203869047Y51229619D01*
X203773809Y51182000D01*
X203726190Y51134380D01*
X203678571Y51039142D01*
X203678571Y50991523D01*
X203726190Y50896285D01*
X203773809Y50848666D01*
X203869047Y50801047D01*
X204059523Y50801047D01*
X204154761Y50753428D01*
X204202380Y50705809D01*
X204250000Y50610571D01*
X204250000Y50420095D01*
X204202380Y50324857D01*
X204154761Y50277238D01*
X204059523Y50229619D01*
X203869047Y50229619D01*
X203773809Y50277238D01*
X203726190Y50324857D01*
X203678571Y50420095D01*
X203678571Y50610571D01*
X203726190Y50705809D01*
X203773809Y50753428D01*
X203869047Y50801047D01*
X202964285Y49848666D02*
X203011904Y49896285D01*
X203107142Y50039142D01*
X203154761Y50134380D01*
X203202380Y50277238D01*
X203250000Y50515333D01*
X203250000Y50705809D01*
X203202380Y50943904D01*
X203154761Y51086761D01*
X203107142Y51182000D01*
X203011904Y51324857D01*
X202964285Y51372476D01*
X202583333Y50229619D02*
X202583333Y51229619D01*
X201964285Y50229619D02*
X202059523Y50277238D01*
X202107142Y50324857D01*
X202154761Y50420095D01*
X202154761Y50705809D01*
X202107142Y50801047D01*
X202059523Y50848666D01*
X201964285Y50896285D01*
X201821428Y50896285D01*
X201726190Y50848666D01*
X201678571Y50801047D01*
X201630952Y50705809D01*
X201630952Y50420095D01*
X201678571Y50324857D01*
X201726190Y50277238D01*
X201821428Y50229619D01*
X201964285Y50229619D01*
X201345238Y51229619D02*
X200773809Y51229619D01*
X201059523Y50229619D02*
X201059523Y51229619D01*
X200250000Y51229619D02*
X200154761Y51229619D01*
X200059523Y51182000D01*
X200011904Y51134380D01*
X199964285Y51039142D01*
X199916666Y50848666D01*
X199916666Y50610571D01*
X199964285Y50420095D01*
X200011904Y50324857D01*
X200059523Y50277238D01*
X200154761Y50229619D01*
X200250000Y50229619D01*
X200345238Y50277238D01*
X200392857Y50324857D01*
X200440476Y50420095D01*
X200488095Y50610571D01*
X200488095Y50848666D01*
X200440476Y51039142D01*
X200392857Y51134380D01*
X200345238Y51182000D01*
X200250000Y51229619D01*
X199583333Y49848666D02*
X199535714Y49896285D01*
X199440476Y50039142D01*
X199392857Y50134380D01*
X199345238Y50277238D01*
X199297619Y50515333D01*
X199297619Y50705809D01*
X199345238Y50943904D01*
X199392857Y51086761D01*
X199440476Y51182000D01*
X199535714Y51324857D01*
X199583333Y51372476D01*
X198297619Y50229619D02*
X198869047Y50229619D01*
X198583333Y50229619D02*
X198583333Y51229619D01*
X198678571Y51086761D01*
X198773809Y50991523D01*
X198869047Y50943904D01*
%TO.C,K01(ESC)1*%
X49285714Y111979619D02*
X49285714Y112979619D01*
X48714285Y111979619D02*
X49142857Y112551047D01*
X48714285Y112979619D02*
X49285714Y112408190D01*
X48095238Y112979619D02*
X48000000Y112979619D01*
X47904761Y112932000D01*
X47857142Y112884380D01*
X47809523Y112789142D01*
X47761904Y112598666D01*
X47761904Y112360571D01*
X47809523Y112170095D01*
X47857142Y112074857D01*
X47904761Y112027238D01*
X48000000Y111979619D01*
X48095238Y111979619D01*
X48190476Y112027238D01*
X48238095Y112074857D01*
X48285714Y112170095D01*
X48333333Y112360571D01*
X48333333Y112598666D01*
X48285714Y112789142D01*
X48238095Y112884380D01*
X48190476Y112932000D01*
X48095238Y112979619D01*
X46809523Y111979619D02*
X47380952Y111979619D01*
X47095238Y111979619D02*
X47095238Y112979619D01*
X47190476Y112836761D01*
X47285714Y112741523D01*
X47380952Y112693904D01*
X46095238Y111598666D02*
X46142857Y111646285D01*
X46238095Y111789142D01*
X46285714Y111884380D01*
X46333333Y112027238D01*
X46380952Y112265333D01*
X46380952Y112455809D01*
X46333333Y112693904D01*
X46285714Y112836761D01*
X46238095Y112932000D01*
X46142857Y113074857D01*
X46095238Y113122476D01*
X45714285Y112503428D02*
X45380952Y112503428D01*
X45238095Y111979619D02*
X45714285Y111979619D01*
X45714285Y112979619D01*
X45238095Y112979619D01*
X44857142Y112027238D02*
X44714285Y111979619D01*
X44476190Y111979619D01*
X44380952Y112027238D01*
X44333333Y112074857D01*
X44285714Y112170095D01*
X44285714Y112265333D01*
X44333333Y112360571D01*
X44380952Y112408190D01*
X44476190Y112455809D01*
X44666666Y112503428D01*
X44761904Y112551047D01*
X44809523Y112598666D01*
X44857142Y112693904D01*
X44857142Y112789142D01*
X44809523Y112884380D01*
X44761904Y112932000D01*
X44666666Y112979619D01*
X44428571Y112979619D01*
X44285714Y112932000D01*
X43285714Y112074857D02*
X43333333Y112027238D01*
X43476190Y111979619D01*
X43571428Y111979619D01*
X43714285Y112027238D01*
X43809523Y112122476D01*
X43857142Y112217714D01*
X43904761Y112408190D01*
X43904761Y112551047D01*
X43857142Y112741523D01*
X43809523Y112836761D01*
X43714285Y112932000D01*
X43571428Y112979619D01*
X43476190Y112979619D01*
X43333333Y112932000D01*
X43285714Y112884380D01*
X42952380Y111598666D02*
X42904761Y111646285D01*
X42809523Y111789142D01*
X42761904Y111884380D01*
X42714285Y112027238D01*
X42666666Y112265333D01*
X42666666Y112455809D01*
X42714285Y112693904D01*
X42761904Y112836761D01*
X42809523Y112932000D01*
X42904761Y113074857D01*
X42952380Y113122476D01*
X41666666Y111979619D02*
X42238095Y111979619D01*
X41952380Y111979619D02*
X41952380Y112979619D01*
X42047619Y112836761D01*
X42142857Y112741523D01*
X42238095Y112693904D01*
%TO.C,K02(F1)1*%
X77261904Y111979619D02*
X77261904Y112979619D01*
X76690476Y111979619D02*
X77119047Y112551047D01*
X76690476Y112979619D02*
X77261904Y112408190D01*
X76071428Y112979619D02*
X75976190Y112979619D01*
X75880952Y112932000D01*
X75833333Y112884380D01*
X75785714Y112789142D01*
X75738095Y112598666D01*
X75738095Y112360571D01*
X75785714Y112170095D01*
X75833333Y112074857D01*
X75880952Y112027238D01*
X75976190Y111979619D01*
X76071428Y111979619D01*
X76166666Y112027238D01*
X76214285Y112074857D01*
X76261904Y112170095D01*
X76309523Y112360571D01*
X76309523Y112598666D01*
X76261904Y112789142D01*
X76214285Y112884380D01*
X76166666Y112932000D01*
X76071428Y112979619D01*
X75357142Y112884380D02*
X75309523Y112932000D01*
X75214285Y112979619D01*
X74976190Y112979619D01*
X74880952Y112932000D01*
X74833333Y112884380D01*
X74785714Y112789142D01*
X74785714Y112693904D01*
X74833333Y112551047D01*
X75404761Y111979619D01*
X74785714Y111979619D01*
X74071428Y111598666D02*
X74119047Y111646285D01*
X74214285Y111789142D01*
X74261904Y111884380D01*
X74309523Y112027238D01*
X74357142Y112265333D01*
X74357142Y112455809D01*
X74309523Y112693904D01*
X74261904Y112836761D01*
X74214285Y112932000D01*
X74119047Y113074857D01*
X74071428Y113122476D01*
X73357142Y112503428D02*
X73690476Y112503428D01*
X73690476Y111979619D02*
X73690476Y112979619D01*
X73214285Y112979619D01*
X72309523Y111979619D02*
X72880952Y111979619D01*
X72595238Y111979619D02*
X72595238Y112979619D01*
X72690476Y112836761D01*
X72785714Y112741523D01*
X72880952Y112693904D01*
X71976190Y111598666D02*
X71928571Y111646285D01*
X71833333Y111789142D01*
X71785714Y111884380D01*
X71738095Y112027238D01*
X71690476Y112265333D01*
X71690476Y112455809D01*
X71738095Y112693904D01*
X71785714Y112836761D01*
X71833333Y112932000D01*
X71928571Y113074857D01*
X71976190Y113122476D01*
X70690476Y111979619D02*
X71261904Y111979619D01*
X70976190Y111979619D02*
X70976190Y112979619D01*
X71071428Y112836761D01*
X71166666Y112741523D01*
X71261904Y112693904D01*
%TO.C,K03(F2)1*%
X96261904Y111979619D02*
X96261904Y112979619D01*
X95690476Y111979619D02*
X96119047Y112551047D01*
X95690476Y112979619D02*
X96261904Y112408190D01*
X95071428Y112979619D02*
X94976190Y112979619D01*
X94880952Y112932000D01*
X94833333Y112884380D01*
X94785714Y112789142D01*
X94738095Y112598666D01*
X94738095Y112360571D01*
X94785714Y112170095D01*
X94833333Y112074857D01*
X94880952Y112027238D01*
X94976190Y111979619D01*
X95071428Y111979619D01*
X95166666Y112027238D01*
X95214285Y112074857D01*
X95261904Y112170095D01*
X95309523Y112360571D01*
X95309523Y112598666D01*
X95261904Y112789142D01*
X95214285Y112884380D01*
X95166666Y112932000D01*
X95071428Y112979619D01*
X94404761Y112979619D02*
X93785714Y112979619D01*
X94119047Y112598666D01*
X93976190Y112598666D01*
X93880952Y112551047D01*
X93833333Y112503428D01*
X93785714Y112408190D01*
X93785714Y112170095D01*
X93833333Y112074857D01*
X93880952Y112027238D01*
X93976190Y111979619D01*
X94261904Y111979619D01*
X94357142Y112027238D01*
X94404761Y112074857D01*
X93071428Y111598666D02*
X93119047Y111646285D01*
X93214285Y111789142D01*
X93261904Y111884380D01*
X93309523Y112027238D01*
X93357142Y112265333D01*
X93357142Y112455809D01*
X93309523Y112693904D01*
X93261904Y112836761D01*
X93214285Y112932000D01*
X93119047Y113074857D01*
X93071428Y113122476D01*
X92357142Y112503428D02*
X92690476Y112503428D01*
X92690476Y111979619D02*
X92690476Y112979619D01*
X92214285Y112979619D01*
X91880952Y112884380D02*
X91833333Y112932000D01*
X91738095Y112979619D01*
X91500000Y112979619D01*
X91404761Y112932000D01*
X91357142Y112884380D01*
X91309523Y112789142D01*
X91309523Y112693904D01*
X91357142Y112551047D01*
X91928571Y111979619D01*
X91309523Y111979619D01*
X90976190Y111598666D02*
X90928571Y111646285D01*
X90833333Y111789142D01*
X90785714Y111884380D01*
X90738095Y112027238D01*
X90690476Y112265333D01*
X90690476Y112455809D01*
X90738095Y112693904D01*
X90785714Y112836761D01*
X90833333Y112932000D01*
X90928571Y113074857D01*
X90976190Y113122476D01*
X89690476Y111979619D02*
X90261904Y111979619D01*
X89976190Y111979619D02*
X89976190Y112979619D01*
X90071428Y112836761D01*
X90166666Y112741523D01*
X90261904Y112693904D01*
%TO.C,K04(F3)1*%
X115261904Y111979619D02*
X115261904Y112979619D01*
X114690476Y111979619D02*
X115119047Y112551047D01*
X114690476Y112979619D02*
X115261904Y112408190D01*
X114071428Y112979619D02*
X113976190Y112979619D01*
X113880952Y112932000D01*
X113833333Y112884380D01*
X113785714Y112789142D01*
X113738095Y112598666D01*
X113738095Y112360571D01*
X113785714Y112170095D01*
X113833333Y112074857D01*
X113880952Y112027238D01*
X113976190Y111979619D01*
X114071428Y111979619D01*
X114166666Y112027238D01*
X114214285Y112074857D01*
X114261904Y112170095D01*
X114309523Y112360571D01*
X114309523Y112598666D01*
X114261904Y112789142D01*
X114214285Y112884380D01*
X114166666Y112932000D01*
X114071428Y112979619D01*
X112880952Y112646285D02*
X112880952Y111979619D01*
X113119047Y113027238D02*
X113357142Y112312952D01*
X112738095Y112312952D01*
X112071428Y111598666D02*
X112119047Y111646285D01*
X112214285Y111789142D01*
X112261904Y111884380D01*
X112309523Y112027238D01*
X112357142Y112265333D01*
X112357142Y112455809D01*
X112309523Y112693904D01*
X112261904Y112836761D01*
X112214285Y112932000D01*
X112119047Y113074857D01*
X112071428Y113122476D01*
X111357142Y112503428D02*
X111690476Y112503428D01*
X111690476Y111979619D02*
X111690476Y112979619D01*
X111214285Y112979619D01*
X110928571Y112979619D02*
X110309523Y112979619D01*
X110642857Y112598666D01*
X110500000Y112598666D01*
X110404761Y112551047D01*
X110357142Y112503428D01*
X110309523Y112408190D01*
X110309523Y112170095D01*
X110357142Y112074857D01*
X110404761Y112027238D01*
X110500000Y111979619D01*
X110785714Y111979619D01*
X110880952Y112027238D01*
X110928571Y112074857D01*
X109976190Y111598666D02*
X109928571Y111646285D01*
X109833333Y111789142D01*
X109785714Y111884380D01*
X109738095Y112027238D01*
X109690476Y112265333D01*
X109690476Y112455809D01*
X109738095Y112693904D01*
X109785714Y112836761D01*
X109833333Y112932000D01*
X109928571Y113074857D01*
X109976190Y113122476D01*
X108690476Y111979619D02*
X109261904Y111979619D01*
X108976190Y111979619D02*
X108976190Y112979619D01*
X109071428Y112836761D01*
X109166666Y112741523D01*
X109261904Y112693904D01*
%TO.C,K05(F4)1*%
X134261904Y111979619D02*
X134261904Y112979619D01*
X133690476Y111979619D02*
X134119047Y112551047D01*
X133690476Y112979619D02*
X134261904Y112408190D01*
X133071428Y112979619D02*
X132976190Y112979619D01*
X132880952Y112932000D01*
X132833333Y112884380D01*
X132785714Y112789142D01*
X132738095Y112598666D01*
X132738095Y112360571D01*
X132785714Y112170095D01*
X132833333Y112074857D01*
X132880952Y112027238D01*
X132976190Y111979619D01*
X133071428Y111979619D01*
X133166666Y112027238D01*
X133214285Y112074857D01*
X133261904Y112170095D01*
X133309523Y112360571D01*
X133309523Y112598666D01*
X133261904Y112789142D01*
X133214285Y112884380D01*
X133166666Y112932000D01*
X133071428Y112979619D01*
X131833333Y112979619D02*
X132309523Y112979619D01*
X132357142Y112503428D01*
X132309523Y112551047D01*
X132214285Y112598666D01*
X131976190Y112598666D01*
X131880952Y112551047D01*
X131833333Y112503428D01*
X131785714Y112408190D01*
X131785714Y112170095D01*
X131833333Y112074857D01*
X131880952Y112027238D01*
X131976190Y111979619D01*
X132214285Y111979619D01*
X132309523Y112027238D01*
X132357142Y112074857D01*
X131071428Y111598666D02*
X131119047Y111646285D01*
X131214285Y111789142D01*
X131261904Y111884380D01*
X131309523Y112027238D01*
X131357142Y112265333D01*
X131357142Y112455809D01*
X131309523Y112693904D01*
X131261904Y112836761D01*
X131214285Y112932000D01*
X131119047Y113074857D01*
X131071428Y113122476D01*
X130357142Y112503428D02*
X130690476Y112503428D01*
X130690476Y111979619D02*
X130690476Y112979619D01*
X130214285Y112979619D01*
X129404761Y112646285D02*
X129404761Y111979619D01*
X129642857Y113027238D02*
X129880952Y112312952D01*
X129261904Y112312952D01*
X128976190Y111598666D02*
X128928571Y111646285D01*
X128833333Y111789142D01*
X128785714Y111884380D01*
X128738095Y112027238D01*
X128690476Y112265333D01*
X128690476Y112455809D01*
X128738095Y112693904D01*
X128785714Y112836761D01*
X128833333Y112932000D01*
X128928571Y113074857D01*
X128976190Y113122476D01*
X127690476Y111979619D02*
X128261904Y111979619D01*
X127976190Y111979619D02*
X127976190Y112979619D01*
X128071428Y112836761D01*
X128166666Y112741523D01*
X128261904Y112693904D01*
%TO.C,K07(F5)1*%
X162761904Y111979619D02*
X162761904Y112979619D01*
X162190476Y111979619D02*
X162619047Y112551047D01*
X162190476Y112979619D02*
X162761904Y112408190D01*
X161571428Y112979619D02*
X161476190Y112979619D01*
X161380952Y112932000D01*
X161333333Y112884380D01*
X161285714Y112789142D01*
X161238095Y112598666D01*
X161238095Y112360571D01*
X161285714Y112170095D01*
X161333333Y112074857D01*
X161380952Y112027238D01*
X161476190Y111979619D01*
X161571428Y111979619D01*
X161666666Y112027238D01*
X161714285Y112074857D01*
X161761904Y112170095D01*
X161809523Y112360571D01*
X161809523Y112598666D01*
X161761904Y112789142D01*
X161714285Y112884380D01*
X161666666Y112932000D01*
X161571428Y112979619D01*
X160904761Y112979619D02*
X160238095Y112979619D01*
X160666666Y111979619D01*
X159571428Y111598666D02*
X159619047Y111646285D01*
X159714285Y111789142D01*
X159761904Y111884380D01*
X159809523Y112027238D01*
X159857142Y112265333D01*
X159857142Y112455809D01*
X159809523Y112693904D01*
X159761904Y112836761D01*
X159714285Y112932000D01*
X159619047Y113074857D01*
X159571428Y113122476D01*
X158857142Y112503428D02*
X159190476Y112503428D01*
X159190476Y111979619D02*
X159190476Y112979619D01*
X158714285Y112979619D01*
X157857142Y112979619D02*
X158333333Y112979619D01*
X158380952Y112503428D01*
X158333333Y112551047D01*
X158238095Y112598666D01*
X158000000Y112598666D01*
X157904761Y112551047D01*
X157857142Y112503428D01*
X157809523Y112408190D01*
X157809523Y112170095D01*
X157857142Y112074857D01*
X157904761Y112027238D01*
X158000000Y111979619D01*
X158238095Y111979619D01*
X158333333Y112027238D01*
X158380952Y112074857D01*
X157476190Y111598666D02*
X157428571Y111646285D01*
X157333333Y111789142D01*
X157285714Y111884380D01*
X157238095Y112027238D01*
X157190476Y112265333D01*
X157190476Y112455809D01*
X157238095Y112693904D01*
X157285714Y112836761D01*
X157333333Y112932000D01*
X157428571Y113074857D01*
X157476190Y113122476D01*
X156190476Y111979619D02*
X156761904Y111979619D01*
X156476190Y111979619D02*
X156476190Y112979619D01*
X156571428Y112836761D01*
X156666666Y112741523D01*
X156761904Y112693904D01*
%TO.C,K10(M0)1*%
X20404761Y88229619D02*
X20404761Y89229619D01*
X19833333Y88229619D02*
X20261904Y88801047D01*
X19833333Y89229619D02*
X20404761Y88658190D01*
X18880952Y88229619D02*
X19452380Y88229619D01*
X19166666Y88229619D02*
X19166666Y89229619D01*
X19261904Y89086761D01*
X19357142Y88991523D01*
X19452380Y88943904D01*
X18261904Y89229619D02*
X18166666Y89229619D01*
X18071428Y89182000D01*
X18023809Y89134380D01*
X17976190Y89039142D01*
X17928571Y88848666D01*
X17928571Y88610571D01*
X17976190Y88420095D01*
X18023809Y88324857D01*
X18071428Y88277238D01*
X18166666Y88229619D01*
X18261904Y88229619D01*
X18357142Y88277238D01*
X18404761Y88324857D01*
X18452380Y88420095D01*
X18500000Y88610571D01*
X18500000Y88848666D01*
X18452380Y89039142D01*
X18404761Y89134380D01*
X18357142Y89182000D01*
X18261904Y89229619D01*
X17214285Y87848666D02*
X17261904Y87896285D01*
X17357142Y88039142D01*
X17404761Y88134380D01*
X17452380Y88277238D01*
X17500000Y88515333D01*
X17500000Y88705809D01*
X17452380Y88943904D01*
X17404761Y89086761D01*
X17357142Y89182000D01*
X17261904Y89324857D01*
X17214285Y89372476D01*
X16833333Y88229619D02*
X16833333Y89229619D01*
X16500000Y88515333D01*
X16166666Y89229619D01*
X16166666Y88229619D01*
X15500000Y89229619D02*
X15404761Y89229619D01*
X15309523Y89182000D01*
X15261904Y89134380D01*
X15214285Y89039142D01*
X15166666Y88848666D01*
X15166666Y88610571D01*
X15214285Y88420095D01*
X15261904Y88324857D01*
X15309523Y88277238D01*
X15404761Y88229619D01*
X15500000Y88229619D01*
X15595238Y88277238D01*
X15642857Y88324857D01*
X15690476Y88420095D01*
X15738095Y88610571D01*
X15738095Y88848666D01*
X15690476Y89039142D01*
X15642857Y89134380D01*
X15595238Y89182000D01*
X15500000Y89229619D01*
X14833333Y87848666D02*
X14785714Y87896285D01*
X14690476Y88039142D01*
X14642857Y88134380D01*
X14595238Y88277238D01*
X14547619Y88515333D01*
X14547619Y88705809D01*
X14595238Y88943904D01*
X14642857Y89086761D01*
X14690476Y89182000D01*
X14785714Y89324857D01*
X14833333Y89372476D01*
X13547619Y88229619D02*
X14119047Y88229619D01*
X13833333Y88229619D02*
X13833333Y89229619D01*
X13928571Y89086761D01*
X14023809Y88991523D01*
X14119047Y88943904D01*
%TO.C,K11(_`_)1*%
X48809523Y88229619D02*
X48809523Y89229619D01*
X48238095Y88229619D02*
X48666666Y88801047D01*
X48238095Y89229619D02*
X48809523Y88658190D01*
X47285714Y88229619D02*
X47857142Y88229619D01*
X47571428Y88229619D02*
X47571428Y89229619D01*
X47666666Y89086761D01*
X47761904Y88991523D01*
X47857142Y88943904D01*
X46333333Y88229619D02*
X46904761Y88229619D01*
X46619047Y88229619D02*
X46619047Y89229619D01*
X46714285Y89086761D01*
X46809523Y88991523D01*
X46904761Y88943904D01*
X45619047Y87848666D02*
X45666666Y87896285D01*
X45761904Y88039142D01*
X45809523Y88134380D01*
X45857142Y88277238D01*
X45904761Y88515333D01*
X45904761Y88705809D01*
X45857142Y88943904D01*
X45809523Y89086761D01*
X45761904Y89182000D01*
X45666666Y89324857D01*
X45619047Y89372476D01*
X45476190Y88134380D02*
X44714285Y88134380D01*
X44619047Y89277238D02*
X44476190Y89134380D01*
X44333333Y88134380D02*
X43571428Y88134380D01*
X43428571Y87848666D02*
X43380952Y87896285D01*
X43285714Y88039142D01*
X43238095Y88134380D01*
X43190476Y88277238D01*
X43142857Y88515333D01*
X43142857Y88705809D01*
X43190476Y88943904D01*
X43238095Y89086761D01*
X43285714Y89182000D01*
X43380952Y89324857D01*
X43428571Y89372476D01*
X42142857Y88229619D02*
X42714285Y88229619D01*
X42428571Y88229619D02*
X42428571Y89229619D01*
X42523809Y89086761D01*
X42619047Y88991523D01*
X42714285Y88943904D01*
%TO.C,K12(1!)1*%
X67571428Y88229619D02*
X67571428Y89229619D01*
X67000000Y88229619D02*
X67428571Y88801047D01*
X67000000Y89229619D02*
X67571428Y88658190D01*
X66047619Y88229619D02*
X66619047Y88229619D01*
X66333333Y88229619D02*
X66333333Y89229619D01*
X66428571Y89086761D01*
X66523809Y88991523D01*
X66619047Y88943904D01*
X65666666Y89134380D02*
X65619047Y89182000D01*
X65523809Y89229619D01*
X65285714Y89229619D01*
X65190476Y89182000D01*
X65142857Y89134380D01*
X65095238Y89039142D01*
X65095238Y88943904D01*
X65142857Y88801047D01*
X65714285Y88229619D01*
X65095238Y88229619D01*
X64380952Y87848666D02*
X64428571Y87896285D01*
X64523809Y88039142D01*
X64571428Y88134380D01*
X64619047Y88277238D01*
X64666666Y88515333D01*
X64666666Y88705809D01*
X64619047Y88943904D01*
X64571428Y89086761D01*
X64523809Y89182000D01*
X64428571Y89324857D01*
X64380952Y89372476D01*
X63476190Y88229619D02*
X64047619Y88229619D01*
X63761904Y88229619D02*
X63761904Y89229619D01*
X63857142Y89086761D01*
X63952380Y88991523D01*
X64047619Y88943904D01*
X63047619Y88324857D02*
X63000000Y88277238D01*
X63047619Y88229619D01*
X63095238Y88277238D01*
X63047619Y88324857D01*
X63047619Y88229619D01*
X63047619Y88610571D02*
X63095238Y89182000D01*
X63047619Y89229619D01*
X63000000Y89182000D01*
X63047619Y88610571D01*
X63047619Y89229619D01*
X62666666Y87848666D02*
X62619047Y87896285D01*
X62523809Y88039142D01*
X62476190Y88134380D01*
X62428571Y88277238D01*
X62380952Y88515333D01*
X62380952Y88705809D01*
X62428571Y88943904D01*
X62476190Y89086761D01*
X62523809Y89182000D01*
X62619047Y89324857D01*
X62666666Y89372476D01*
X61380952Y88229619D02*
X61952380Y88229619D01*
X61666666Y88229619D02*
X61666666Y89229619D01*
X61761904Y89086761D01*
X61857142Y88991523D01*
X61952380Y88943904D01*
%TO.C,K13(2@)1*%
X86976190Y88229619D02*
X86976190Y89229619D01*
X86404761Y88229619D02*
X86833333Y88801047D01*
X86404761Y89229619D02*
X86976190Y88658190D01*
X85452380Y88229619D02*
X86023809Y88229619D01*
X85738095Y88229619D02*
X85738095Y89229619D01*
X85833333Y89086761D01*
X85928571Y88991523D01*
X86023809Y88943904D01*
X85119047Y89229619D02*
X84500000Y89229619D01*
X84833333Y88848666D01*
X84690476Y88848666D01*
X84595238Y88801047D01*
X84547619Y88753428D01*
X84500000Y88658190D01*
X84500000Y88420095D01*
X84547619Y88324857D01*
X84595238Y88277238D01*
X84690476Y88229619D01*
X84976190Y88229619D01*
X85071428Y88277238D01*
X85119047Y88324857D01*
X83785714Y87848666D02*
X83833333Y87896285D01*
X83928571Y88039142D01*
X83976190Y88134380D01*
X84023809Y88277238D01*
X84071428Y88515333D01*
X84071428Y88705809D01*
X84023809Y88943904D01*
X83976190Y89086761D01*
X83928571Y89182000D01*
X83833333Y89324857D01*
X83785714Y89372476D01*
X83452380Y89134380D02*
X83404761Y89182000D01*
X83309523Y89229619D01*
X83071428Y89229619D01*
X82976190Y89182000D01*
X82928571Y89134380D01*
X82880952Y89039142D01*
X82880952Y88943904D01*
X82928571Y88801047D01*
X83500000Y88229619D01*
X82880952Y88229619D01*
X81833333Y88705809D02*
X81880952Y88753428D01*
X81976190Y88801047D01*
X82071428Y88801047D01*
X82166666Y88753428D01*
X82214285Y88705809D01*
X82261904Y88610571D01*
X82261904Y88515333D01*
X82214285Y88420095D01*
X82166666Y88372476D01*
X82071428Y88324857D01*
X81976190Y88324857D01*
X81880952Y88372476D01*
X81833333Y88420095D01*
X81833333Y88801047D02*
X81833333Y88420095D01*
X81785714Y88372476D01*
X81738095Y88372476D01*
X81642857Y88420095D01*
X81595238Y88515333D01*
X81595238Y88753428D01*
X81690476Y88896285D01*
X81833333Y88991523D01*
X82023809Y89039142D01*
X82214285Y88991523D01*
X82357142Y88896285D01*
X82452380Y88753428D01*
X82500000Y88562952D01*
X82452380Y88372476D01*
X82357142Y88229619D01*
X82214285Y88134380D01*
X82023809Y88086761D01*
X81833333Y88134380D01*
X81690476Y88229619D01*
X81261904Y87848666D02*
X81214285Y87896285D01*
X81119047Y88039142D01*
X81071428Y88134380D01*
X81023809Y88277238D01*
X80976190Y88515333D01*
X80976190Y88705809D01*
X81023809Y88943904D01*
X81071428Y89086761D01*
X81119047Y89182000D01*
X81214285Y89324857D01*
X81261904Y89372476D01*
X79976190Y88229619D02*
X80547619Y88229619D01*
X80261904Y88229619D02*
X80261904Y89229619D01*
X80357142Y89086761D01*
X80452380Y88991523D01*
X80547619Y88943904D01*
%TO.C,K14(3#)1*%
X105833333Y88229619D02*
X105833333Y89229619D01*
X105261904Y88229619D02*
X105690476Y88801047D01*
X105261904Y89229619D02*
X105833333Y88658190D01*
X104309523Y88229619D02*
X104880952Y88229619D01*
X104595238Y88229619D02*
X104595238Y89229619D01*
X104690476Y89086761D01*
X104785714Y88991523D01*
X104880952Y88943904D01*
X103452380Y88896285D02*
X103452380Y88229619D01*
X103690476Y89277238D02*
X103928571Y88562952D01*
X103309523Y88562952D01*
X102642857Y87848666D02*
X102690476Y87896285D01*
X102785714Y88039142D01*
X102833333Y88134380D01*
X102880952Y88277238D01*
X102928571Y88515333D01*
X102928571Y88705809D01*
X102880952Y88943904D01*
X102833333Y89086761D01*
X102785714Y89182000D01*
X102690476Y89324857D01*
X102642857Y89372476D01*
X102357142Y89229619D02*
X101738095Y89229619D01*
X102071428Y88848666D01*
X101928571Y88848666D01*
X101833333Y88801047D01*
X101785714Y88753428D01*
X101738095Y88658190D01*
X101738095Y88420095D01*
X101785714Y88324857D01*
X101833333Y88277238D01*
X101928571Y88229619D01*
X102214285Y88229619D01*
X102309523Y88277238D01*
X102357142Y88324857D01*
X101357142Y88896285D02*
X100642857Y88896285D01*
X101071428Y89324857D02*
X101357142Y88039142D01*
X100738095Y88467714D02*
X101452380Y88467714D01*
X101023809Y88039142D02*
X100738095Y89324857D01*
X100404761Y87848666D02*
X100357142Y87896285D01*
X100261904Y88039142D01*
X100214285Y88134380D01*
X100166666Y88277238D01*
X100119047Y88515333D01*
X100119047Y88705809D01*
X100166666Y88943904D01*
X100214285Y89086761D01*
X100261904Y89182000D01*
X100357142Y89324857D01*
X100404761Y89372476D01*
X99119047Y88229619D02*
X99690476Y88229619D01*
X99404761Y88229619D02*
X99404761Y89229619D01*
X99500000Y89086761D01*
X99595238Y88991523D01*
X99690476Y88943904D01*
%TO.C,K15(4$)1*%
X124809523Y88229619D02*
X124809523Y89229619D01*
X124238095Y88229619D02*
X124666666Y88801047D01*
X124238095Y89229619D02*
X124809523Y88658190D01*
X123285714Y88229619D02*
X123857142Y88229619D01*
X123571428Y88229619D02*
X123571428Y89229619D01*
X123666666Y89086761D01*
X123761904Y88991523D01*
X123857142Y88943904D01*
X122380952Y89229619D02*
X122857142Y89229619D01*
X122904761Y88753428D01*
X122857142Y88801047D01*
X122761904Y88848666D01*
X122523809Y88848666D01*
X122428571Y88801047D01*
X122380952Y88753428D01*
X122333333Y88658190D01*
X122333333Y88420095D01*
X122380952Y88324857D01*
X122428571Y88277238D01*
X122523809Y88229619D01*
X122761904Y88229619D01*
X122857142Y88277238D01*
X122904761Y88324857D01*
X121619047Y87848666D02*
X121666666Y87896285D01*
X121761904Y88039142D01*
X121809523Y88134380D01*
X121857142Y88277238D01*
X121904761Y88515333D01*
X121904761Y88705809D01*
X121857142Y88943904D01*
X121809523Y89086761D01*
X121761904Y89182000D01*
X121666666Y89324857D01*
X121619047Y89372476D01*
X120809523Y88896285D02*
X120809523Y88229619D01*
X121047619Y89277238D02*
X121285714Y88562952D01*
X120666666Y88562952D01*
X120333333Y88277238D02*
X120190476Y88229619D01*
X119952380Y88229619D01*
X119857142Y88277238D01*
X119809523Y88324857D01*
X119761904Y88420095D01*
X119761904Y88515333D01*
X119809523Y88610571D01*
X119857142Y88658190D01*
X119952380Y88705809D01*
X120142857Y88753428D01*
X120238095Y88801047D01*
X120285714Y88848666D01*
X120333333Y88943904D01*
X120333333Y89039142D01*
X120285714Y89134380D01*
X120238095Y89182000D01*
X120142857Y89229619D01*
X119904761Y89229619D01*
X119761904Y89182000D01*
X120047619Y89372476D02*
X120047619Y88086761D01*
X119428571Y87848666D02*
X119380952Y87896285D01*
X119285714Y88039142D01*
X119238095Y88134380D01*
X119190476Y88277238D01*
X119142857Y88515333D01*
X119142857Y88705809D01*
X119190476Y88943904D01*
X119238095Y89086761D01*
X119285714Y89182000D01*
X119380952Y89324857D01*
X119428571Y89372476D01*
X118142857Y88229619D02*
X118714285Y88229619D01*
X118428571Y88229619D02*
X118428571Y89229619D01*
X118523809Y89086761D01*
X118619047Y88991523D01*
X118714285Y88943904D01*
%TO.C,K16(5\u0025)1*%
X143904761Y88229619D02*
X143904761Y89229619D01*
X143333333Y88229619D02*
X143761904Y88801047D01*
X143333333Y89229619D02*
X143904761Y88658190D01*
X142380952Y88229619D02*
X142952380Y88229619D01*
X142666666Y88229619D02*
X142666666Y89229619D01*
X142761904Y89086761D01*
X142857142Y88991523D01*
X142952380Y88943904D01*
X141523809Y89229619D02*
X141714285Y89229619D01*
X141809523Y89182000D01*
X141857142Y89134380D01*
X141952380Y88991523D01*
X142000000Y88801047D01*
X142000000Y88420095D01*
X141952380Y88324857D01*
X141904761Y88277238D01*
X141809523Y88229619D01*
X141619047Y88229619D01*
X141523809Y88277238D01*
X141476190Y88324857D01*
X141428571Y88420095D01*
X141428571Y88658190D01*
X141476190Y88753428D01*
X141523809Y88801047D01*
X141619047Y88848666D01*
X141809523Y88848666D01*
X141904761Y88801047D01*
X141952380Y88753428D01*
X142000000Y88658190D01*
X140714285Y87848666D02*
X140761904Y87896285D01*
X140857142Y88039142D01*
X140904761Y88134380D01*
X140952380Y88277238D01*
X141000000Y88515333D01*
X141000000Y88705809D01*
X140952380Y88943904D01*
X140904761Y89086761D01*
X140857142Y89182000D01*
X140761904Y89324857D01*
X140714285Y89372476D01*
X139857142Y89229619D02*
X140333333Y89229619D01*
X140380952Y88753428D01*
X140333333Y88801047D01*
X140238095Y88848666D01*
X140000000Y88848666D01*
X139904761Y88801047D01*
X139857142Y88753428D01*
X139809523Y88658190D01*
X139809523Y88420095D01*
X139857142Y88324857D01*
X139904761Y88277238D01*
X140000000Y88229619D01*
X140238095Y88229619D01*
X140333333Y88277238D01*
X140380952Y88324857D01*
X139428571Y88229619D02*
X138666666Y89229619D01*
X139285714Y89229619D02*
X139190476Y89182000D01*
X139142857Y89086761D01*
X139190476Y88991523D01*
X139285714Y88943904D01*
X139380952Y88991523D01*
X139428571Y89086761D01*
X139380952Y89182000D01*
X139285714Y89229619D01*
X138714285Y88277238D02*
X138666666Y88372476D01*
X138714285Y88467714D01*
X138809523Y88515333D01*
X138904761Y88467714D01*
X138952380Y88372476D01*
X138904761Y88277238D01*
X138809523Y88229619D01*
X138714285Y88277238D01*
X138333333Y87848666D02*
X138285714Y87896285D01*
X138190476Y88039142D01*
X138142857Y88134380D01*
X138095238Y88277238D01*
X138047619Y88515333D01*
X138047619Y88705809D01*
X138095238Y88943904D01*
X138142857Y89086761D01*
X138190476Y89182000D01*
X138285714Y89324857D01*
X138333333Y89372476D01*
X137047619Y88229619D02*
X137619047Y88229619D01*
X137333333Y88229619D02*
X137333333Y89229619D01*
X137428571Y89086761D01*
X137523809Y88991523D01*
X137619047Y88943904D01*
%TO.C,K17(6^)1*%
X162619047Y88229619D02*
X162619047Y89229619D01*
X162047619Y88229619D02*
X162476190Y88801047D01*
X162047619Y89229619D02*
X162619047Y88658190D01*
X161095238Y88229619D02*
X161666666Y88229619D01*
X161380952Y88229619D02*
X161380952Y89229619D01*
X161476190Y89086761D01*
X161571428Y88991523D01*
X161666666Y88943904D01*
X160761904Y89229619D02*
X160095238Y89229619D01*
X160523809Y88229619D01*
X159428571Y87848666D02*
X159476190Y87896285D01*
X159571428Y88039142D01*
X159619047Y88134380D01*
X159666666Y88277238D01*
X159714285Y88515333D01*
X159714285Y88705809D01*
X159666666Y88943904D01*
X159619047Y89086761D01*
X159571428Y89182000D01*
X159476190Y89324857D01*
X159428571Y89372476D01*
X158619047Y89229619D02*
X158809523Y89229619D01*
X158904761Y89182000D01*
X158952380Y89134380D01*
X159047619Y88991523D01*
X159095238Y88801047D01*
X159095238Y88420095D01*
X159047619Y88324857D01*
X159000000Y88277238D01*
X158904761Y88229619D01*
X158714285Y88229619D01*
X158619047Y88277238D01*
X158571428Y88324857D01*
X158523809Y88420095D01*
X158523809Y88658190D01*
X158571428Y88753428D01*
X158619047Y88801047D01*
X158714285Y88848666D01*
X158904761Y88848666D01*
X159000000Y88801047D01*
X159047619Y88753428D01*
X159095238Y88658190D01*
X158238095Y89134380D02*
X158047619Y89277238D01*
X157857142Y89134380D01*
X157619047Y87848666D02*
X157571428Y87896285D01*
X157476190Y88039142D01*
X157428571Y88134380D01*
X157380952Y88277238D01*
X157333333Y88515333D01*
X157333333Y88705809D01*
X157380952Y88943904D01*
X157428571Y89086761D01*
X157476190Y89182000D01*
X157571428Y89324857D01*
X157619047Y89372476D01*
X156333333Y88229619D02*
X156904761Y88229619D01*
X156619047Y88229619D02*
X156619047Y89229619D01*
X156714285Y89086761D01*
X156809523Y88991523D01*
X156904761Y88943904D01*
%TO.C,K20(M1)1*%
X20404761Y69229619D02*
X20404761Y70229619D01*
X19833333Y69229619D02*
X20261904Y69801047D01*
X19833333Y70229619D02*
X20404761Y69658190D01*
X19452380Y70134380D02*
X19404761Y70182000D01*
X19309523Y70229619D01*
X19071428Y70229619D01*
X18976190Y70182000D01*
X18928571Y70134380D01*
X18880952Y70039142D01*
X18880952Y69943904D01*
X18928571Y69801047D01*
X19500000Y69229619D01*
X18880952Y69229619D01*
X18261904Y70229619D02*
X18166666Y70229619D01*
X18071428Y70182000D01*
X18023809Y70134380D01*
X17976190Y70039142D01*
X17928571Y69848666D01*
X17928571Y69610571D01*
X17976190Y69420095D01*
X18023809Y69324857D01*
X18071428Y69277238D01*
X18166666Y69229619D01*
X18261904Y69229619D01*
X18357142Y69277238D01*
X18404761Y69324857D01*
X18452380Y69420095D01*
X18500000Y69610571D01*
X18500000Y69848666D01*
X18452380Y70039142D01*
X18404761Y70134380D01*
X18357142Y70182000D01*
X18261904Y70229619D01*
X17214285Y68848666D02*
X17261904Y68896285D01*
X17357142Y69039142D01*
X17404761Y69134380D01*
X17452380Y69277238D01*
X17500000Y69515333D01*
X17500000Y69705809D01*
X17452380Y69943904D01*
X17404761Y70086761D01*
X17357142Y70182000D01*
X17261904Y70324857D01*
X17214285Y70372476D01*
X16833333Y69229619D02*
X16833333Y70229619D01*
X16500000Y69515333D01*
X16166666Y70229619D01*
X16166666Y69229619D01*
X15166666Y69229619D02*
X15738095Y69229619D01*
X15452380Y69229619D02*
X15452380Y70229619D01*
X15547619Y70086761D01*
X15642857Y69991523D01*
X15738095Y69943904D01*
X14833333Y68848666D02*
X14785714Y68896285D01*
X14690476Y69039142D01*
X14642857Y69134380D01*
X14595238Y69277238D01*
X14547619Y69515333D01*
X14547619Y69705809D01*
X14595238Y69943904D01*
X14642857Y70086761D01*
X14690476Y70182000D01*
X14785714Y70324857D01*
X14833333Y70372476D01*
X13547619Y69229619D02*
X14119047Y69229619D01*
X13833333Y69229619D02*
X13833333Y70229619D01*
X13928571Y70086761D01*
X14023809Y69991523D01*
X14119047Y69943904D01*
%TO.C,K21(Tap)1*%
X53892857Y69229619D02*
X53892857Y70229619D01*
X53321428Y69229619D02*
X53750000Y69801047D01*
X53321428Y70229619D02*
X53892857Y69658190D01*
X52940476Y70134380D02*
X52892857Y70182000D01*
X52797619Y70229619D01*
X52559523Y70229619D01*
X52464285Y70182000D01*
X52416666Y70134380D01*
X52369047Y70039142D01*
X52369047Y69943904D01*
X52416666Y69801047D01*
X52988095Y69229619D01*
X52369047Y69229619D01*
X51416666Y69229619D02*
X51988095Y69229619D01*
X51702380Y69229619D02*
X51702380Y70229619D01*
X51797619Y70086761D01*
X51892857Y69991523D01*
X51988095Y69943904D01*
X50702380Y68848666D02*
X50750000Y68896285D01*
X50845238Y69039142D01*
X50892857Y69134380D01*
X50940476Y69277238D01*
X50988095Y69515333D01*
X50988095Y69705809D01*
X50940476Y69943904D01*
X50892857Y70086761D01*
X50845238Y70182000D01*
X50750000Y70324857D01*
X50702380Y70372476D01*
X50464285Y70229619D02*
X49892857Y70229619D01*
X50178571Y69229619D02*
X50178571Y70229619D01*
X49130952Y69229619D02*
X49130952Y69753428D01*
X49178571Y69848666D01*
X49273809Y69896285D01*
X49464285Y69896285D01*
X49559523Y69848666D01*
X49130952Y69277238D02*
X49226190Y69229619D01*
X49464285Y69229619D01*
X49559523Y69277238D01*
X49607142Y69372476D01*
X49607142Y69467714D01*
X49559523Y69562952D01*
X49464285Y69610571D01*
X49226190Y69610571D01*
X49130952Y69658190D01*
X48654761Y69896285D02*
X48654761Y68896285D01*
X48654761Y69848666D02*
X48559523Y69896285D01*
X48369047Y69896285D01*
X48273809Y69848666D01*
X48226190Y69801047D01*
X48178571Y69705809D01*
X48178571Y69420095D01*
X48226190Y69324857D01*
X48273809Y69277238D01*
X48369047Y69229619D01*
X48559523Y69229619D01*
X48654761Y69277238D01*
X47845238Y68848666D02*
X47797619Y68896285D01*
X47702380Y69039142D01*
X47654761Y69134380D01*
X47607142Y69277238D01*
X47559523Y69515333D01*
X47559523Y69705809D01*
X47607142Y69943904D01*
X47654761Y70086761D01*
X47702380Y70182000D01*
X47797619Y70324857D01*
X47845238Y70372476D01*
X46559523Y69229619D02*
X47130952Y69229619D01*
X46845238Y69229619D02*
X46845238Y70229619D01*
X46940476Y70086761D01*
X47035714Y69991523D01*
X47130952Y69943904D01*
%TO.C,K22(Q)1*%
X76880952Y69229619D02*
X76880952Y70229619D01*
X76309523Y69229619D02*
X76738095Y69801047D01*
X76309523Y70229619D02*
X76880952Y69658190D01*
X75928571Y70134380D02*
X75880952Y70182000D01*
X75785714Y70229619D01*
X75547619Y70229619D01*
X75452380Y70182000D01*
X75404761Y70134380D01*
X75357142Y70039142D01*
X75357142Y69943904D01*
X75404761Y69801047D01*
X75976190Y69229619D01*
X75357142Y69229619D01*
X74976190Y70134380D02*
X74928571Y70182000D01*
X74833333Y70229619D01*
X74595238Y70229619D01*
X74500000Y70182000D01*
X74452380Y70134380D01*
X74404761Y70039142D01*
X74404761Y69943904D01*
X74452380Y69801047D01*
X75023809Y69229619D01*
X74404761Y69229619D01*
X73690476Y68848666D02*
X73738095Y68896285D01*
X73833333Y69039142D01*
X73880952Y69134380D01*
X73928571Y69277238D01*
X73976190Y69515333D01*
X73976190Y69705809D01*
X73928571Y69943904D01*
X73880952Y70086761D01*
X73833333Y70182000D01*
X73738095Y70324857D01*
X73690476Y70372476D01*
X72642857Y69134380D02*
X72738095Y69182000D01*
X72833333Y69277238D01*
X72976190Y69420095D01*
X73071428Y69467714D01*
X73166666Y69467714D01*
X73119047Y69229619D02*
X73214285Y69277238D01*
X73309523Y69372476D01*
X73357142Y69562952D01*
X73357142Y69896285D01*
X73309523Y70086761D01*
X73214285Y70182000D01*
X73119047Y70229619D01*
X72928571Y70229619D01*
X72833333Y70182000D01*
X72738095Y70086761D01*
X72690476Y69896285D01*
X72690476Y69562952D01*
X72738095Y69372476D01*
X72833333Y69277238D01*
X72928571Y69229619D01*
X73119047Y69229619D01*
X72357142Y68848666D02*
X72309523Y68896285D01*
X72214285Y69039142D01*
X72166666Y69134380D01*
X72119047Y69277238D01*
X72071428Y69515333D01*
X72071428Y69705809D01*
X72119047Y69943904D01*
X72166666Y70086761D01*
X72214285Y70182000D01*
X72309523Y70324857D01*
X72357142Y70372476D01*
X71071428Y69229619D02*
X71642857Y69229619D01*
X71357142Y69229619D02*
X71357142Y70229619D01*
X71452380Y70086761D01*
X71547619Y69991523D01*
X71642857Y69943904D01*
%TO.C,K23(W)1*%
X95928571Y69229619D02*
X95928571Y70229619D01*
X95357142Y69229619D02*
X95785714Y69801047D01*
X95357142Y70229619D02*
X95928571Y69658190D01*
X94976190Y70134380D02*
X94928571Y70182000D01*
X94833333Y70229619D01*
X94595238Y70229619D01*
X94500000Y70182000D01*
X94452380Y70134380D01*
X94404761Y70039142D01*
X94404761Y69943904D01*
X94452380Y69801047D01*
X95023809Y69229619D01*
X94404761Y69229619D01*
X94071428Y70229619D02*
X93452380Y70229619D01*
X93785714Y69848666D01*
X93642857Y69848666D01*
X93547619Y69801047D01*
X93500000Y69753428D01*
X93452380Y69658190D01*
X93452380Y69420095D01*
X93500000Y69324857D01*
X93547619Y69277238D01*
X93642857Y69229619D01*
X93928571Y69229619D01*
X94023809Y69277238D01*
X94071428Y69324857D01*
X92738095Y68848666D02*
X92785714Y68896285D01*
X92880952Y69039142D01*
X92928571Y69134380D01*
X92976190Y69277238D01*
X93023809Y69515333D01*
X93023809Y69705809D01*
X92976190Y69943904D01*
X92928571Y70086761D01*
X92880952Y70182000D01*
X92785714Y70324857D01*
X92738095Y70372476D01*
X92452380Y70229619D02*
X92214285Y69229619D01*
X92023809Y69943904D01*
X91833333Y69229619D01*
X91595238Y70229619D01*
X91309523Y68848666D02*
X91261904Y68896285D01*
X91166666Y69039142D01*
X91119047Y69134380D01*
X91071428Y69277238D01*
X91023809Y69515333D01*
X91023809Y69705809D01*
X91071428Y69943904D01*
X91119047Y70086761D01*
X91166666Y70182000D01*
X91261904Y70324857D01*
X91309523Y70372476D01*
X90023809Y69229619D02*
X90595238Y69229619D01*
X90309523Y69229619D02*
X90309523Y70229619D01*
X90404761Y70086761D01*
X90500000Y69991523D01*
X90595238Y69943904D01*
%TO.C,K24(E)1*%
X114809523Y69229619D02*
X114809523Y70229619D01*
X114238095Y69229619D02*
X114666666Y69801047D01*
X114238095Y70229619D02*
X114809523Y69658190D01*
X113857142Y70134380D02*
X113809523Y70182000D01*
X113714285Y70229619D01*
X113476190Y70229619D01*
X113380952Y70182000D01*
X113333333Y70134380D01*
X113285714Y70039142D01*
X113285714Y69943904D01*
X113333333Y69801047D01*
X113904761Y69229619D01*
X113285714Y69229619D01*
X112428571Y69896285D02*
X112428571Y69229619D01*
X112666666Y70277238D02*
X112904761Y69562952D01*
X112285714Y69562952D01*
X111619047Y68848666D02*
X111666666Y68896285D01*
X111761904Y69039142D01*
X111809523Y69134380D01*
X111857142Y69277238D01*
X111904761Y69515333D01*
X111904761Y69705809D01*
X111857142Y69943904D01*
X111809523Y70086761D01*
X111761904Y70182000D01*
X111666666Y70324857D01*
X111619047Y70372476D01*
X111238095Y69753428D02*
X110904761Y69753428D01*
X110761904Y69229619D02*
X111238095Y69229619D01*
X111238095Y70229619D01*
X110761904Y70229619D01*
X110428571Y68848666D02*
X110380952Y68896285D01*
X110285714Y69039142D01*
X110238095Y69134380D01*
X110190476Y69277238D01*
X110142857Y69515333D01*
X110142857Y69705809D01*
X110190476Y69943904D01*
X110238095Y70086761D01*
X110285714Y70182000D01*
X110380952Y70324857D01*
X110428571Y70372476D01*
X109142857Y69229619D02*
X109714285Y69229619D01*
X109428571Y69229619D02*
X109428571Y70229619D01*
X109523809Y70086761D01*
X109619047Y69991523D01*
X109714285Y69943904D01*
%TO.C,K25(R)1*%
X133857142Y69229619D02*
X133857142Y70229619D01*
X133285714Y69229619D02*
X133714285Y69801047D01*
X133285714Y70229619D02*
X133857142Y69658190D01*
X132904761Y70134380D02*
X132857142Y70182000D01*
X132761904Y70229619D01*
X132523809Y70229619D01*
X132428571Y70182000D01*
X132380952Y70134380D01*
X132333333Y70039142D01*
X132333333Y69943904D01*
X132380952Y69801047D01*
X132952380Y69229619D01*
X132333333Y69229619D01*
X131428571Y70229619D02*
X131904761Y70229619D01*
X131952380Y69753428D01*
X131904761Y69801047D01*
X131809523Y69848666D01*
X131571428Y69848666D01*
X131476190Y69801047D01*
X131428571Y69753428D01*
X131380952Y69658190D01*
X131380952Y69420095D01*
X131428571Y69324857D01*
X131476190Y69277238D01*
X131571428Y69229619D01*
X131809523Y69229619D01*
X131904761Y69277238D01*
X131952380Y69324857D01*
X130666666Y68848666D02*
X130714285Y68896285D01*
X130809523Y69039142D01*
X130857142Y69134380D01*
X130904761Y69277238D01*
X130952380Y69515333D01*
X130952380Y69705809D01*
X130904761Y69943904D01*
X130857142Y70086761D01*
X130809523Y70182000D01*
X130714285Y70324857D01*
X130666666Y70372476D01*
X129714285Y69229619D02*
X130047619Y69705809D01*
X130285714Y69229619D02*
X130285714Y70229619D01*
X129904761Y70229619D01*
X129809523Y70182000D01*
X129761904Y70134380D01*
X129714285Y70039142D01*
X129714285Y69896285D01*
X129761904Y69801047D01*
X129809523Y69753428D01*
X129904761Y69705809D01*
X130285714Y69705809D01*
X129380952Y68848666D02*
X129333333Y68896285D01*
X129238095Y69039142D01*
X129190476Y69134380D01*
X129142857Y69277238D01*
X129095238Y69515333D01*
X129095238Y69705809D01*
X129142857Y69943904D01*
X129190476Y70086761D01*
X129238095Y70182000D01*
X129333333Y70324857D01*
X129380952Y70372476D01*
X128095238Y69229619D02*
X128666666Y69229619D01*
X128380952Y69229619D02*
X128380952Y70229619D01*
X128476190Y70086761D01*
X128571428Y69991523D01*
X128666666Y69943904D01*
%TO.C,K26(T)1*%
X152738095Y69229619D02*
X152738095Y70229619D01*
X152166666Y69229619D02*
X152595238Y69801047D01*
X152166666Y70229619D02*
X152738095Y69658190D01*
X151785714Y70134380D02*
X151738095Y70182000D01*
X151642857Y70229619D01*
X151404761Y70229619D01*
X151309523Y70182000D01*
X151261904Y70134380D01*
X151214285Y70039142D01*
X151214285Y69943904D01*
X151261904Y69801047D01*
X151833333Y69229619D01*
X151214285Y69229619D01*
X150357142Y70229619D02*
X150547619Y70229619D01*
X150642857Y70182000D01*
X150690476Y70134380D01*
X150785714Y69991523D01*
X150833333Y69801047D01*
X150833333Y69420095D01*
X150785714Y69324857D01*
X150738095Y69277238D01*
X150642857Y69229619D01*
X150452380Y69229619D01*
X150357142Y69277238D01*
X150309523Y69324857D01*
X150261904Y69420095D01*
X150261904Y69658190D01*
X150309523Y69753428D01*
X150357142Y69801047D01*
X150452380Y69848666D01*
X150642857Y69848666D01*
X150738095Y69801047D01*
X150785714Y69753428D01*
X150833333Y69658190D01*
X149547619Y68848666D02*
X149595238Y68896285D01*
X149690476Y69039142D01*
X149738095Y69134380D01*
X149785714Y69277238D01*
X149833333Y69515333D01*
X149833333Y69705809D01*
X149785714Y69943904D01*
X149738095Y70086761D01*
X149690476Y70182000D01*
X149595238Y70324857D01*
X149547619Y70372476D01*
X149309523Y70229619D02*
X148738095Y70229619D01*
X149023809Y69229619D02*
X149023809Y70229619D01*
X148500000Y68848666D02*
X148452380Y68896285D01*
X148357142Y69039142D01*
X148309523Y69134380D01*
X148261904Y69277238D01*
X148214285Y69515333D01*
X148214285Y69705809D01*
X148261904Y69943904D01*
X148309523Y70086761D01*
X148357142Y70182000D01*
X148452380Y70324857D01*
X148500000Y70372476D01*
X147214285Y69229619D02*
X147785714Y69229619D01*
X147500000Y69229619D02*
X147500000Y70229619D01*
X147595238Y70086761D01*
X147690476Y69991523D01*
X147785714Y69943904D01*
%TO.C,K27(P)1*%
X171857142Y69229619D02*
X171857142Y70229619D01*
X171285714Y69229619D02*
X171714285Y69801047D01*
X171285714Y70229619D02*
X171857142Y69658190D01*
X170904761Y70134380D02*
X170857142Y70182000D01*
X170761904Y70229619D01*
X170523809Y70229619D01*
X170428571Y70182000D01*
X170380952Y70134380D01*
X170333333Y70039142D01*
X170333333Y69943904D01*
X170380952Y69801047D01*
X170952380Y69229619D01*
X170333333Y69229619D01*
X170000000Y70229619D02*
X169333333Y70229619D01*
X169761904Y69229619D01*
X168666666Y68848666D02*
X168714285Y68896285D01*
X168809523Y69039142D01*
X168857142Y69134380D01*
X168904761Y69277238D01*
X168952380Y69515333D01*
X168952380Y69705809D01*
X168904761Y69943904D01*
X168857142Y70086761D01*
X168809523Y70182000D01*
X168714285Y70324857D01*
X168666666Y70372476D01*
X168285714Y69229619D02*
X168285714Y70229619D01*
X167904761Y70229619D01*
X167809523Y70182000D01*
X167761904Y70134380D01*
X167714285Y70039142D01*
X167714285Y69896285D01*
X167761904Y69801047D01*
X167809523Y69753428D01*
X167904761Y69705809D01*
X168285714Y69705809D01*
X167380952Y68848666D02*
X167333333Y68896285D01*
X167238095Y69039142D01*
X167190476Y69134380D01*
X167142857Y69277238D01*
X167095238Y69515333D01*
X167095238Y69705809D01*
X167142857Y69943904D01*
X167190476Y70086761D01*
X167238095Y70182000D01*
X167333333Y70324857D01*
X167380952Y70372476D01*
X166095238Y69229619D02*
X166666666Y69229619D01*
X166380952Y69229619D02*
X166380952Y70229619D01*
X166476190Y70086761D01*
X166571428Y69991523D01*
X166666666Y69943904D01*
%TO.C,K30(M2)1*%
X20404761Y50229619D02*
X20404761Y51229619D01*
X19833333Y50229619D02*
X20261904Y50801047D01*
X19833333Y51229619D02*
X20404761Y50658190D01*
X19500000Y51229619D02*
X18880952Y51229619D01*
X19214285Y50848666D01*
X19071428Y50848666D01*
X18976190Y50801047D01*
X18928571Y50753428D01*
X18880952Y50658190D01*
X18880952Y50420095D01*
X18928571Y50324857D01*
X18976190Y50277238D01*
X19071428Y50229619D01*
X19357142Y50229619D01*
X19452380Y50277238D01*
X19500000Y50324857D01*
X18261904Y51229619D02*
X18166666Y51229619D01*
X18071428Y51182000D01*
X18023809Y51134380D01*
X17976190Y51039142D01*
X17928571Y50848666D01*
X17928571Y50610571D01*
X17976190Y50420095D01*
X18023809Y50324857D01*
X18071428Y50277238D01*
X18166666Y50229619D01*
X18261904Y50229619D01*
X18357142Y50277238D01*
X18404761Y50324857D01*
X18452380Y50420095D01*
X18500000Y50610571D01*
X18500000Y50848666D01*
X18452380Y51039142D01*
X18404761Y51134380D01*
X18357142Y51182000D01*
X18261904Y51229619D01*
X17214285Y49848666D02*
X17261904Y49896285D01*
X17357142Y50039142D01*
X17404761Y50134380D01*
X17452380Y50277238D01*
X17500000Y50515333D01*
X17500000Y50705809D01*
X17452380Y50943904D01*
X17404761Y51086761D01*
X17357142Y51182000D01*
X17261904Y51324857D01*
X17214285Y51372476D01*
X16833333Y50229619D02*
X16833333Y51229619D01*
X16500000Y50515333D01*
X16166666Y51229619D01*
X16166666Y50229619D01*
X15738095Y51134380D02*
X15690476Y51182000D01*
X15595238Y51229619D01*
X15357142Y51229619D01*
X15261904Y51182000D01*
X15214285Y51134380D01*
X15166666Y51039142D01*
X15166666Y50943904D01*
X15214285Y50801047D01*
X15785714Y50229619D01*
X15166666Y50229619D01*
X14833333Y49848666D02*
X14785714Y49896285D01*
X14690476Y50039142D01*
X14642857Y50134380D01*
X14595238Y50277238D01*
X14547619Y50515333D01*
X14547619Y50705809D01*
X14595238Y50943904D01*
X14642857Y51086761D01*
X14690476Y51182000D01*
X14785714Y51324857D01*
X14833333Y51372476D01*
X13547619Y50229619D02*
X14119047Y50229619D01*
X13833333Y50229619D02*
X13833333Y51229619D01*
X13928571Y51086761D01*
X14023809Y50991523D01*
X14119047Y50943904D01*
%TO.C,K31(Caps_Lock)1*%
X58868095Y50229619D02*
X58868095Y51229619D01*
X58296666Y50229619D02*
X58725238Y50801047D01*
X58296666Y51229619D02*
X58868095Y50658190D01*
X57963333Y51229619D02*
X57344285Y51229619D01*
X57677619Y50848666D01*
X57534761Y50848666D01*
X57439523Y50801047D01*
X57391904Y50753428D01*
X57344285Y50658190D01*
X57344285Y50420095D01*
X57391904Y50324857D01*
X57439523Y50277238D01*
X57534761Y50229619D01*
X57820476Y50229619D01*
X57915714Y50277238D01*
X57963333Y50324857D01*
X56391904Y50229619D02*
X56963333Y50229619D01*
X56677619Y50229619D02*
X56677619Y51229619D01*
X56772857Y51086761D01*
X56868095Y50991523D01*
X56963333Y50943904D01*
X55677619Y49848666D02*
X55725238Y49896285D01*
X55820476Y50039142D01*
X55868095Y50134380D01*
X55915714Y50277238D01*
X55963333Y50515333D01*
X55963333Y50705809D01*
X55915714Y50943904D01*
X55868095Y51086761D01*
X55820476Y51182000D01*
X55725238Y51324857D01*
X55677619Y51372476D01*
X54725238Y50324857D02*
X54772857Y50277238D01*
X54915714Y50229619D01*
X55010952Y50229619D01*
X55153809Y50277238D01*
X55249047Y50372476D01*
X55296666Y50467714D01*
X55344285Y50658190D01*
X55344285Y50801047D01*
X55296666Y50991523D01*
X55249047Y51086761D01*
X55153809Y51182000D01*
X55010952Y51229619D01*
X54915714Y51229619D01*
X54772857Y51182000D01*
X54725238Y51134380D01*
X53868095Y50229619D02*
X53868095Y50753428D01*
X53915714Y50848666D01*
X54010952Y50896285D01*
X54201428Y50896285D01*
X54296666Y50848666D01*
X53868095Y50277238D02*
X53963333Y50229619D01*
X54201428Y50229619D01*
X54296666Y50277238D01*
X54344285Y50372476D01*
X54344285Y50467714D01*
X54296666Y50562952D01*
X54201428Y50610571D01*
X53963333Y50610571D01*
X53868095Y50658190D01*
X53391904Y50896285D02*
X53391904Y49896285D01*
X53391904Y50848666D02*
X53296666Y50896285D01*
X53106190Y50896285D01*
X53010952Y50848666D01*
X52963333Y50801047D01*
X52915714Y50705809D01*
X52915714Y50420095D01*
X52963333Y50324857D01*
X53010952Y50277238D01*
X53106190Y50229619D01*
X53296666Y50229619D01*
X53391904Y50277238D01*
X52534761Y50277238D02*
X52439523Y50229619D01*
X52249047Y50229619D01*
X52153809Y50277238D01*
X52106190Y50372476D01*
X52106190Y50420095D01*
X52153809Y50515333D01*
X52249047Y50562952D01*
X52391904Y50562952D01*
X52487142Y50610571D01*
X52534761Y50705809D01*
X52534761Y50753428D01*
X52487142Y50848666D01*
X52391904Y50896285D01*
X52249047Y50896285D01*
X52153809Y50848666D01*
X51915714Y50134380D02*
X51153809Y50134380D01*
X50439523Y50229619D02*
X50915714Y50229619D01*
X50915714Y51229619D01*
X49963333Y50229619D02*
X50058571Y50277238D01*
X50106190Y50324857D01*
X50153809Y50420095D01*
X50153809Y50705809D01*
X50106190Y50801047D01*
X50058571Y50848666D01*
X49963333Y50896285D01*
X49820476Y50896285D01*
X49725238Y50848666D01*
X49677619Y50801047D01*
X49630000Y50705809D01*
X49630000Y50420095D01*
X49677619Y50324857D01*
X49725238Y50277238D01*
X49820476Y50229619D01*
X49963333Y50229619D01*
X48772857Y50277238D02*
X48868095Y50229619D01*
X49058571Y50229619D01*
X49153809Y50277238D01*
X49201428Y50324857D01*
X49249047Y50420095D01*
X49249047Y50705809D01*
X49201428Y50801047D01*
X49153809Y50848666D01*
X49058571Y50896285D01*
X48868095Y50896285D01*
X48772857Y50848666D01*
X48344285Y50229619D02*
X48344285Y51229619D01*
X48249047Y50610571D02*
X47963333Y50229619D01*
X47963333Y50896285D02*
X48344285Y50515333D01*
X47630000Y49848666D02*
X47582380Y49896285D01*
X47487142Y50039142D01*
X47439523Y50134380D01*
X47391904Y50277238D01*
X47344285Y50515333D01*
X47344285Y50705809D01*
X47391904Y50943904D01*
X47439523Y51086761D01*
X47487142Y51182000D01*
X47582380Y51324857D01*
X47630000Y51372476D01*
X46344285Y50229619D02*
X46915714Y50229619D01*
X46630000Y50229619D02*
X46630000Y51229619D01*
X46725238Y51086761D01*
X46820476Y50991523D01*
X46915714Y50943904D01*
%TO.C,K32(A)1*%
X81535714Y50229619D02*
X81535714Y51229619D01*
X80964285Y50229619D02*
X81392857Y50801047D01*
X80964285Y51229619D02*
X81535714Y50658190D01*
X80630952Y51229619D02*
X80011904Y51229619D01*
X80345238Y50848666D01*
X80202380Y50848666D01*
X80107142Y50801047D01*
X80059523Y50753428D01*
X80011904Y50658190D01*
X80011904Y50420095D01*
X80059523Y50324857D01*
X80107142Y50277238D01*
X80202380Y50229619D01*
X80488095Y50229619D01*
X80583333Y50277238D01*
X80630952Y50324857D01*
X79630952Y51134380D02*
X79583333Y51182000D01*
X79488095Y51229619D01*
X79250000Y51229619D01*
X79154761Y51182000D01*
X79107142Y51134380D01*
X79059523Y51039142D01*
X79059523Y50943904D01*
X79107142Y50801047D01*
X79678571Y50229619D01*
X79059523Y50229619D01*
X78345238Y49848666D02*
X78392857Y49896285D01*
X78488095Y50039142D01*
X78535714Y50134380D01*
X78583333Y50277238D01*
X78630952Y50515333D01*
X78630952Y50705809D01*
X78583333Y50943904D01*
X78535714Y51086761D01*
X78488095Y51182000D01*
X78392857Y51324857D01*
X78345238Y51372476D01*
X78011904Y50515333D02*
X77535714Y50515333D01*
X78107142Y50229619D02*
X77773809Y51229619D01*
X77440476Y50229619D01*
X77202380Y49848666D02*
X77154761Y49896285D01*
X77059523Y50039142D01*
X77011904Y50134380D01*
X76964285Y50277238D01*
X76916666Y50515333D01*
X76916666Y50705809D01*
X76964285Y50943904D01*
X77011904Y51086761D01*
X77059523Y51182000D01*
X77154761Y51324857D01*
X77202380Y51372476D01*
X75916666Y50229619D02*
X76488095Y50229619D01*
X76202380Y50229619D02*
X76202380Y51229619D01*
X76297619Y51086761D01*
X76392857Y50991523D01*
X76488095Y50943904D01*
%TO.C,K33(S)1*%
X100583333Y50229619D02*
X100583333Y51229619D01*
X100011904Y50229619D02*
X100440476Y50801047D01*
X100011904Y51229619D02*
X100583333Y50658190D01*
X99678571Y51229619D02*
X99059523Y51229619D01*
X99392857Y50848666D01*
X99250000Y50848666D01*
X99154761Y50801047D01*
X99107142Y50753428D01*
X99059523Y50658190D01*
X99059523Y50420095D01*
X99107142Y50324857D01*
X99154761Y50277238D01*
X99250000Y50229619D01*
X99535714Y50229619D01*
X99630952Y50277238D01*
X99678571Y50324857D01*
X98726190Y51229619D02*
X98107142Y51229619D01*
X98440476Y50848666D01*
X98297619Y50848666D01*
X98202380Y50801047D01*
X98154761Y50753428D01*
X98107142Y50658190D01*
X98107142Y50420095D01*
X98154761Y50324857D01*
X98202380Y50277238D01*
X98297619Y50229619D01*
X98583333Y50229619D01*
X98678571Y50277238D01*
X98726190Y50324857D01*
X97392857Y49848666D02*
X97440476Y49896285D01*
X97535714Y50039142D01*
X97583333Y50134380D01*
X97630952Y50277238D01*
X97678571Y50515333D01*
X97678571Y50705809D01*
X97630952Y50943904D01*
X97583333Y51086761D01*
X97535714Y51182000D01*
X97440476Y51324857D01*
X97392857Y51372476D01*
X97059523Y50277238D02*
X96916666Y50229619D01*
X96678571Y50229619D01*
X96583333Y50277238D01*
X96535714Y50324857D01*
X96488095Y50420095D01*
X96488095Y50515333D01*
X96535714Y50610571D01*
X96583333Y50658190D01*
X96678571Y50705809D01*
X96869047Y50753428D01*
X96964285Y50801047D01*
X97011904Y50848666D01*
X97059523Y50943904D01*
X97059523Y51039142D01*
X97011904Y51134380D01*
X96964285Y51182000D01*
X96869047Y51229619D01*
X96630952Y51229619D01*
X96488095Y51182000D01*
X96154761Y49848666D02*
X96107142Y49896285D01*
X96011904Y50039142D01*
X95964285Y50134380D01*
X95916666Y50277238D01*
X95869047Y50515333D01*
X95869047Y50705809D01*
X95916666Y50943904D01*
X95964285Y51086761D01*
X96011904Y51182000D01*
X96107142Y51324857D01*
X96154761Y51372476D01*
X94869047Y50229619D02*
X95440476Y50229619D01*
X95154761Y50229619D02*
X95154761Y51229619D01*
X95250000Y51086761D01*
X95345238Y50991523D01*
X95440476Y50943904D01*
%TO.C,K34(D)1*%
X119607142Y50229619D02*
X119607142Y51229619D01*
X119035714Y50229619D02*
X119464285Y50801047D01*
X119035714Y51229619D02*
X119607142Y50658190D01*
X118702380Y51229619D02*
X118083333Y51229619D01*
X118416666Y50848666D01*
X118273809Y50848666D01*
X118178571Y50801047D01*
X118130952Y50753428D01*
X118083333Y50658190D01*
X118083333Y50420095D01*
X118130952Y50324857D01*
X118178571Y50277238D01*
X118273809Y50229619D01*
X118559523Y50229619D01*
X118654761Y50277238D01*
X118702380Y50324857D01*
X117226190Y50896285D02*
X117226190Y50229619D01*
X117464285Y51277238D02*
X117702380Y50562952D01*
X117083333Y50562952D01*
X116416666Y49848666D02*
X116464285Y49896285D01*
X116559523Y50039142D01*
X116607142Y50134380D01*
X116654761Y50277238D01*
X116702380Y50515333D01*
X116702380Y50705809D01*
X116654761Y50943904D01*
X116607142Y51086761D01*
X116559523Y51182000D01*
X116464285Y51324857D01*
X116416666Y51372476D01*
X116035714Y50229619D02*
X116035714Y51229619D01*
X115797619Y51229619D01*
X115654761Y51182000D01*
X115559523Y51086761D01*
X115511904Y50991523D01*
X115464285Y50801047D01*
X115464285Y50658190D01*
X115511904Y50467714D01*
X115559523Y50372476D01*
X115654761Y50277238D01*
X115797619Y50229619D01*
X116035714Y50229619D01*
X115130952Y49848666D02*
X115083333Y49896285D01*
X114988095Y50039142D01*
X114940476Y50134380D01*
X114892857Y50277238D01*
X114845238Y50515333D01*
X114845238Y50705809D01*
X114892857Y50943904D01*
X114940476Y51086761D01*
X114988095Y51182000D01*
X115083333Y51324857D01*
X115130952Y51372476D01*
X113845238Y50229619D02*
X114416666Y50229619D01*
X114130952Y50229619D02*
X114130952Y51229619D01*
X114226190Y51086761D01*
X114321428Y50991523D01*
X114416666Y50943904D01*
%TO.C,K35(F)1*%
X138535714Y50229619D02*
X138535714Y51229619D01*
X137964285Y50229619D02*
X138392857Y50801047D01*
X137964285Y51229619D02*
X138535714Y50658190D01*
X137630952Y51229619D02*
X137011904Y51229619D01*
X137345238Y50848666D01*
X137202380Y50848666D01*
X137107142Y50801047D01*
X137059523Y50753428D01*
X137011904Y50658190D01*
X137011904Y50420095D01*
X137059523Y50324857D01*
X137107142Y50277238D01*
X137202380Y50229619D01*
X137488095Y50229619D01*
X137583333Y50277238D01*
X137630952Y50324857D01*
X136107142Y51229619D02*
X136583333Y51229619D01*
X136630952Y50753428D01*
X136583333Y50801047D01*
X136488095Y50848666D01*
X136250000Y50848666D01*
X136154761Y50801047D01*
X136107142Y50753428D01*
X136059523Y50658190D01*
X136059523Y50420095D01*
X136107142Y50324857D01*
X136154761Y50277238D01*
X136250000Y50229619D01*
X136488095Y50229619D01*
X136583333Y50277238D01*
X136630952Y50324857D01*
X135345238Y49848666D02*
X135392857Y49896285D01*
X135488095Y50039142D01*
X135535714Y50134380D01*
X135583333Y50277238D01*
X135630952Y50515333D01*
X135630952Y50705809D01*
X135583333Y50943904D01*
X135535714Y51086761D01*
X135488095Y51182000D01*
X135392857Y51324857D01*
X135345238Y51372476D01*
X134630952Y50753428D02*
X134964285Y50753428D01*
X134964285Y50229619D02*
X134964285Y51229619D01*
X134488095Y51229619D01*
X134202380Y49848666D02*
X134154761Y49896285D01*
X134059523Y50039142D01*
X134011904Y50134380D01*
X133964285Y50277238D01*
X133916666Y50515333D01*
X133916666Y50705809D01*
X133964285Y50943904D01*
X134011904Y51086761D01*
X134059523Y51182000D01*
X134154761Y51324857D01*
X134202380Y51372476D01*
X132916666Y50229619D02*
X133488095Y50229619D01*
X133202380Y50229619D02*
X133202380Y51229619D01*
X133297619Y51086761D01*
X133392857Y50991523D01*
X133488095Y50943904D01*
%TO.C,K36(G)1*%
X157607142Y50229619D02*
X157607142Y51229619D01*
X157035714Y50229619D02*
X157464285Y50801047D01*
X157035714Y51229619D02*
X157607142Y50658190D01*
X156702380Y51229619D02*
X156083333Y51229619D01*
X156416666Y50848666D01*
X156273809Y50848666D01*
X156178571Y50801047D01*
X156130952Y50753428D01*
X156083333Y50658190D01*
X156083333Y50420095D01*
X156130952Y50324857D01*
X156178571Y50277238D01*
X156273809Y50229619D01*
X156559523Y50229619D01*
X156654761Y50277238D01*
X156702380Y50324857D01*
X155226190Y51229619D02*
X155416666Y51229619D01*
X155511904Y51182000D01*
X155559523Y51134380D01*
X155654761Y50991523D01*
X155702380Y50801047D01*
X155702380Y50420095D01*
X155654761Y50324857D01*
X155607142Y50277238D01*
X155511904Y50229619D01*
X155321428Y50229619D01*
X155226190Y50277238D01*
X155178571Y50324857D01*
X155130952Y50420095D01*
X155130952Y50658190D01*
X155178571Y50753428D01*
X155226190Y50801047D01*
X155321428Y50848666D01*
X155511904Y50848666D01*
X155607142Y50801047D01*
X155654761Y50753428D01*
X155702380Y50658190D01*
X154416666Y49848666D02*
X154464285Y49896285D01*
X154559523Y50039142D01*
X154607142Y50134380D01*
X154654761Y50277238D01*
X154702380Y50515333D01*
X154702380Y50705809D01*
X154654761Y50943904D01*
X154607142Y51086761D01*
X154559523Y51182000D01*
X154464285Y51324857D01*
X154416666Y51372476D01*
X153511904Y51182000D02*
X153607142Y51229619D01*
X153750000Y51229619D01*
X153892857Y51182000D01*
X153988095Y51086761D01*
X154035714Y50991523D01*
X154083333Y50801047D01*
X154083333Y50658190D01*
X154035714Y50467714D01*
X153988095Y50372476D01*
X153892857Y50277238D01*
X153750000Y50229619D01*
X153654761Y50229619D01*
X153511904Y50277238D01*
X153464285Y50324857D01*
X153464285Y50658190D01*
X153654761Y50658190D01*
X153130952Y49848666D02*
X153083333Y49896285D01*
X152988095Y50039142D01*
X152940476Y50134380D01*
X152892857Y50277238D01*
X152845238Y50515333D01*
X152845238Y50705809D01*
X152892857Y50943904D01*
X152940476Y51086761D01*
X152988095Y51182000D01*
X153083333Y51324857D01*
X153130952Y51372476D01*
X151845238Y50229619D02*
X152416666Y50229619D01*
X152130952Y50229619D02*
X152130952Y51229619D01*
X152226190Y51086761D01*
X152321428Y50991523D01*
X152416666Y50943904D01*
%TO.C,K37(H)1*%
X176630952Y50229619D02*
X176630952Y51229619D01*
X176059523Y50229619D02*
X176488095Y50801047D01*
X176059523Y51229619D02*
X176630952Y50658190D01*
X175726190Y51229619D02*
X175107142Y51229619D01*
X175440476Y50848666D01*
X175297619Y50848666D01*
X175202380Y50801047D01*
X175154761Y50753428D01*
X175107142Y50658190D01*
X175107142Y50420095D01*
X175154761Y50324857D01*
X175202380Y50277238D01*
X175297619Y50229619D01*
X175583333Y50229619D01*
X175678571Y50277238D01*
X175726190Y50324857D01*
X174773809Y51229619D02*
X174107142Y51229619D01*
X174535714Y50229619D01*
X173440476Y49848666D02*
X173488095Y49896285D01*
X173583333Y50039142D01*
X173630952Y50134380D01*
X173678571Y50277238D01*
X173726190Y50515333D01*
X173726190Y50705809D01*
X173678571Y50943904D01*
X173630952Y51086761D01*
X173583333Y51182000D01*
X173488095Y51324857D01*
X173440476Y51372476D01*
X173059523Y50229619D02*
X173059523Y51229619D01*
X173059523Y50753428D02*
X172488095Y50753428D01*
X172488095Y50229619D02*
X172488095Y51229619D01*
X172107142Y49848666D02*
X172059523Y49896285D01*
X171964285Y50039142D01*
X171916666Y50134380D01*
X171869047Y50277238D01*
X171821428Y50515333D01*
X171821428Y50705809D01*
X171869047Y50943904D01*
X171916666Y51086761D01*
X171964285Y51182000D01*
X172059523Y51324857D01*
X172107142Y51372476D01*
X170821428Y50229619D02*
X171392857Y50229619D01*
X171107142Y50229619D02*
X171107142Y51229619D01*
X171202380Y51086761D01*
X171297619Y50991523D01*
X171392857Y50943904D01*
%TO.C,K38(IoT1)1*%
X206154761Y31229619D02*
X206154761Y32229619D01*
X205583333Y31229619D02*
X206011904Y31801047D01*
X205583333Y32229619D02*
X206154761Y31658190D01*
X205250000Y32229619D02*
X204630952Y32229619D01*
X204964285Y31848666D01*
X204821428Y31848666D01*
X204726190Y31801047D01*
X204678571Y31753428D01*
X204630952Y31658190D01*
X204630952Y31420095D01*
X204678571Y31324857D01*
X204726190Y31277238D01*
X204821428Y31229619D01*
X205107142Y31229619D01*
X205202380Y31277238D01*
X205250000Y31324857D01*
X204059523Y31801047D02*
X204154761Y31848666D01*
X204202380Y31896285D01*
X204250000Y31991523D01*
X204250000Y32039142D01*
X204202380Y32134380D01*
X204154761Y32182000D01*
X204059523Y32229619D01*
X203869047Y32229619D01*
X203773809Y32182000D01*
X203726190Y32134380D01*
X203678571Y32039142D01*
X203678571Y31991523D01*
X203726190Y31896285D01*
X203773809Y31848666D01*
X203869047Y31801047D01*
X204059523Y31801047D01*
X204154761Y31753428D01*
X204202380Y31705809D01*
X204250000Y31610571D01*
X204250000Y31420095D01*
X204202380Y31324857D01*
X204154761Y31277238D01*
X204059523Y31229619D01*
X203869047Y31229619D01*
X203773809Y31277238D01*
X203726190Y31324857D01*
X203678571Y31420095D01*
X203678571Y31610571D01*
X203726190Y31705809D01*
X203773809Y31753428D01*
X203869047Y31801047D01*
X202964285Y30848666D02*
X203011904Y30896285D01*
X203107142Y31039142D01*
X203154761Y31134380D01*
X203202380Y31277238D01*
X203250000Y31515333D01*
X203250000Y31705809D01*
X203202380Y31943904D01*
X203154761Y32086761D01*
X203107142Y32182000D01*
X203011904Y32324857D01*
X202964285Y32372476D01*
X202583333Y31229619D02*
X202583333Y32229619D01*
X201964285Y31229619D02*
X202059523Y31277238D01*
X202107142Y31324857D01*
X202154761Y31420095D01*
X202154761Y31705809D01*
X202107142Y31801047D01*
X202059523Y31848666D01*
X201964285Y31896285D01*
X201821428Y31896285D01*
X201726190Y31848666D01*
X201678571Y31801047D01*
X201630952Y31705809D01*
X201630952Y31420095D01*
X201678571Y31324857D01*
X201726190Y31277238D01*
X201821428Y31229619D01*
X201964285Y31229619D01*
X201345238Y32229619D02*
X200773809Y32229619D01*
X201059523Y31229619D02*
X201059523Y32229619D01*
X199916666Y31229619D02*
X200488095Y31229619D01*
X200202380Y31229619D02*
X200202380Y32229619D01*
X200297619Y32086761D01*
X200392857Y31991523D01*
X200488095Y31943904D01*
X199583333Y30848666D02*
X199535714Y30896285D01*
X199440476Y31039142D01*
X199392857Y31134380D01*
X199345238Y31277238D01*
X199297619Y31515333D01*
X199297619Y31705809D01*
X199345238Y31943904D01*
X199392857Y32086761D01*
X199440476Y32182000D01*
X199535714Y32324857D01*
X199583333Y32372476D01*
X198297619Y31229619D02*
X198869047Y31229619D01*
X198583333Y31229619D02*
X198583333Y32229619D01*
X198678571Y32086761D01*
X198773809Y31991523D01*
X198869047Y31943904D01*
%TO.C,K40(M3)1*%
X20404761Y31229619D02*
X20404761Y32229619D01*
X19833333Y31229619D02*
X20261904Y31801047D01*
X19833333Y32229619D02*
X20404761Y31658190D01*
X18976190Y31896285D02*
X18976190Y31229619D01*
X19214285Y32277238D02*
X19452380Y31562952D01*
X18833333Y31562952D01*
X18261904Y32229619D02*
X18166666Y32229619D01*
X18071428Y32182000D01*
X18023809Y32134380D01*
X17976190Y32039142D01*
X17928571Y31848666D01*
X17928571Y31610571D01*
X17976190Y31420095D01*
X18023809Y31324857D01*
X18071428Y31277238D01*
X18166666Y31229619D01*
X18261904Y31229619D01*
X18357142Y31277238D01*
X18404761Y31324857D01*
X18452380Y31420095D01*
X18500000Y31610571D01*
X18500000Y31848666D01*
X18452380Y32039142D01*
X18404761Y32134380D01*
X18357142Y32182000D01*
X18261904Y32229619D01*
X17214285Y30848666D02*
X17261904Y30896285D01*
X17357142Y31039142D01*
X17404761Y31134380D01*
X17452380Y31277238D01*
X17500000Y31515333D01*
X17500000Y31705809D01*
X17452380Y31943904D01*
X17404761Y32086761D01*
X17357142Y32182000D01*
X17261904Y32324857D01*
X17214285Y32372476D01*
X16833333Y31229619D02*
X16833333Y32229619D01*
X16500000Y31515333D01*
X16166666Y32229619D01*
X16166666Y31229619D01*
X15785714Y32229619D02*
X15166666Y32229619D01*
X15500000Y31848666D01*
X15357142Y31848666D01*
X15261904Y31801047D01*
X15214285Y31753428D01*
X15166666Y31658190D01*
X15166666Y31420095D01*
X15214285Y31324857D01*
X15261904Y31277238D01*
X15357142Y31229619D01*
X15642857Y31229619D01*
X15738095Y31277238D01*
X15785714Y31324857D01*
X14833333Y30848666D02*
X14785714Y30896285D01*
X14690476Y31039142D01*
X14642857Y31134380D01*
X14595238Y31277238D01*
X14547619Y31515333D01*
X14547619Y31705809D01*
X14595238Y31943904D01*
X14642857Y32086761D01*
X14690476Y32182000D01*
X14785714Y32324857D01*
X14833333Y32372476D01*
X13547619Y31229619D02*
X14119047Y31229619D01*
X13833333Y31229619D02*
X13833333Y32229619D01*
X13928571Y32086761D01*
X14023809Y31991523D01*
X14119047Y31943904D01*
%TO.C,K41(L_Shift)1*%
X62260952Y31229619D02*
X62260952Y32229619D01*
X61689523Y31229619D02*
X62118095Y31801047D01*
X61689523Y32229619D02*
X62260952Y31658190D01*
X60832380Y31896285D02*
X60832380Y31229619D01*
X61070476Y32277238D02*
X61308571Y31562952D01*
X60689523Y31562952D01*
X59784761Y31229619D02*
X60356190Y31229619D01*
X60070476Y31229619D02*
X60070476Y32229619D01*
X60165714Y32086761D01*
X60260952Y31991523D01*
X60356190Y31943904D01*
X59070476Y30848666D02*
X59118095Y30896285D01*
X59213333Y31039142D01*
X59260952Y31134380D01*
X59308571Y31277238D01*
X59356190Y31515333D01*
X59356190Y31705809D01*
X59308571Y31943904D01*
X59260952Y32086761D01*
X59213333Y32182000D01*
X59118095Y32324857D01*
X59070476Y32372476D01*
X58213333Y31229619D02*
X58689523Y31229619D01*
X58689523Y32229619D01*
X58118095Y31134380D02*
X57356190Y31134380D01*
X57165714Y31277238D02*
X57022857Y31229619D01*
X56784761Y31229619D01*
X56689523Y31277238D01*
X56641904Y31324857D01*
X56594285Y31420095D01*
X56594285Y31515333D01*
X56641904Y31610571D01*
X56689523Y31658190D01*
X56784761Y31705809D01*
X56975238Y31753428D01*
X57070476Y31801047D01*
X57118095Y31848666D01*
X57165714Y31943904D01*
X57165714Y32039142D01*
X57118095Y32134380D01*
X57070476Y32182000D01*
X56975238Y32229619D01*
X56737142Y32229619D01*
X56594285Y32182000D01*
X56165714Y31229619D02*
X56165714Y32229619D01*
X55737142Y31229619D02*
X55737142Y31753428D01*
X55784761Y31848666D01*
X55880000Y31896285D01*
X56022857Y31896285D01*
X56118095Y31848666D01*
X56165714Y31801047D01*
X55260952Y31229619D02*
X55260952Y31896285D01*
X55260952Y32229619D02*
X55308571Y32182000D01*
X55260952Y32134380D01*
X55213333Y32182000D01*
X55260952Y32229619D01*
X55260952Y32134380D01*
X54927619Y31896285D02*
X54546666Y31896285D01*
X54784761Y31229619D02*
X54784761Y32086761D01*
X54737142Y32182000D01*
X54641904Y32229619D01*
X54546666Y32229619D01*
X54356190Y31896285D02*
X53975238Y31896285D01*
X54213333Y32229619D02*
X54213333Y31372476D01*
X54165714Y31277238D01*
X54070476Y31229619D01*
X53975238Y31229619D01*
X53737142Y30848666D02*
X53689523Y30896285D01*
X53594285Y31039142D01*
X53546666Y31134380D01*
X53499047Y31277238D01*
X53451428Y31515333D01*
X53451428Y31705809D01*
X53499047Y31943904D01*
X53546666Y32086761D01*
X53594285Y32182000D01*
X53689523Y32324857D01*
X53737142Y32372476D01*
X52451428Y31229619D02*
X53022857Y31229619D01*
X52737142Y31229619D02*
X52737142Y32229619D01*
X52832380Y32086761D01*
X52927619Y31991523D01*
X53022857Y31943904D01*
%TO.C,K42(Z)1*%
X91083333Y31229619D02*
X91083333Y32229619D01*
X90511904Y31229619D02*
X90940476Y31801047D01*
X90511904Y32229619D02*
X91083333Y31658190D01*
X89654761Y31896285D02*
X89654761Y31229619D01*
X89892857Y32277238D02*
X90130952Y31562952D01*
X89511904Y31562952D01*
X89178571Y32134380D02*
X89130952Y32182000D01*
X89035714Y32229619D01*
X88797619Y32229619D01*
X88702380Y32182000D01*
X88654761Y32134380D01*
X88607142Y32039142D01*
X88607142Y31943904D01*
X88654761Y31801047D01*
X89226190Y31229619D01*
X88607142Y31229619D01*
X87892857Y30848666D02*
X87940476Y30896285D01*
X88035714Y31039142D01*
X88083333Y31134380D01*
X88130952Y31277238D01*
X88178571Y31515333D01*
X88178571Y31705809D01*
X88130952Y31943904D01*
X88083333Y32086761D01*
X88035714Y32182000D01*
X87940476Y32324857D01*
X87892857Y32372476D01*
X87607142Y32229619D02*
X86940476Y32229619D01*
X87607142Y31229619D01*
X86940476Y31229619D01*
X86654761Y30848666D02*
X86607142Y30896285D01*
X86511904Y31039142D01*
X86464285Y31134380D01*
X86416666Y31277238D01*
X86369047Y31515333D01*
X86369047Y31705809D01*
X86416666Y31943904D01*
X86464285Y32086761D01*
X86511904Y32182000D01*
X86607142Y32324857D01*
X86654761Y32372476D01*
X85369047Y31229619D02*
X85940476Y31229619D01*
X85654761Y31229619D02*
X85654761Y32229619D01*
X85750000Y32086761D01*
X85845238Y31991523D01*
X85940476Y31943904D01*
%TO.C,K43(X)1*%
X110083333Y31229619D02*
X110083333Y32229619D01*
X109511904Y31229619D02*
X109940476Y31801047D01*
X109511904Y32229619D02*
X110083333Y31658190D01*
X108654761Y31896285D02*
X108654761Y31229619D01*
X108892857Y32277238D02*
X109130952Y31562952D01*
X108511904Y31562952D01*
X108226190Y32229619D02*
X107607142Y32229619D01*
X107940476Y31848666D01*
X107797619Y31848666D01*
X107702380Y31801047D01*
X107654761Y31753428D01*
X107607142Y31658190D01*
X107607142Y31420095D01*
X107654761Y31324857D01*
X107702380Y31277238D01*
X107797619Y31229619D01*
X108083333Y31229619D01*
X108178571Y31277238D01*
X108226190Y31324857D01*
X106892857Y30848666D02*
X106940476Y30896285D01*
X107035714Y31039142D01*
X107083333Y31134380D01*
X107130952Y31277238D01*
X107178571Y31515333D01*
X107178571Y31705809D01*
X107130952Y31943904D01*
X107083333Y32086761D01*
X107035714Y32182000D01*
X106940476Y32324857D01*
X106892857Y32372476D01*
X106607142Y32229619D02*
X105940476Y31229619D01*
X105940476Y32229619D02*
X106607142Y31229619D01*
X105654761Y30848666D02*
X105607142Y30896285D01*
X105511904Y31039142D01*
X105464285Y31134380D01*
X105416666Y31277238D01*
X105369047Y31515333D01*
X105369047Y31705809D01*
X105416666Y31943904D01*
X105464285Y32086761D01*
X105511904Y32182000D01*
X105607142Y32324857D01*
X105654761Y32372476D01*
X104369047Y31229619D02*
X104940476Y31229619D01*
X104654761Y31229619D02*
X104654761Y32229619D01*
X104750000Y32086761D01*
X104845238Y31991523D01*
X104940476Y31943904D01*
%TO.C,K44(C)1*%
X129107142Y31229619D02*
X129107142Y32229619D01*
X128535714Y31229619D02*
X128964285Y31801047D01*
X128535714Y32229619D02*
X129107142Y31658190D01*
X127678571Y31896285D02*
X127678571Y31229619D01*
X127916666Y32277238D02*
X128154761Y31562952D01*
X127535714Y31562952D01*
X126726190Y31896285D02*
X126726190Y31229619D01*
X126964285Y32277238D02*
X127202380Y31562952D01*
X126583333Y31562952D01*
X125916666Y30848666D02*
X125964285Y30896285D01*
X126059523Y31039142D01*
X126107142Y31134380D01*
X126154761Y31277238D01*
X126202380Y31515333D01*
X126202380Y31705809D01*
X126154761Y31943904D01*
X126107142Y32086761D01*
X126059523Y32182000D01*
X125964285Y32324857D01*
X125916666Y32372476D01*
X124964285Y31324857D02*
X125011904Y31277238D01*
X125154761Y31229619D01*
X125250000Y31229619D01*
X125392857Y31277238D01*
X125488095Y31372476D01*
X125535714Y31467714D01*
X125583333Y31658190D01*
X125583333Y31801047D01*
X125535714Y31991523D01*
X125488095Y32086761D01*
X125392857Y32182000D01*
X125250000Y32229619D01*
X125154761Y32229619D01*
X125011904Y32182000D01*
X124964285Y32134380D01*
X124630952Y30848666D02*
X124583333Y30896285D01*
X124488095Y31039142D01*
X124440476Y31134380D01*
X124392857Y31277238D01*
X124345238Y31515333D01*
X124345238Y31705809D01*
X124392857Y31943904D01*
X124440476Y32086761D01*
X124488095Y32182000D01*
X124583333Y32324857D01*
X124630952Y32372476D01*
X123345238Y31229619D02*
X123916666Y31229619D01*
X123630952Y31229619D02*
X123630952Y32229619D01*
X123726190Y32086761D01*
X123821428Y31991523D01*
X123916666Y31943904D01*
%TO.C,K45(V)1*%
X148035714Y31229619D02*
X148035714Y32229619D01*
X147464285Y31229619D02*
X147892857Y31801047D01*
X147464285Y32229619D02*
X148035714Y31658190D01*
X146607142Y31896285D02*
X146607142Y31229619D01*
X146845238Y32277238D02*
X147083333Y31562952D01*
X146464285Y31562952D01*
X145607142Y32229619D02*
X146083333Y32229619D01*
X146130952Y31753428D01*
X146083333Y31801047D01*
X145988095Y31848666D01*
X145750000Y31848666D01*
X145654761Y31801047D01*
X145607142Y31753428D01*
X145559523Y31658190D01*
X145559523Y31420095D01*
X145607142Y31324857D01*
X145654761Y31277238D01*
X145750000Y31229619D01*
X145988095Y31229619D01*
X146083333Y31277238D01*
X146130952Y31324857D01*
X144845238Y30848666D02*
X144892857Y30896285D01*
X144988095Y31039142D01*
X145035714Y31134380D01*
X145083333Y31277238D01*
X145130952Y31515333D01*
X145130952Y31705809D01*
X145083333Y31943904D01*
X145035714Y32086761D01*
X144988095Y32182000D01*
X144892857Y32324857D01*
X144845238Y32372476D01*
X144607142Y32229619D02*
X144273809Y31229619D01*
X143940476Y32229619D01*
X143702380Y30848666D02*
X143654761Y30896285D01*
X143559523Y31039142D01*
X143511904Y31134380D01*
X143464285Y31277238D01*
X143416666Y31515333D01*
X143416666Y31705809D01*
X143464285Y31943904D01*
X143511904Y32086761D01*
X143559523Y32182000D01*
X143654761Y32324857D01*
X143702380Y32372476D01*
X142416666Y31229619D02*
X142988095Y31229619D01*
X142702380Y31229619D02*
X142702380Y32229619D01*
X142797619Y32086761D01*
X142892857Y31991523D01*
X142988095Y31943904D01*
%TO.C,K46(B)1*%
X167107142Y31229619D02*
X167107142Y32229619D01*
X166535714Y31229619D02*
X166964285Y31801047D01*
X166535714Y32229619D02*
X167107142Y31658190D01*
X165678571Y31896285D02*
X165678571Y31229619D01*
X165916666Y32277238D02*
X166154761Y31562952D01*
X165535714Y31562952D01*
X164726190Y32229619D02*
X164916666Y32229619D01*
X165011904Y32182000D01*
X165059523Y32134380D01*
X165154761Y31991523D01*
X165202380Y31801047D01*
X165202380Y31420095D01*
X165154761Y31324857D01*
X165107142Y31277238D01*
X165011904Y31229619D01*
X164821428Y31229619D01*
X164726190Y31277238D01*
X164678571Y31324857D01*
X164630952Y31420095D01*
X164630952Y31658190D01*
X164678571Y31753428D01*
X164726190Y31801047D01*
X164821428Y31848666D01*
X165011904Y31848666D01*
X165107142Y31801047D01*
X165154761Y31753428D01*
X165202380Y31658190D01*
X163916666Y30848666D02*
X163964285Y30896285D01*
X164059523Y31039142D01*
X164107142Y31134380D01*
X164154761Y31277238D01*
X164202380Y31515333D01*
X164202380Y31705809D01*
X164154761Y31943904D01*
X164107142Y32086761D01*
X164059523Y32182000D01*
X163964285Y32324857D01*
X163916666Y32372476D01*
X163202380Y31753428D02*
X163059523Y31705809D01*
X163011904Y31658190D01*
X162964285Y31562952D01*
X162964285Y31420095D01*
X163011904Y31324857D01*
X163059523Y31277238D01*
X163154761Y31229619D01*
X163535714Y31229619D01*
X163535714Y32229619D01*
X163202380Y32229619D01*
X163107142Y32182000D01*
X163059523Y32134380D01*
X163011904Y32039142D01*
X163011904Y31943904D01*
X163059523Y31848666D01*
X163107142Y31801047D01*
X163202380Y31753428D01*
X163535714Y31753428D01*
X162630952Y30848666D02*
X162583333Y30896285D01*
X162488095Y31039142D01*
X162440476Y31134380D01*
X162392857Y31277238D01*
X162345238Y31515333D01*
X162345238Y31705809D01*
X162392857Y31943904D01*
X162440476Y32086761D01*
X162488095Y32182000D01*
X162583333Y32324857D01*
X162630952Y32372476D01*
X161345238Y31229619D02*
X161916666Y31229619D01*
X161630952Y31229619D02*
X161630952Y32229619D01*
X161726190Y32086761D01*
X161821428Y31991523D01*
X161916666Y31943904D01*
%TO.C,K48(IoT2)1*%
X206154761Y12229619D02*
X206154761Y13229619D01*
X205583333Y12229619D02*
X206011904Y12801047D01*
X205583333Y13229619D02*
X206154761Y12658190D01*
X204726190Y12896285D02*
X204726190Y12229619D01*
X204964285Y13277238D02*
X205202380Y12562952D01*
X204583333Y12562952D01*
X204059523Y12801047D02*
X204154761Y12848666D01*
X204202380Y12896285D01*
X204250000Y12991523D01*
X204250000Y13039142D01*
X204202380Y13134380D01*
X204154761Y13182000D01*
X204059523Y13229619D01*
X203869047Y13229619D01*
X203773809Y13182000D01*
X203726190Y13134380D01*
X203678571Y13039142D01*
X203678571Y12991523D01*
X203726190Y12896285D01*
X203773809Y12848666D01*
X203869047Y12801047D01*
X204059523Y12801047D01*
X204154761Y12753428D01*
X204202380Y12705809D01*
X204250000Y12610571D01*
X204250000Y12420095D01*
X204202380Y12324857D01*
X204154761Y12277238D01*
X204059523Y12229619D01*
X203869047Y12229619D01*
X203773809Y12277238D01*
X203726190Y12324857D01*
X203678571Y12420095D01*
X203678571Y12610571D01*
X203726190Y12705809D01*
X203773809Y12753428D01*
X203869047Y12801047D01*
X202964285Y11848666D02*
X203011904Y11896285D01*
X203107142Y12039142D01*
X203154761Y12134380D01*
X203202380Y12277238D01*
X203250000Y12515333D01*
X203250000Y12705809D01*
X203202380Y12943904D01*
X203154761Y13086761D01*
X203107142Y13182000D01*
X203011904Y13324857D01*
X202964285Y13372476D01*
X202583333Y12229619D02*
X202583333Y13229619D01*
X201964285Y12229619D02*
X202059523Y12277238D01*
X202107142Y12324857D01*
X202154761Y12420095D01*
X202154761Y12705809D01*
X202107142Y12801047D01*
X202059523Y12848666D01*
X201964285Y12896285D01*
X201821428Y12896285D01*
X201726190Y12848666D01*
X201678571Y12801047D01*
X201630952Y12705809D01*
X201630952Y12420095D01*
X201678571Y12324857D01*
X201726190Y12277238D01*
X201821428Y12229619D01*
X201964285Y12229619D01*
X201345238Y13229619D02*
X200773809Y13229619D01*
X201059523Y12229619D02*
X201059523Y13229619D01*
X200488095Y13134380D02*
X200440476Y13182000D01*
X200345238Y13229619D01*
X200107142Y13229619D01*
X200011904Y13182000D01*
X199964285Y13134380D01*
X199916666Y13039142D01*
X199916666Y12943904D01*
X199964285Y12801047D01*
X200535714Y12229619D01*
X199916666Y12229619D01*
X199583333Y11848666D02*
X199535714Y11896285D01*
X199440476Y12039142D01*
X199392857Y12134380D01*
X199345238Y12277238D01*
X199297619Y12515333D01*
X199297619Y12705809D01*
X199345238Y12943904D01*
X199392857Y13086761D01*
X199440476Y13182000D01*
X199535714Y13324857D01*
X199583333Y13372476D01*
X198297619Y12229619D02*
X198869047Y12229619D01*
X198583333Y12229619D02*
X198583333Y13229619D01*
X198678571Y13086761D01*
X198773809Y12991523D01*
X198869047Y12943904D01*
%TO.C,K50(M4)1*%
X20404761Y12229619D02*
X20404761Y13229619D01*
X19833333Y12229619D02*
X20261904Y12801047D01*
X19833333Y13229619D02*
X20404761Y12658190D01*
X18928571Y13229619D02*
X19404761Y13229619D01*
X19452380Y12753428D01*
X19404761Y12801047D01*
X19309523Y12848666D01*
X19071428Y12848666D01*
X18976190Y12801047D01*
X18928571Y12753428D01*
X18880952Y12658190D01*
X18880952Y12420095D01*
X18928571Y12324857D01*
X18976190Y12277238D01*
X19071428Y12229619D01*
X19309523Y12229619D01*
X19404761Y12277238D01*
X19452380Y12324857D01*
X18261904Y13229619D02*
X18166666Y13229619D01*
X18071428Y13182000D01*
X18023809Y13134380D01*
X17976190Y13039142D01*
X17928571Y12848666D01*
X17928571Y12610571D01*
X17976190Y12420095D01*
X18023809Y12324857D01*
X18071428Y12277238D01*
X18166666Y12229619D01*
X18261904Y12229619D01*
X18357142Y12277238D01*
X18404761Y12324857D01*
X18452380Y12420095D01*
X18500000Y12610571D01*
X18500000Y12848666D01*
X18452380Y13039142D01*
X18404761Y13134380D01*
X18357142Y13182000D01*
X18261904Y13229619D01*
X17214285Y11848666D02*
X17261904Y11896285D01*
X17357142Y12039142D01*
X17404761Y12134380D01*
X17452380Y12277238D01*
X17500000Y12515333D01*
X17500000Y12705809D01*
X17452380Y12943904D01*
X17404761Y13086761D01*
X17357142Y13182000D01*
X17261904Y13324857D01*
X17214285Y13372476D01*
X16833333Y12229619D02*
X16833333Y13229619D01*
X16500000Y12515333D01*
X16166666Y13229619D01*
X16166666Y12229619D01*
X15261904Y12896285D02*
X15261904Y12229619D01*
X15500000Y13277238D02*
X15738095Y12562952D01*
X15119047Y12562952D01*
X14833333Y11848666D02*
X14785714Y11896285D01*
X14690476Y12039142D01*
X14642857Y12134380D01*
X14595238Y12277238D01*
X14547619Y12515333D01*
X14547619Y12705809D01*
X14595238Y12943904D01*
X14642857Y13086761D01*
X14690476Y13182000D01*
X14785714Y13324857D01*
X14833333Y13372476D01*
X13547619Y12229619D02*
X14119047Y12229619D01*
X13833333Y12229619D02*
X13833333Y13229619D01*
X13928571Y13086761D01*
X14023809Y12991523D01*
X14119047Y12943904D01*
%TO.C,K51(L_CTRL)1*%
X52808571Y12229619D02*
X52808571Y13229619D01*
X52237142Y12229619D02*
X52665714Y12801047D01*
X52237142Y13229619D02*
X52808571Y12658190D01*
X51332380Y13229619D02*
X51808571Y13229619D01*
X51856190Y12753428D01*
X51808571Y12801047D01*
X51713333Y12848666D01*
X51475238Y12848666D01*
X51380000Y12801047D01*
X51332380Y12753428D01*
X51284761Y12658190D01*
X51284761Y12420095D01*
X51332380Y12324857D01*
X51380000Y12277238D01*
X51475238Y12229619D01*
X51713333Y12229619D01*
X51808571Y12277238D01*
X51856190Y12324857D01*
X50332380Y12229619D02*
X50903809Y12229619D01*
X50618095Y12229619D02*
X50618095Y13229619D01*
X50713333Y13086761D01*
X50808571Y12991523D01*
X50903809Y12943904D01*
X49618095Y11848666D02*
X49665714Y11896285D01*
X49760952Y12039142D01*
X49808571Y12134380D01*
X49856190Y12277238D01*
X49903809Y12515333D01*
X49903809Y12705809D01*
X49856190Y12943904D01*
X49808571Y13086761D01*
X49760952Y13182000D01*
X49665714Y13324857D01*
X49618095Y13372476D01*
X48760952Y12229619D02*
X49237142Y12229619D01*
X49237142Y13229619D01*
X48665714Y12134380D02*
X47903809Y12134380D01*
X47094285Y12324857D02*
X47141904Y12277238D01*
X47284761Y12229619D01*
X47380000Y12229619D01*
X47522857Y12277238D01*
X47618095Y12372476D01*
X47665714Y12467714D01*
X47713333Y12658190D01*
X47713333Y12801047D01*
X47665714Y12991523D01*
X47618095Y13086761D01*
X47522857Y13182000D01*
X47380000Y13229619D01*
X47284761Y13229619D01*
X47141904Y13182000D01*
X47094285Y13134380D01*
X46808571Y13229619D02*
X46237142Y13229619D01*
X46522857Y12229619D02*
X46522857Y13229619D01*
X45332380Y12229619D02*
X45665714Y12705809D01*
X45903809Y12229619D02*
X45903809Y13229619D01*
X45522857Y13229619D01*
X45427619Y13182000D01*
X45380000Y13134380D01*
X45332380Y13039142D01*
X45332380Y12896285D01*
X45380000Y12801047D01*
X45427619Y12753428D01*
X45522857Y12705809D01*
X45903809Y12705809D01*
X44427619Y12229619D02*
X44903809Y12229619D01*
X44903809Y13229619D01*
X44189523Y11848666D02*
X44141904Y11896285D01*
X44046666Y12039142D01*
X43999047Y12134380D01*
X43951428Y12277238D01*
X43903809Y12515333D01*
X43903809Y12705809D01*
X43951428Y12943904D01*
X43999047Y13086761D01*
X44046666Y13182000D01*
X44141904Y13324857D01*
X44189523Y13372476D01*
X42903809Y12229619D02*
X43475238Y12229619D01*
X43189523Y12229619D02*
X43189523Y13229619D01*
X43284761Y13086761D01*
X43380000Y12991523D01*
X43475238Y12943904D01*
%TO.C,K52(Win)1*%
X75249047Y12229619D02*
X75249047Y13229619D01*
X74677619Y12229619D02*
X75106190Y12801047D01*
X74677619Y13229619D02*
X75249047Y12658190D01*
X73772857Y13229619D02*
X74249047Y13229619D01*
X74296666Y12753428D01*
X74249047Y12801047D01*
X74153809Y12848666D01*
X73915714Y12848666D01*
X73820476Y12801047D01*
X73772857Y12753428D01*
X73725238Y12658190D01*
X73725238Y12420095D01*
X73772857Y12324857D01*
X73820476Y12277238D01*
X73915714Y12229619D01*
X74153809Y12229619D01*
X74249047Y12277238D01*
X74296666Y12324857D01*
X73344285Y13134380D02*
X73296666Y13182000D01*
X73201428Y13229619D01*
X72963333Y13229619D01*
X72868095Y13182000D01*
X72820476Y13134380D01*
X72772857Y13039142D01*
X72772857Y12943904D01*
X72820476Y12801047D01*
X73391904Y12229619D01*
X72772857Y12229619D01*
X72058571Y11848666D02*
X72106190Y11896285D01*
X72201428Y12039142D01*
X72249047Y12134380D01*
X72296666Y12277238D01*
X72344285Y12515333D01*
X72344285Y12705809D01*
X72296666Y12943904D01*
X72249047Y13086761D01*
X72201428Y13182000D01*
X72106190Y13324857D01*
X72058571Y13372476D01*
X71772857Y13229619D02*
X71534761Y12229619D01*
X71344285Y12943904D01*
X71153809Y12229619D01*
X70915714Y13229619D01*
X70534761Y12229619D02*
X70534761Y12896285D01*
X70534761Y13229619D02*
X70582380Y13182000D01*
X70534761Y13134380D01*
X70487142Y13182000D01*
X70534761Y13229619D01*
X70534761Y13134380D01*
X70058571Y12896285D02*
X70058571Y12229619D01*
X70058571Y12801047D02*
X70010952Y12848666D01*
X69915714Y12896285D01*
X69772857Y12896285D01*
X69677619Y12848666D01*
X69630000Y12753428D01*
X69630000Y12229619D01*
X69249047Y11848666D02*
X69201428Y11896285D01*
X69106190Y12039142D01*
X69058571Y12134380D01*
X69010952Y12277238D01*
X68963333Y12515333D01*
X68963333Y12705809D01*
X69010952Y12943904D01*
X69058571Y13086761D01*
X69106190Y13182000D01*
X69201428Y13324857D01*
X69249047Y13372476D01*
X67963333Y12229619D02*
X68534761Y12229619D01*
X68249047Y12229619D02*
X68249047Y13229619D01*
X68344285Y13086761D01*
X68439523Y12991523D01*
X68534761Y12943904D01*
%TO.C,K53(L_ALT)1*%
X99737142Y12229619D02*
X99737142Y13229619D01*
X99165714Y12229619D02*
X99594285Y12801047D01*
X99165714Y13229619D02*
X99737142Y12658190D01*
X98260952Y13229619D02*
X98737142Y13229619D01*
X98784761Y12753428D01*
X98737142Y12801047D01*
X98641904Y12848666D01*
X98403809Y12848666D01*
X98308571Y12801047D01*
X98260952Y12753428D01*
X98213333Y12658190D01*
X98213333Y12420095D01*
X98260952Y12324857D01*
X98308571Y12277238D01*
X98403809Y12229619D01*
X98641904Y12229619D01*
X98737142Y12277238D01*
X98784761Y12324857D01*
X97880000Y13229619D02*
X97260952Y13229619D01*
X97594285Y12848666D01*
X97451428Y12848666D01*
X97356190Y12801047D01*
X97308571Y12753428D01*
X97260952Y12658190D01*
X97260952Y12420095D01*
X97308571Y12324857D01*
X97356190Y12277238D01*
X97451428Y12229619D01*
X97737142Y12229619D01*
X97832380Y12277238D01*
X97880000Y12324857D01*
X96546666Y11848666D02*
X96594285Y11896285D01*
X96689523Y12039142D01*
X96737142Y12134380D01*
X96784761Y12277238D01*
X96832380Y12515333D01*
X96832380Y12705809D01*
X96784761Y12943904D01*
X96737142Y13086761D01*
X96689523Y13182000D01*
X96594285Y13324857D01*
X96546666Y13372476D01*
X95689523Y12229619D02*
X96165714Y12229619D01*
X96165714Y13229619D01*
X95594285Y12134380D02*
X94832380Y12134380D01*
X94641904Y12515333D02*
X94165714Y12515333D01*
X94737142Y12229619D02*
X94403809Y13229619D01*
X94070476Y12229619D01*
X93260952Y12229619D02*
X93737142Y12229619D01*
X93737142Y13229619D01*
X93070476Y13229619D02*
X92499047Y13229619D01*
X92784761Y12229619D02*
X92784761Y13229619D01*
X92260952Y11848666D02*
X92213333Y11896285D01*
X92118095Y12039142D01*
X92070476Y12134380D01*
X92022857Y12277238D01*
X91975238Y12515333D01*
X91975238Y12705809D01*
X92022857Y12943904D01*
X92070476Y13086761D01*
X92118095Y13182000D01*
X92213333Y13324857D01*
X92260952Y13372476D01*
X90975238Y12229619D02*
X91546666Y12229619D01*
X91260952Y12229619D02*
X91260952Y13229619D01*
X91356190Y13086761D01*
X91451428Y12991523D01*
X91546666Y12943904D01*
%TO.C,K54(Space)1*%
X137975238Y12229619D02*
X137975238Y13229619D01*
X137403809Y12229619D02*
X137832380Y12801047D01*
X137403809Y13229619D02*
X137975238Y12658190D01*
X136499047Y13229619D02*
X136975238Y13229619D01*
X137022857Y12753428D01*
X136975238Y12801047D01*
X136880000Y12848666D01*
X136641904Y12848666D01*
X136546666Y12801047D01*
X136499047Y12753428D01*
X136451428Y12658190D01*
X136451428Y12420095D01*
X136499047Y12324857D01*
X136546666Y12277238D01*
X136641904Y12229619D01*
X136880000Y12229619D01*
X136975238Y12277238D01*
X137022857Y12324857D01*
X135594285Y12896285D02*
X135594285Y12229619D01*
X135832380Y13277238D02*
X136070476Y12562952D01*
X135451428Y12562952D01*
X134784761Y11848666D02*
X134832380Y11896285D01*
X134927619Y12039142D01*
X134975238Y12134380D01*
X135022857Y12277238D01*
X135070476Y12515333D01*
X135070476Y12705809D01*
X135022857Y12943904D01*
X134975238Y13086761D01*
X134927619Y13182000D01*
X134832380Y13324857D01*
X134784761Y13372476D01*
X134451428Y12277238D02*
X134308571Y12229619D01*
X134070476Y12229619D01*
X133975238Y12277238D01*
X133927619Y12324857D01*
X133880000Y12420095D01*
X133880000Y12515333D01*
X133927619Y12610571D01*
X133975238Y12658190D01*
X134070476Y12705809D01*
X134260952Y12753428D01*
X134356190Y12801047D01*
X134403809Y12848666D01*
X134451428Y12943904D01*
X134451428Y13039142D01*
X134403809Y13134380D01*
X134356190Y13182000D01*
X134260952Y13229619D01*
X134022857Y13229619D01*
X133880000Y13182000D01*
X133451428Y12896285D02*
X133451428Y11896285D01*
X133451428Y12848666D02*
X133356190Y12896285D01*
X133165714Y12896285D01*
X133070476Y12848666D01*
X133022857Y12801047D01*
X132975238Y12705809D01*
X132975238Y12420095D01*
X133022857Y12324857D01*
X133070476Y12277238D01*
X133165714Y12229619D01*
X133356190Y12229619D01*
X133451428Y12277238D01*
X132118095Y12229619D02*
X132118095Y12753428D01*
X132165714Y12848666D01*
X132260952Y12896285D01*
X132451428Y12896285D01*
X132546666Y12848666D01*
X132118095Y12277238D02*
X132213333Y12229619D01*
X132451428Y12229619D01*
X132546666Y12277238D01*
X132594285Y12372476D01*
X132594285Y12467714D01*
X132546666Y12562952D01*
X132451428Y12610571D01*
X132213333Y12610571D01*
X132118095Y12658190D01*
X131213333Y12277238D02*
X131308571Y12229619D01*
X131499047Y12229619D01*
X131594285Y12277238D01*
X131641904Y12324857D01*
X131689523Y12420095D01*
X131689523Y12705809D01*
X131641904Y12801047D01*
X131594285Y12848666D01*
X131499047Y12896285D01*
X131308571Y12896285D01*
X131213333Y12848666D01*
X130403809Y12277238D02*
X130499047Y12229619D01*
X130689523Y12229619D01*
X130784761Y12277238D01*
X130832380Y12372476D01*
X130832380Y12753428D01*
X130784761Y12848666D01*
X130689523Y12896285D01*
X130499047Y12896285D01*
X130403809Y12848666D01*
X130356190Y12753428D01*
X130356190Y12658190D01*
X130832380Y12562952D01*
X130022857Y11848666D02*
X129975238Y11896285D01*
X129880000Y12039142D01*
X129832380Y12134380D01*
X129784761Y12277238D01*
X129737142Y12515333D01*
X129737142Y12705809D01*
X129784761Y12943904D01*
X129832380Y13086761D01*
X129880000Y13182000D01*
X129975238Y13324857D01*
X130022857Y13372476D01*
X128737142Y12229619D02*
X129308571Y12229619D01*
X129022857Y12229619D02*
X129022857Y13229619D01*
X129118095Y13086761D01*
X129213333Y12991523D01*
X129308571Y12943904D01*
%TD*%
M02*
