M48
; DRILL file {KiCad (5.1.10)-1} date 10/14/21 07:24:41
; FORMAT={-:-/ absolute / inch / decimal}
; #@! TF.CreationDate,2021-10-14T07:24:41+09:00
; #@! TF.GenerationSoftware,Kicad,Pcbnew,(5.1.10)-1
; #@! TF.FileFunction,Plated,1,2,PTH
FMAT,2
INCH
T1C0.0236
T2C0.0276
T3C0.0400
T4C0.0591
T5C0.1260
%
G90
G05
T1
X4.9055Y4.1752
X5.1555Y4.1752
X6.0236Y4.1673
X6.0236Y4.0925
X6.0236Y4.0276
X6.3012Y4.1693
X6.3012Y4.0945
X6.3012Y4.0295
X6.9783Y0.6594
X7.0866Y4.187
X7.0866Y3.7421
X7.126Y0.8071
X7.3819Y2.5295
X7.3819Y2.2539
X7.3819Y1.6732
X7.3819Y1.1811
X8.3563Y2.5197
X8.4055Y2.3819
X8.4055Y1.8701
X8.4646Y1.8701
T2
X1.0433Y3.815
X1.0433Y3.5079
X1.0433Y3.0669
X1.0433Y2.7598
X1.0433Y2.3189
X1.0433Y2.0118
X1.0433Y1.5709
X1.0433Y1.2638
X1.0433Y0.8228
X1.0433Y0.5157
X2.1654Y4.75
X2.1654Y4.4429
X2.1654Y3.815
X2.1654Y3.5079
X2.2638Y0.8228
X2.2638Y0.5157
X2.3524Y3.0669
X2.3524Y2.7598
X2.4508Y2.3189
X2.4508Y2.0118
X2.6378Y1.5709
X2.6378Y1.2638
X2.9134Y3.815
X2.9134Y3.5079
X3.1988Y0.8228
X3.1988Y0.5157
X3.2874Y4.75
X3.2874Y4.4429
X3.2874Y3.0669
X3.2874Y2.7598
X3.4744Y2.3189
X3.4744Y2.0118
X3.6614Y3.815
X3.6614Y3.5079
X3.8484Y1.5709
X3.8484Y1.2638
X4.0354Y4.75
X4.0354Y4.4429
X4.0354Y3.0669
X4.0354Y2.7598
X4.1339Y0.8228
X4.1339Y0.5157
X4.2224Y2.3189
X4.2224Y2.0118
X4.4094Y3.815
X4.4094Y3.5079
X4.5965Y1.5709
X4.5965Y1.2638
X4.7835Y4.75
X4.7835Y4.4429
X4.7835Y3.0669
X4.7835Y2.7598
X4.9705Y2.3189
X4.9705Y2.0118
X5.1575Y3.815
X5.1575Y3.5079
X5.3445Y1.5709
X5.3445Y1.2638
X5.5315Y4.75
X5.5315Y4.4429
X5.5315Y3.0669
X5.5315Y2.7598
X5.6299Y0.8228
X5.6299Y0.5157
X5.7185Y2.3189
X5.7185Y2.0118
X5.9055Y3.815
X5.9055Y3.5079
X6.0925Y1.5709
X6.0925Y1.2638
X6.2795Y3.0669
X6.2795Y2.7598
X6.4665Y2.3189
X6.4665Y2.0118
X6.6535Y4.75
X6.6535Y4.4429
X6.6535Y3.815
X6.6535Y3.5079
X6.8406Y1.5709
X6.8406Y1.2638
X7.0276Y3.0669
X7.0276Y2.7598
X7.2146Y2.3189
X7.2146Y2.0118
X8.3366Y2.3189
X8.3366Y2.0118
X8.3366Y1.5709
X8.3366Y1.2638
X8.3366Y0.8228
X8.3366Y0.5157
T3
X7.574Y3.8465
X7.574Y3.7465
X7.574Y3.6465
X7.574Y3.5465
X7.574Y3.4465
X7.574Y3.3465
X7.574Y3.2465
X7.574Y3.1465
X7.574Y3.0465
X7.574Y2.9465
X7.574Y2.8465
X7.574Y2.7465
X8.174Y3.8465
X8.174Y3.7465
X8.174Y3.6465
X8.174Y3.5465
X8.174Y3.4465
X8.174Y3.3465
X8.174Y3.2465
X8.174Y3.1465
X8.174Y3.0465
X8.174Y2.9465
X8.174Y2.8465
X8.174Y2.7465
T5
X0.1622Y5.1035
X0.1622Y0.1622
X8.4697Y5.1035
X8.4697Y0.1622
T4
G00X0.5649Y3.8374
M15
G01X0.5173Y3.7626
M16
G05
G00X0.5649Y3.0893
M15
G01X0.5173Y3.0146
M16
G05
G00X0.5649Y2.3413
M15
G01X0.5173Y2.2666
M16
G05
G00X0.5649Y1.5933
M15
G01X0.5173Y1.5186
M16
G05
G00X0.5649Y0.8452
M15
G01X0.5173Y0.7705
M16
G05
G00X0.7693Y3.8614
M15
G01X0.7677Y3.8386
M16
G05
G00X0.7693Y3.1134
M15
G01X0.7677Y3.0906
M16
G05
G00X0.7693Y2.3653
M15
G01X0.7677Y2.3425
M16
G05
G00X0.7693Y1.6173
M15
G01X0.7677Y1.5945
M16
G05
G00X0.7693Y0.8693
M15
G01X0.7677Y0.8465
M16
G05
G00X1.687Y4.7724
M15
G01X1.6394Y4.6977
M16
G05
G00X1.687Y3.8374
M15
G01X1.6394Y3.7626
M16
G05
G00X1.7807Y0.8452
M15
G01X1.7331Y0.7705
M16
G05
G00X1.874Y3.0893
M15
G01X1.8264Y3.0146
M16
G05
G00X1.8913Y4.7964
M15
G01X1.8898Y4.7736
M16
G05
G00X1.8913Y3.8614
M15
G01X1.8898Y3.8386
M16
G05
G00X1.9677Y2.3413
M15
G01X1.9201Y2.2666
M16
G05
G00X1.985Y0.8693
M15
G01X1.9835Y0.8465
M16
G05
G00X2.0783Y3.1134
M15
G01X2.0768Y3.0906
M16
G05
G00X2.1547Y1.5933
M15
G01X2.1071Y1.5186
M16
G05
G00X2.172Y2.3653
M15
G01X2.1705Y2.3425
M16
G05
G00X2.359Y1.6173
M15
G01X2.3575Y1.5945
M16
G05
G00X2.435Y3.8374
M15
G01X2.3874Y3.7626
M16
G05
G00X2.6394Y3.8614
M15
G01X2.6378Y3.8386
M16
G05
G00X2.7157Y0.8452
M15
G01X2.6681Y0.7705
M16
G05
G00X2.809Y4.7724
M15
G01X2.7614Y4.6977
M16
G05
G00X2.809Y3.0893
M15
G01X2.7614Y3.0146
M16
G05
G00X2.9201Y0.8693
M15
G01X2.9185Y0.8465
M16
G05
G00X2.996Y2.3413
M15
G01X2.9484Y2.2666
M16
G05
G00X3.0134Y4.7964
M15
G01X3.0118Y4.7736
M16
G05
G00X3.0134Y3.1134
M15
G01X3.0118Y3.0906
M16
G05
G00X3.183Y3.8374
M15
G01X3.1355Y3.7626
M16
G05
G00X3.2004Y2.3653
M15
G01X3.1988Y2.3425
M16
G05
G00X3.3701Y1.5933
M15
G01X3.3225Y1.5186
M16
G05
G00X3.3874Y3.8614
M15
G01X3.3858Y3.8386
M16
G05
G00X3.5571Y4.7724
M15
G01X3.5095Y4.6977
M16
G05
G00X3.5571Y3.0893
M15
G01X3.5095Y3.0146
M16
G05
G00X3.5744Y1.6173
M15
G01X3.5728Y1.5945
M16
G05
G00X3.6508Y0.8452
M15
G01X3.6032Y0.7705
M16
G05
G00X3.7441Y2.3413
M15
G01X3.6965Y2.2666
M16
G05
G00X3.7614Y4.7964
M15
G01X3.7599Y4.7736
M16
G05
G00X3.7614Y3.1134
M15
G01X3.7599Y3.0906
M16
G05
G00X3.8551Y0.8693
M15
G01X3.8536Y0.8465
M16
G05
G00X3.9311Y3.8374
M15
G01X3.8835Y3.7626
M16
G05
G00X3.9484Y2.3653
M15
G01X3.9469Y2.3425
M16
G05
G00X4.1181Y1.5933
M15
G01X4.0705Y1.5186
M16
G05
G00X4.1354Y3.8614
M15
G01X4.1339Y3.8386
M16
G05
G00X4.3051Y4.7724
M15
G01X4.2575Y4.6977
M16
G05
G00X4.3051Y3.0893
M15
G01X4.2575Y3.0146
M16
G05
G00X4.3224Y1.6173
M15
G01X4.3209Y1.5945
M16
G05
G00X4.4921Y2.3413
M15
G01X4.4445Y2.2666
M16
G05
G00X4.5094Y4.7964
M15
G01X4.5079Y4.7736
M16
G05
G00X4.5094Y3.1134
M15
G01X4.5079Y3.0906
M16
G05
G00X4.6791Y3.8374
M15
G01X4.6315Y3.7626
M16
G05
G00X4.6964Y2.3653
M15
G01X4.6949Y2.3425
M16
G05
G00X4.8661Y1.5933
M15
G01X4.8185Y1.5186
M16
G05
G00X4.8835Y3.8614
M15
G01X4.8819Y3.8386
M16
G05
G00X5.0531Y4.7724
M15
G01X5.0055Y4.6977
M16
G05
G00X5.0531Y3.0893
M15
G01X5.0055Y3.0146
M16
G05
G00X5.0705Y1.6173
M15
G01X5.0689Y1.5945
M16
G05
G00X5.1468Y0.8452
M15
G01X5.0992Y0.7705
M16
G05
G00X5.2401Y2.3413
M15
G01X5.1925Y2.2666
M16
G05
G00X5.2575Y4.7964
M15
G01X5.2559Y4.7736
M16
G05
G00X5.2575Y3.1134
M15
G01X5.2559Y3.0906
M16
G05
G00X5.3512Y0.8693
M15
G01X5.3496Y0.8465
M16
G05
G00X5.4271Y3.8374
M15
G01X5.3795Y3.7626
M16
G05
G00X5.4445Y2.3653
M15
G01X5.4429Y2.3425
M16
G05
G00X5.6142Y1.5933
M15
G01X5.5666Y1.5186
M16
G05
G00X5.6315Y3.8614
M15
G01X5.6299Y3.8386
M16
G05
G00X5.8012Y3.0893
M15
G01X5.7536Y3.0146
M16
G05
G00X5.8185Y1.6173
M15
G01X5.8169Y1.5945
M16
G05
G00X5.9882Y2.3413
M15
G01X5.9406Y2.2666
M16
G05
G00X6.0055Y3.1134
M15
G01X6.0039Y3.0906
M16
G05
G00X6.1752Y4.7724
M15
G01X6.1276Y4.6977
M16
G05
G00X6.1752Y3.8374
M15
G01X6.1276Y3.7626
M16
G05
G00X6.1925Y2.3653
M15
G01X6.191Y2.3425
M16
G05
G00X6.3622Y1.5933
M15
G01X6.3146Y1.5186
M16
G05
G00X6.3795Y4.7964
M15
G01X6.378Y4.7736
M16
G05
G00X6.3795Y3.8614
M15
G01X6.378Y3.8386
M16
G05
G00X6.5492Y3.0893
M15
G01X6.5016Y3.0146
M16
G05
G00X6.5665Y1.6173
M15
G01X6.565Y1.5945
M16
G05
G00X6.7362Y2.3413
M15
G01X6.6886Y2.2666
M16
G05
G00X6.7535Y3.1134
M15
G01X6.752Y3.0906
M16
G05
G00X6.9405Y2.3653
M15
G01X6.939Y2.3425
M16
G05
G00X7.8582Y2.3413
M15
G01X7.8107Y2.2666
M16
G05
G00X7.8582Y1.5933
M15
G01X7.8107Y1.5186
M16
G05
G00X7.8582Y0.8452
M15
G01X7.8107Y0.7705
M16
G05
G00X8.0626Y2.3653
M15
G01X8.061Y2.3425
M16
G05
G00X8.0626Y1.6173
M15
G01X8.061Y1.5945
M16
G05
G00X8.0626Y0.8693
M15
G01X8.061Y0.8465
M16
G05
T0
M30
