%TF.GenerationSoftware,KiCad,Pcbnew,(5.1.10)-1*%
%TF.CreationDate,2021-10-11T09:25:22+09:00*%
%TF.ProjectId,G_One_PCB,475f4f6e-655f-4504-9342-2e6b69636164,rev?*%
%TF.SameCoordinates,Original*%
%TF.FileFunction,Legend,Top*%
%TF.FilePolarity,Positive*%
%FSLAX46Y46*%
G04 Gerber Fmt 4.6, Leading zero omitted, Abs format (unit mm)*
G04 Created by KiCad (PCBNEW (5.1.10)-1) date 2021-10-11 09:25:22*
%MOMM*%
%LPD*%
G01*
G04 APERTURE LIST*
%ADD10C,0.381000*%
%ADD11C,0.200000*%
%ADD12C,0.127000*%
%ADD13C,0.150000*%
G04 APERTURE END LIST*
D10*
%TO.C,K28(IoT0)1*%
X195900000Y59572000D02*
X195900000Y61350000D01*
X195900000Y48650000D02*
X195900000Y50428000D01*
X197678000Y48650000D02*
X195900000Y48650000D01*
X208600000Y48650000D02*
X206822000Y48650000D01*
X208600000Y50428000D02*
X208600000Y48650000D01*
X208600000Y61350000D02*
X208600000Y59572000D01*
X206822000Y61350000D02*
X208600000Y61350000D01*
X195900000Y61350000D02*
X197678000Y61350000D01*
D11*
%TO.C,D1*%
X56200000Y119550000D02*
X56200000Y113750000D01*
X53800000Y119550000D02*
X56200000Y119550000D01*
X53800000Y113750000D02*
X53800000Y119550000D01*
X53800000Y113825000D02*
X56200000Y113825000D01*
X53800000Y113950000D02*
X56200000Y113950000D01*
X56200000Y113725000D02*
X53800000Y113725000D01*
X53800000Y114125000D02*
X56200000Y114125000D01*
X53800000Y114300000D02*
X56200000Y114300000D01*
X53800000Y114475000D02*
X56200000Y114475000D01*
%TO.C,D2*%
X82300000Y114475000D02*
X84700000Y114475000D01*
X82300000Y114300000D02*
X84700000Y114300000D01*
X82300000Y114125000D02*
X84700000Y114125000D01*
X84700000Y113725000D02*
X82300000Y113725000D01*
X82300000Y113950000D02*
X84700000Y113950000D01*
X82300000Y113825000D02*
X84700000Y113825000D01*
X82300000Y113750000D02*
X82300000Y119550000D01*
X82300000Y119550000D02*
X84700000Y119550000D01*
X84700000Y119550000D02*
X84700000Y113750000D01*
%TO.C,D3*%
X103700000Y119550000D02*
X103700000Y113750000D01*
X101300000Y119550000D02*
X103700000Y119550000D01*
X101300000Y113750000D02*
X101300000Y119550000D01*
X101300000Y113825000D02*
X103700000Y113825000D01*
X101300000Y113950000D02*
X103700000Y113950000D01*
X103700000Y113725000D02*
X101300000Y113725000D01*
X101300000Y114125000D02*
X103700000Y114125000D01*
X101300000Y114300000D02*
X103700000Y114300000D01*
X101300000Y114475000D02*
X103700000Y114475000D01*
%TO.C,D4*%
X120300000Y114475000D02*
X122700000Y114475000D01*
X120300000Y114300000D02*
X122700000Y114300000D01*
X120300000Y114125000D02*
X122700000Y114125000D01*
X122700000Y113725000D02*
X120300000Y113725000D01*
X120300000Y113950000D02*
X122700000Y113950000D01*
X120300000Y113825000D02*
X122700000Y113825000D01*
X120300000Y113750000D02*
X120300000Y119550000D01*
X120300000Y119550000D02*
X122700000Y119550000D01*
X122700000Y119550000D02*
X122700000Y113750000D01*
%TO.C,D5*%
X141700000Y119550000D02*
X141700000Y113750000D01*
X139300000Y119550000D02*
X141700000Y119550000D01*
X139300000Y113750000D02*
X139300000Y119550000D01*
X139300000Y113825000D02*
X141700000Y113825000D01*
X139300000Y113950000D02*
X141700000Y113950000D01*
X141700000Y113725000D02*
X139300000Y113725000D01*
X139300000Y114125000D02*
X141700000Y114125000D01*
X139300000Y114300000D02*
X141700000Y114300000D01*
X139300000Y114475000D02*
X141700000Y114475000D01*
%TO.C,D7*%
X170200000Y119550000D02*
X170200000Y113750000D01*
X167800000Y119550000D02*
X170200000Y119550000D01*
X167800000Y113750000D02*
X167800000Y119550000D01*
X167800000Y113825000D02*
X170200000Y113825000D01*
X167800000Y113950000D02*
X170200000Y113950000D01*
X170200000Y113725000D02*
X167800000Y113725000D01*
X167800000Y114125000D02*
X170200000Y114125000D01*
X167800000Y114300000D02*
X170200000Y114300000D01*
X167800000Y114475000D02*
X170200000Y114475000D01*
%TO.C,D10*%
X25300000Y90725000D02*
X27700000Y90725000D01*
X25300000Y90550000D02*
X27700000Y90550000D01*
X25300000Y90375000D02*
X27700000Y90375000D01*
X27700000Y89975000D02*
X25300000Y89975000D01*
X25300000Y90200000D02*
X27700000Y90200000D01*
X25300000Y90075000D02*
X27700000Y90075000D01*
X25300000Y90000000D02*
X25300000Y95800000D01*
X25300000Y95800000D02*
X27700000Y95800000D01*
X27700000Y95800000D02*
X27700000Y90000000D01*
%TO.C,D11*%
X56200000Y95800000D02*
X56200000Y90000000D01*
X53800000Y95800000D02*
X56200000Y95800000D01*
X53800000Y90000000D02*
X53800000Y95800000D01*
X53800000Y90075000D02*
X56200000Y90075000D01*
X53800000Y90200000D02*
X56200000Y90200000D01*
X56200000Y89975000D02*
X53800000Y89975000D01*
X53800000Y90375000D02*
X56200000Y90375000D01*
X53800000Y90550000D02*
X56200000Y90550000D01*
X53800000Y90725000D02*
X56200000Y90725000D01*
%TO.C,D12*%
X72800000Y90725000D02*
X75200000Y90725000D01*
X72800000Y90550000D02*
X75200000Y90550000D01*
X72800000Y90375000D02*
X75200000Y90375000D01*
X75200000Y89975000D02*
X72800000Y89975000D01*
X72800000Y90200000D02*
X75200000Y90200000D01*
X72800000Y90075000D02*
X75200000Y90075000D01*
X72800000Y90000000D02*
X72800000Y95800000D01*
X72800000Y95800000D02*
X75200000Y95800000D01*
X75200000Y95800000D02*
X75200000Y90000000D01*
%TO.C,D13*%
X91800000Y90725000D02*
X94200000Y90725000D01*
X91800000Y90550000D02*
X94200000Y90550000D01*
X91800000Y90375000D02*
X94200000Y90375000D01*
X94200000Y89975000D02*
X91800000Y89975000D01*
X91800000Y90200000D02*
X94200000Y90200000D01*
X91800000Y90075000D02*
X94200000Y90075000D01*
X91800000Y90000000D02*
X91800000Y95800000D01*
X91800000Y95800000D02*
X94200000Y95800000D01*
X94200000Y95800000D02*
X94200000Y90000000D01*
%TO.C,D14*%
X113200000Y95800000D02*
X113200000Y90000000D01*
X110800000Y95800000D02*
X113200000Y95800000D01*
X110800000Y90000000D02*
X110800000Y95800000D01*
X110800000Y90075000D02*
X113200000Y90075000D01*
X110800000Y90200000D02*
X113200000Y90200000D01*
X113200000Y89975000D02*
X110800000Y89975000D01*
X110800000Y90375000D02*
X113200000Y90375000D01*
X110800000Y90550000D02*
X113200000Y90550000D01*
X110800000Y90725000D02*
X113200000Y90725000D01*
%TO.C,D15*%
X129800000Y90725000D02*
X132200000Y90725000D01*
X129800000Y90550000D02*
X132200000Y90550000D01*
X129800000Y90375000D02*
X132200000Y90375000D01*
X132200000Y89975000D02*
X129800000Y89975000D01*
X129800000Y90200000D02*
X132200000Y90200000D01*
X129800000Y90075000D02*
X132200000Y90075000D01*
X129800000Y90000000D02*
X129800000Y95800000D01*
X129800000Y95800000D02*
X132200000Y95800000D01*
X132200000Y95800000D02*
X132200000Y90000000D01*
%TO.C,D16*%
X151200000Y95800000D02*
X151200000Y90000000D01*
X148800000Y95800000D02*
X151200000Y95800000D01*
X148800000Y90000000D02*
X148800000Y95800000D01*
X148800000Y90075000D02*
X151200000Y90075000D01*
X148800000Y90200000D02*
X151200000Y90200000D01*
X151200000Y89975000D02*
X148800000Y89975000D01*
X148800000Y90375000D02*
X151200000Y90375000D01*
X148800000Y90550000D02*
X151200000Y90550000D01*
X148800000Y90725000D02*
X151200000Y90725000D01*
%TO.C,D17*%
X167800000Y90725000D02*
X170200000Y90725000D01*
X167800000Y90550000D02*
X170200000Y90550000D01*
X167800000Y90375000D02*
X170200000Y90375000D01*
X170200000Y89975000D02*
X167800000Y89975000D01*
X167800000Y90200000D02*
X170200000Y90200000D01*
X167800000Y90075000D02*
X170200000Y90075000D01*
X167800000Y90000000D02*
X167800000Y95800000D01*
X167800000Y95800000D02*
X170200000Y95800000D01*
X170200000Y95800000D02*
X170200000Y90000000D01*
%TO.C,D20*%
X27700000Y76800000D02*
X27700000Y71000000D01*
X25300000Y76800000D02*
X27700000Y76800000D01*
X25300000Y71000000D02*
X25300000Y76800000D01*
X25300000Y71075000D02*
X27700000Y71075000D01*
X25300000Y71200000D02*
X27700000Y71200000D01*
X27700000Y70975000D02*
X25300000Y70975000D01*
X25300000Y71375000D02*
X27700000Y71375000D01*
X25300000Y71550000D02*
X27700000Y71550000D01*
X25300000Y71725000D02*
X27700000Y71725000D01*
%TO.C,D21*%
X58550000Y71725000D02*
X60950000Y71725000D01*
X58550000Y71550000D02*
X60950000Y71550000D01*
X58550000Y71375000D02*
X60950000Y71375000D01*
X60950000Y70975000D02*
X58550000Y70975000D01*
X58550000Y71200000D02*
X60950000Y71200000D01*
X58550000Y71075000D02*
X60950000Y71075000D01*
X58550000Y71000000D02*
X58550000Y76800000D01*
X58550000Y76800000D02*
X60950000Y76800000D01*
X60950000Y76800000D02*
X60950000Y71000000D01*
%TO.C,D22*%
X84700000Y76800000D02*
X84700000Y71000000D01*
X82300000Y76800000D02*
X84700000Y76800000D01*
X82300000Y71000000D02*
X82300000Y76800000D01*
X82300000Y71075000D02*
X84700000Y71075000D01*
X82300000Y71200000D02*
X84700000Y71200000D01*
X84700000Y70975000D02*
X82300000Y70975000D01*
X82300000Y71375000D02*
X84700000Y71375000D01*
X82300000Y71550000D02*
X84700000Y71550000D01*
X82300000Y71725000D02*
X84700000Y71725000D01*
%TO.C,D23*%
X101300000Y71725000D02*
X103700000Y71725000D01*
X101300000Y71550000D02*
X103700000Y71550000D01*
X101300000Y71375000D02*
X103700000Y71375000D01*
X103700000Y70975000D02*
X101300000Y70975000D01*
X101300000Y71200000D02*
X103700000Y71200000D01*
X101300000Y71075000D02*
X103700000Y71075000D01*
X101300000Y71000000D02*
X101300000Y76800000D01*
X101300000Y76800000D02*
X103700000Y76800000D01*
X103700000Y76800000D02*
X103700000Y71000000D01*
%TO.C,D24*%
X122700000Y76800000D02*
X122700000Y71000000D01*
X120300000Y76800000D02*
X122700000Y76800000D01*
X120300000Y71000000D02*
X120300000Y76800000D01*
X120300000Y71075000D02*
X122700000Y71075000D01*
X120300000Y71200000D02*
X122700000Y71200000D01*
X122700000Y70975000D02*
X120300000Y70975000D01*
X120300000Y71375000D02*
X122700000Y71375000D01*
X120300000Y71550000D02*
X122700000Y71550000D01*
X120300000Y71725000D02*
X122700000Y71725000D01*
%TO.C,D25*%
X139300000Y71725000D02*
X141700000Y71725000D01*
X139300000Y71550000D02*
X141700000Y71550000D01*
X139300000Y71375000D02*
X141700000Y71375000D01*
X141700000Y70975000D02*
X139300000Y70975000D01*
X139300000Y71200000D02*
X141700000Y71200000D01*
X139300000Y71075000D02*
X141700000Y71075000D01*
X139300000Y71000000D02*
X139300000Y76800000D01*
X139300000Y76800000D02*
X141700000Y76800000D01*
X141700000Y76800000D02*
X141700000Y71000000D01*
%TO.C,D26*%
X160700000Y76800000D02*
X160700000Y71000000D01*
X158300000Y76800000D02*
X160700000Y76800000D01*
X158300000Y71000000D02*
X158300000Y76800000D01*
X158300000Y71075000D02*
X160700000Y71075000D01*
X158300000Y71200000D02*
X160700000Y71200000D01*
X160700000Y70975000D02*
X158300000Y70975000D01*
X158300000Y71375000D02*
X160700000Y71375000D01*
X158300000Y71550000D02*
X160700000Y71550000D01*
X158300000Y71725000D02*
X160700000Y71725000D01*
%TO.C,D27*%
X177300000Y71725000D02*
X179700000Y71725000D01*
X177300000Y71550000D02*
X179700000Y71550000D01*
X177300000Y71375000D02*
X179700000Y71375000D01*
X179700000Y70975000D02*
X177300000Y70975000D01*
X177300000Y71200000D02*
X179700000Y71200000D01*
X177300000Y71075000D02*
X179700000Y71075000D01*
X177300000Y71000000D02*
X177300000Y76800000D01*
X177300000Y76800000D02*
X179700000Y76800000D01*
X179700000Y76800000D02*
X179700000Y71000000D01*
%TO.C,D28*%
X212950000Y57800000D02*
X212950000Y52000000D01*
X210550000Y57800000D02*
X212950000Y57800000D01*
X210550000Y52000000D02*
X210550000Y57800000D01*
X210550000Y52075000D02*
X212950000Y52075000D01*
X210550000Y52200000D02*
X212950000Y52200000D01*
X212950000Y51975000D02*
X210550000Y51975000D01*
X210550000Y52375000D02*
X212950000Y52375000D01*
X210550000Y52550000D02*
X212950000Y52550000D01*
X210550000Y52725000D02*
X212950000Y52725000D01*
%TO.C,D30*%
X27700000Y57800000D02*
X27700000Y52000000D01*
X25300000Y57800000D02*
X27700000Y57800000D01*
X25300000Y52000000D02*
X25300000Y57800000D01*
X25300000Y52075000D02*
X27700000Y52075000D01*
X25300000Y52200000D02*
X27700000Y52200000D01*
X27700000Y51975000D02*
X25300000Y51975000D01*
X25300000Y52375000D02*
X27700000Y52375000D01*
X25300000Y52550000D02*
X27700000Y52550000D01*
X25300000Y52725000D02*
X27700000Y52725000D01*
%TO.C,D31*%
X63450000Y57800000D02*
X63450000Y52000000D01*
X61050000Y57800000D02*
X63450000Y57800000D01*
X61050000Y52000000D02*
X61050000Y57800000D01*
X61050000Y52075000D02*
X63450000Y52075000D01*
X61050000Y52200000D02*
X63450000Y52200000D01*
X63450000Y51975000D02*
X61050000Y51975000D01*
X61050000Y52375000D02*
X63450000Y52375000D01*
X61050000Y52550000D02*
X63450000Y52550000D01*
X61050000Y52725000D02*
X63450000Y52725000D01*
%TO.C,D32*%
X87050000Y52725000D02*
X89450000Y52725000D01*
X87050000Y52550000D02*
X89450000Y52550000D01*
X87050000Y52375000D02*
X89450000Y52375000D01*
X89450000Y51975000D02*
X87050000Y51975000D01*
X87050000Y52200000D02*
X89450000Y52200000D01*
X87050000Y52075000D02*
X89450000Y52075000D01*
X87050000Y52000000D02*
X87050000Y57800000D01*
X87050000Y57800000D02*
X89450000Y57800000D01*
X89450000Y57800000D02*
X89450000Y52000000D01*
%TO.C,D33*%
X108450000Y57800000D02*
X108450000Y52000000D01*
X106050000Y57800000D02*
X108450000Y57800000D01*
X106050000Y52000000D02*
X106050000Y57800000D01*
X106050000Y52075000D02*
X108450000Y52075000D01*
X106050000Y52200000D02*
X108450000Y52200000D01*
X108450000Y51975000D02*
X106050000Y51975000D01*
X106050000Y52375000D02*
X108450000Y52375000D01*
X106050000Y52550000D02*
X108450000Y52550000D01*
X106050000Y52725000D02*
X108450000Y52725000D01*
%TO.C,D34*%
X125050000Y52725000D02*
X127450000Y52725000D01*
X125050000Y52550000D02*
X127450000Y52550000D01*
X125050000Y52375000D02*
X127450000Y52375000D01*
X127450000Y51975000D02*
X125050000Y51975000D01*
X125050000Y52200000D02*
X127450000Y52200000D01*
X125050000Y52075000D02*
X127450000Y52075000D01*
X125050000Y52000000D02*
X125050000Y57800000D01*
X125050000Y57800000D02*
X127450000Y57800000D01*
X127450000Y57800000D02*
X127450000Y52000000D01*
%TO.C,D35*%
X146450000Y57800000D02*
X146450000Y52000000D01*
X144050000Y57800000D02*
X146450000Y57800000D01*
X144050000Y52000000D02*
X144050000Y57800000D01*
X144050000Y52075000D02*
X146450000Y52075000D01*
X144050000Y52200000D02*
X146450000Y52200000D01*
X146450000Y51975000D02*
X144050000Y51975000D01*
X144050000Y52375000D02*
X146450000Y52375000D01*
X144050000Y52550000D02*
X146450000Y52550000D01*
X144050000Y52725000D02*
X146450000Y52725000D01*
%TO.C,D36*%
X165450000Y57800000D02*
X165450000Y52000000D01*
X163050000Y57800000D02*
X165450000Y57800000D01*
X163050000Y52000000D02*
X163050000Y57800000D01*
X163050000Y52075000D02*
X165450000Y52075000D01*
X163050000Y52200000D02*
X165450000Y52200000D01*
X165450000Y51975000D02*
X163050000Y51975000D01*
X163050000Y52375000D02*
X165450000Y52375000D01*
X163050000Y52550000D02*
X165450000Y52550000D01*
X163050000Y52725000D02*
X165450000Y52725000D01*
%TO.C,D37*%
X182050000Y52725000D02*
X184450000Y52725000D01*
X182050000Y52550000D02*
X184450000Y52550000D01*
X182050000Y52375000D02*
X184450000Y52375000D01*
X184450000Y51975000D02*
X182050000Y51975000D01*
X182050000Y52200000D02*
X184450000Y52200000D01*
X182050000Y52075000D02*
X184450000Y52075000D01*
X182050000Y52000000D02*
X182050000Y57800000D01*
X182050000Y57800000D02*
X184450000Y57800000D01*
X184450000Y57800000D02*
X184450000Y52000000D01*
%TO.C,D38*%
X212950000Y38800000D02*
X212950000Y33000000D01*
X210550000Y38800000D02*
X212950000Y38800000D01*
X210550000Y33000000D02*
X210550000Y38800000D01*
X210550000Y33075000D02*
X212950000Y33075000D01*
X210550000Y33200000D02*
X212950000Y33200000D01*
X212950000Y32975000D02*
X210550000Y32975000D01*
X210550000Y33375000D02*
X212950000Y33375000D01*
X210550000Y33550000D02*
X212950000Y33550000D01*
X210550000Y33725000D02*
X212950000Y33725000D01*
%TO.C,D40*%
X25300000Y33725000D02*
X27700000Y33725000D01*
X25300000Y33550000D02*
X27700000Y33550000D01*
X25300000Y33375000D02*
X27700000Y33375000D01*
X27700000Y32975000D02*
X25300000Y32975000D01*
X25300000Y33200000D02*
X27700000Y33200000D01*
X25300000Y33075000D02*
X27700000Y33075000D01*
X25300000Y33000000D02*
X25300000Y38800000D01*
X25300000Y38800000D02*
X27700000Y38800000D01*
X27700000Y38800000D02*
X27700000Y33000000D01*
%TO.C,D41*%
X65800000Y33725000D02*
X68200000Y33725000D01*
X65800000Y33550000D02*
X68200000Y33550000D01*
X65800000Y33375000D02*
X68200000Y33375000D01*
X68200000Y32975000D02*
X65800000Y32975000D01*
X65800000Y33200000D02*
X68200000Y33200000D01*
X65800000Y33075000D02*
X68200000Y33075000D01*
X65800000Y33000000D02*
X65800000Y38800000D01*
X65800000Y38800000D02*
X68200000Y38800000D01*
X68200000Y38800000D02*
X68200000Y33000000D01*
%TO.C,D42*%
X98950000Y38800000D02*
X98950000Y33000000D01*
X96550000Y38800000D02*
X98950000Y38800000D01*
X96550000Y33000000D02*
X96550000Y38800000D01*
X96550000Y33075000D02*
X98950000Y33075000D01*
X96550000Y33200000D02*
X98950000Y33200000D01*
X98950000Y32975000D02*
X96550000Y32975000D01*
X96550000Y33375000D02*
X98950000Y33375000D01*
X96550000Y33550000D02*
X98950000Y33550000D01*
X96550000Y33725000D02*
X98950000Y33725000D01*
%TO.C,D43*%
X115550000Y33725000D02*
X117950000Y33725000D01*
X115550000Y33550000D02*
X117950000Y33550000D01*
X115550000Y33375000D02*
X117950000Y33375000D01*
X117950000Y32975000D02*
X115550000Y32975000D01*
X115550000Y33200000D02*
X117950000Y33200000D01*
X115550000Y33075000D02*
X117950000Y33075000D01*
X115550000Y33000000D02*
X115550000Y38800000D01*
X115550000Y38800000D02*
X117950000Y38800000D01*
X117950000Y38800000D02*
X117950000Y33000000D01*
%TO.C,D44*%
X136950000Y38800000D02*
X136950000Y33000000D01*
X134550000Y38800000D02*
X136950000Y38800000D01*
X134550000Y33000000D02*
X134550000Y38800000D01*
X134550000Y33075000D02*
X136950000Y33075000D01*
X134550000Y33200000D02*
X136950000Y33200000D01*
X136950000Y32975000D02*
X134550000Y32975000D01*
X134550000Y33375000D02*
X136950000Y33375000D01*
X134550000Y33550000D02*
X136950000Y33550000D01*
X134550000Y33725000D02*
X136950000Y33725000D01*
%TO.C,D45*%
X153550000Y33725000D02*
X155950000Y33725000D01*
X153550000Y33550000D02*
X155950000Y33550000D01*
X153550000Y33375000D02*
X155950000Y33375000D01*
X155950000Y32975000D02*
X153550000Y32975000D01*
X153550000Y33200000D02*
X155950000Y33200000D01*
X153550000Y33075000D02*
X155950000Y33075000D01*
X153550000Y33000000D02*
X153550000Y38800000D01*
X153550000Y38800000D02*
X155950000Y38800000D01*
X155950000Y38800000D02*
X155950000Y33000000D01*
%TO.C,D46*%
X172550000Y33725000D02*
X174950000Y33725000D01*
X172550000Y33550000D02*
X174950000Y33550000D01*
X172550000Y33375000D02*
X174950000Y33375000D01*
X174950000Y32975000D02*
X172550000Y32975000D01*
X172550000Y33200000D02*
X174950000Y33200000D01*
X172550000Y33075000D02*
X174950000Y33075000D01*
X172550000Y33000000D02*
X172550000Y38800000D01*
X172550000Y38800000D02*
X174950000Y38800000D01*
X174950000Y38800000D02*
X174950000Y33000000D01*
%TO.C,D48*%
X210550000Y14725000D02*
X212950000Y14725000D01*
X210550000Y14550000D02*
X212950000Y14550000D01*
X210550000Y14375000D02*
X212950000Y14375000D01*
X212950000Y13975000D02*
X210550000Y13975000D01*
X210550000Y14200000D02*
X212950000Y14200000D01*
X210550000Y14075000D02*
X212950000Y14075000D01*
X210550000Y14000000D02*
X210550000Y19800000D01*
X210550000Y19800000D02*
X212950000Y19800000D01*
X212950000Y19800000D02*
X212950000Y14000000D01*
%TO.C,D50*%
X27700000Y19800000D02*
X27700000Y14000000D01*
X25300000Y19800000D02*
X27700000Y19800000D01*
X25300000Y14000000D02*
X25300000Y19800000D01*
X25300000Y14075000D02*
X27700000Y14075000D01*
X25300000Y14200000D02*
X27700000Y14200000D01*
X27700000Y13975000D02*
X25300000Y13975000D01*
X25300000Y14375000D02*
X27700000Y14375000D01*
X25300000Y14550000D02*
X27700000Y14550000D01*
X25300000Y14725000D02*
X27700000Y14725000D01*
%TO.C,D51*%
X58700000Y19800000D02*
X58700000Y14000000D01*
X56300000Y19800000D02*
X58700000Y19800000D01*
X56300000Y14000000D02*
X56300000Y19800000D01*
X56300000Y14075000D02*
X58700000Y14075000D01*
X56300000Y14200000D02*
X58700000Y14200000D01*
X58700000Y13975000D02*
X56300000Y13975000D01*
X56300000Y14375000D02*
X58700000Y14375000D01*
X56300000Y14550000D02*
X58700000Y14550000D01*
X56300000Y14725000D02*
X58700000Y14725000D01*
%TO.C,D52*%
X80050000Y14725000D02*
X82450000Y14725000D01*
X80050000Y14550000D02*
X82450000Y14550000D01*
X80050000Y14375000D02*
X82450000Y14375000D01*
X82450000Y13975000D02*
X80050000Y13975000D01*
X80050000Y14200000D02*
X82450000Y14200000D01*
X80050000Y14075000D02*
X82450000Y14075000D01*
X80050000Y14000000D02*
X80050000Y19800000D01*
X80050000Y19800000D02*
X82450000Y19800000D01*
X82450000Y19800000D02*
X82450000Y14000000D01*
%TO.C,D53*%
X103800000Y14725000D02*
X106200000Y14725000D01*
X103800000Y14550000D02*
X106200000Y14550000D01*
X103800000Y14375000D02*
X106200000Y14375000D01*
X106200000Y13975000D02*
X103800000Y13975000D01*
X103800000Y14200000D02*
X106200000Y14200000D01*
X103800000Y14075000D02*
X106200000Y14075000D01*
X103800000Y14000000D02*
X103800000Y19800000D01*
X103800000Y19800000D02*
X106200000Y19800000D01*
X106200000Y19800000D02*
X106200000Y14000000D01*
%TO.C,D54*%
X144200000Y19800000D02*
X144200000Y14000000D01*
X141800000Y19800000D02*
X144200000Y19800000D01*
X141800000Y14000000D02*
X141800000Y19800000D01*
X141800000Y14075000D02*
X144200000Y14075000D01*
X141800000Y14200000D02*
X144200000Y14200000D01*
X144200000Y13975000D02*
X141800000Y13975000D01*
X141800000Y14375000D02*
X144200000Y14375000D01*
X141800000Y14550000D02*
X144200000Y14550000D01*
X141800000Y14725000D02*
X144200000Y14725000D01*
D10*
%TO.C,K01(ESC)1*%
X39150000Y121322000D02*
X39150000Y123100000D01*
X39150000Y110400000D02*
X39150000Y112178000D01*
X40928000Y110400000D02*
X39150000Y110400000D01*
X51850000Y110400000D02*
X50072000Y110400000D01*
X51850000Y112178000D02*
X51850000Y110400000D01*
X51850000Y123100000D02*
X51850000Y121322000D01*
X50072000Y123100000D02*
X51850000Y123100000D01*
X39150000Y123100000D02*
X40928000Y123100000D01*
%TO.C,K02(F1)1*%
X67650000Y121322000D02*
X67650000Y123100000D01*
X67650000Y110400000D02*
X67650000Y112178000D01*
X69428000Y110400000D02*
X67650000Y110400000D01*
X80350000Y110400000D02*
X78572000Y110400000D01*
X80350000Y112178000D02*
X80350000Y110400000D01*
X80350000Y123100000D02*
X80350000Y121322000D01*
X78572000Y123100000D02*
X80350000Y123100000D01*
X67650000Y123100000D02*
X69428000Y123100000D01*
%TO.C,K03(F2)1*%
X86650000Y123100000D02*
X88428000Y123100000D01*
X97572000Y123100000D02*
X99350000Y123100000D01*
X99350000Y123100000D02*
X99350000Y121322000D01*
X99350000Y112178000D02*
X99350000Y110400000D01*
X99350000Y110400000D02*
X97572000Y110400000D01*
X88428000Y110400000D02*
X86650000Y110400000D01*
X86650000Y110400000D02*
X86650000Y112178000D01*
X86650000Y121322000D02*
X86650000Y123100000D01*
%TO.C,K04(F3)1*%
X105650000Y123100000D02*
X107428000Y123100000D01*
X116572000Y123100000D02*
X118350000Y123100000D01*
X118350000Y123100000D02*
X118350000Y121322000D01*
X118350000Y112178000D02*
X118350000Y110400000D01*
X118350000Y110400000D02*
X116572000Y110400000D01*
X107428000Y110400000D02*
X105650000Y110400000D01*
X105650000Y110400000D02*
X105650000Y112178000D01*
X105650000Y121322000D02*
X105650000Y123100000D01*
%TO.C,K05(F4)1*%
X124650000Y121322000D02*
X124650000Y123100000D01*
X124650000Y110400000D02*
X124650000Y112178000D01*
X126428000Y110400000D02*
X124650000Y110400000D01*
X137350000Y110400000D02*
X135572000Y110400000D01*
X137350000Y112178000D02*
X137350000Y110400000D01*
X137350000Y123100000D02*
X137350000Y121322000D01*
X135572000Y123100000D02*
X137350000Y123100000D01*
X124650000Y123100000D02*
X126428000Y123100000D01*
%TO.C,K07(F5)1*%
X153150000Y123100000D02*
X154928000Y123100000D01*
X164072000Y123100000D02*
X165850000Y123100000D01*
X165850000Y123100000D02*
X165850000Y121322000D01*
X165850000Y112178000D02*
X165850000Y110400000D01*
X165850000Y110400000D02*
X164072000Y110400000D01*
X154928000Y110400000D02*
X153150000Y110400000D01*
X153150000Y110400000D02*
X153150000Y112178000D01*
X153150000Y121322000D02*
X153150000Y123100000D01*
%TO.C,K10(M0)1*%
X10650000Y99350000D02*
X12428000Y99350000D01*
X21572000Y99350000D02*
X23350000Y99350000D01*
X23350000Y99350000D02*
X23350000Y97572000D01*
X23350000Y88428000D02*
X23350000Y86650000D01*
X23350000Y86650000D02*
X21572000Y86650000D01*
X12428000Y86650000D02*
X10650000Y86650000D01*
X10650000Y86650000D02*
X10650000Y88428000D01*
X10650000Y97572000D02*
X10650000Y99350000D01*
%TO.C,K11(_`_)1*%
X39150000Y99350000D02*
X40928000Y99350000D01*
X50072000Y99350000D02*
X51850000Y99350000D01*
X51850000Y99350000D02*
X51850000Y97572000D01*
X51850000Y88428000D02*
X51850000Y86650000D01*
X51850000Y86650000D02*
X50072000Y86650000D01*
X40928000Y86650000D02*
X39150000Y86650000D01*
X39150000Y86650000D02*
X39150000Y88428000D01*
X39150000Y97572000D02*
X39150000Y99350000D01*
%TO.C,K12(1!)1*%
X58150000Y97572000D02*
X58150000Y99350000D01*
X58150000Y86650000D02*
X58150000Y88428000D01*
X59928000Y86650000D02*
X58150000Y86650000D01*
X70850000Y86650000D02*
X69072000Y86650000D01*
X70850000Y88428000D02*
X70850000Y86650000D01*
X70850000Y99350000D02*
X70850000Y97572000D01*
X69072000Y99350000D02*
X70850000Y99350000D01*
X58150000Y99350000D02*
X59928000Y99350000D01*
%TO.C,K13(2@)1*%
X77150000Y97572000D02*
X77150000Y99350000D01*
X77150000Y86650000D02*
X77150000Y88428000D01*
X78928000Y86650000D02*
X77150000Y86650000D01*
X89850000Y86650000D02*
X88072000Y86650000D01*
X89850000Y88428000D02*
X89850000Y86650000D01*
X89850000Y99350000D02*
X89850000Y97572000D01*
X88072000Y99350000D02*
X89850000Y99350000D01*
X77150000Y99350000D02*
X78928000Y99350000D01*
%TO.C,K14(3#)1*%
X96150000Y97572000D02*
X96150000Y99350000D01*
X96150000Y86650000D02*
X96150000Y88428000D01*
X97928000Y86650000D02*
X96150000Y86650000D01*
X108850000Y86650000D02*
X107072000Y86650000D01*
X108850000Y88428000D02*
X108850000Y86650000D01*
X108850000Y99350000D02*
X108850000Y97572000D01*
X107072000Y99350000D02*
X108850000Y99350000D01*
X96150000Y99350000D02*
X97928000Y99350000D01*
%TO.C,K15(4$)1*%
X115150000Y99350000D02*
X116928000Y99350000D01*
X126072000Y99350000D02*
X127850000Y99350000D01*
X127850000Y99350000D02*
X127850000Y97572000D01*
X127850000Y88428000D02*
X127850000Y86650000D01*
X127850000Y86650000D02*
X126072000Y86650000D01*
X116928000Y86650000D02*
X115150000Y86650000D01*
X115150000Y86650000D02*
X115150000Y88428000D01*
X115150000Y97572000D02*
X115150000Y99350000D01*
%TO.C,K16(5\u0025)1*%
X134150000Y97572000D02*
X134150000Y99350000D01*
X134150000Y86650000D02*
X134150000Y88428000D01*
X135928000Y86650000D02*
X134150000Y86650000D01*
X146850000Y86650000D02*
X145072000Y86650000D01*
X146850000Y88428000D02*
X146850000Y86650000D01*
X146850000Y99350000D02*
X146850000Y97572000D01*
X145072000Y99350000D02*
X146850000Y99350000D01*
X134150000Y99350000D02*
X135928000Y99350000D01*
%TO.C,K17(6^)1*%
X153150000Y99350000D02*
X154928000Y99350000D01*
X164072000Y99350000D02*
X165850000Y99350000D01*
X165850000Y99350000D02*
X165850000Y97572000D01*
X165850000Y88428000D02*
X165850000Y86650000D01*
X165850000Y86650000D02*
X164072000Y86650000D01*
X154928000Y86650000D02*
X153150000Y86650000D01*
X153150000Y86650000D02*
X153150000Y88428000D01*
X153150000Y97572000D02*
X153150000Y99350000D01*
%TO.C,K20(M1)1*%
X10650000Y80350000D02*
X12428000Y80350000D01*
X21572000Y80350000D02*
X23350000Y80350000D01*
X23350000Y80350000D02*
X23350000Y78572000D01*
X23350000Y69428000D02*
X23350000Y67650000D01*
X23350000Y67650000D02*
X21572000Y67650000D01*
X12428000Y67650000D02*
X10650000Y67650000D01*
X10650000Y67650000D02*
X10650000Y69428000D01*
X10650000Y78572000D02*
X10650000Y80350000D01*
%TO.C,K21(Tap)1*%
X43900000Y80350000D02*
X45678000Y80350000D01*
X54822000Y80350000D02*
X56600000Y80350000D01*
X56600000Y80350000D02*
X56600000Y78572000D01*
X56600000Y69428000D02*
X56600000Y67650000D01*
X56600000Y67650000D02*
X54822000Y67650000D01*
X45678000Y67650000D02*
X43900000Y67650000D01*
X43900000Y67650000D02*
X43900000Y69428000D01*
X43900000Y78572000D02*
X43900000Y80350000D01*
%TO.C,K22(Q)1*%
X67650000Y78572000D02*
X67650000Y80350000D01*
X67650000Y67650000D02*
X67650000Y69428000D01*
X69428000Y67650000D02*
X67650000Y67650000D01*
X80350000Y67650000D02*
X78572000Y67650000D01*
X80350000Y69428000D02*
X80350000Y67650000D01*
X80350000Y80350000D02*
X80350000Y78572000D01*
X78572000Y80350000D02*
X80350000Y80350000D01*
X67650000Y80350000D02*
X69428000Y80350000D01*
%TO.C,K23(W)1*%
X86650000Y80350000D02*
X88428000Y80350000D01*
X97572000Y80350000D02*
X99350000Y80350000D01*
X99350000Y80350000D02*
X99350000Y78572000D01*
X99350000Y69428000D02*
X99350000Y67650000D01*
X99350000Y67650000D02*
X97572000Y67650000D01*
X88428000Y67650000D02*
X86650000Y67650000D01*
X86650000Y67650000D02*
X86650000Y69428000D01*
X86650000Y78572000D02*
X86650000Y80350000D01*
%TO.C,K24(E)1*%
X105650000Y78572000D02*
X105650000Y80350000D01*
X105650000Y67650000D02*
X105650000Y69428000D01*
X107428000Y67650000D02*
X105650000Y67650000D01*
X118350000Y67650000D02*
X116572000Y67650000D01*
X118350000Y69428000D02*
X118350000Y67650000D01*
X118350000Y80350000D02*
X118350000Y78572000D01*
X116572000Y80350000D02*
X118350000Y80350000D01*
X105650000Y80350000D02*
X107428000Y80350000D01*
%TO.C,K25(R)1*%
X124650000Y78572000D02*
X124650000Y80350000D01*
X124650000Y67650000D02*
X124650000Y69428000D01*
X126428000Y67650000D02*
X124650000Y67650000D01*
X137350000Y67650000D02*
X135572000Y67650000D01*
X137350000Y69428000D02*
X137350000Y67650000D01*
X137350000Y80350000D02*
X137350000Y78572000D01*
X135572000Y80350000D02*
X137350000Y80350000D01*
X124650000Y80350000D02*
X126428000Y80350000D01*
%TO.C,K26(T)1*%
X143650000Y80350000D02*
X145428000Y80350000D01*
X154572000Y80350000D02*
X156350000Y80350000D01*
X156350000Y80350000D02*
X156350000Y78572000D01*
X156350000Y69428000D02*
X156350000Y67650000D01*
X156350000Y67650000D02*
X154572000Y67650000D01*
X145428000Y67650000D02*
X143650000Y67650000D01*
X143650000Y67650000D02*
X143650000Y69428000D01*
X143650000Y78572000D02*
X143650000Y80350000D01*
%TO.C,K27(P)1*%
X162650000Y78572000D02*
X162650000Y80350000D01*
X162650000Y67650000D02*
X162650000Y69428000D01*
X164428000Y67650000D02*
X162650000Y67650000D01*
X175350000Y67650000D02*
X173572000Y67650000D01*
X175350000Y69428000D02*
X175350000Y67650000D01*
X175350000Y80350000D02*
X175350000Y78572000D01*
X173572000Y80350000D02*
X175350000Y80350000D01*
X162650000Y80350000D02*
X164428000Y80350000D01*
%TO.C,K30(M2)1*%
X10650000Y59572000D02*
X10650000Y61350000D01*
X10650000Y48650000D02*
X10650000Y50428000D01*
X12428000Y48650000D02*
X10650000Y48650000D01*
X23350000Y48650000D02*
X21572000Y48650000D01*
X23350000Y50428000D02*
X23350000Y48650000D01*
X23350000Y61350000D02*
X23350000Y59572000D01*
X21572000Y61350000D02*
X23350000Y61350000D01*
X10650000Y61350000D02*
X12428000Y61350000D01*
%TO.C,K31(Caps_Lock)1*%
X46280000Y61350000D02*
X48058000Y61350000D01*
X57202000Y61350000D02*
X58980000Y61350000D01*
X58980000Y61350000D02*
X58980000Y59572000D01*
X58980000Y50428000D02*
X58980000Y48650000D01*
X58980000Y48650000D02*
X57202000Y48650000D01*
X48058000Y48650000D02*
X46280000Y48650000D01*
X46280000Y48650000D02*
X46280000Y50428000D01*
X46280000Y59572000D02*
X46280000Y61350000D01*
%TO.C,K32(A)1*%
X72400000Y61350000D02*
X74178000Y61350000D01*
X83322000Y61350000D02*
X85100000Y61350000D01*
X85100000Y61350000D02*
X85100000Y59572000D01*
X85100000Y50428000D02*
X85100000Y48650000D01*
X85100000Y48650000D02*
X83322000Y48650000D01*
X74178000Y48650000D02*
X72400000Y48650000D01*
X72400000Y48650000D02*
X72400000Y50428000D01*
X72400000Y59572000D02*
X72400000Y61350000D01*
%TO.C,K33(S)1*%
X91400000Y59572000D02*
X91400000Y61350000D01*
X91400000Y48650000D02*
X91400000Y50428000D01*
X93178000Y48650000D02*
X91400000Y48650000D01*
X104100000Y48650000D02*
X102322000Y48650000D01*
X104100000Y50428000D02*
X104100000Y48650000D01*
X104100000Y61350000D02*
X104100000Y59572000D01*
X102322000Y61350000D02*
X104100000Y61350000D01*
X91400000Y61350000D02*
X93178000Y61350000D01*
%TO.C,K34(D)1*%
X110400000Y61350000D02*
X112178000Y61350000D01*
X121322000Y61350000D02*
X123100000Y61350000D01*
X123100000Y61350000D02*
X123100000Y59572000D01*
X123100000Y50428000D02*
X123100000Y48650000D01*
X123100000Y48650000D02*
X121322000Y48650000D01*
X112178000Y48650000D02*
X110400000Y48650000D01*
X110400000Y48650000D02*
X110400000Y50428000D01*
X110400000Y59572000D02*
X110400000Y61350000D01*
%TO.C,K35(F)1*%
X129400000Y61350000D02*
X131178000Y61350000D01*
X140322000Y61350000D02*
X142100000Y61350000D01*
X142100000Y61350000D02*
X142100000Y59572000D01*
X142100000Y50428000D02*
X142100000Y48650000D01*
X142100000Y48650000D02*
X140322000Y48650000D01*
X131178000Y48650000D02*
X129400000Y48650000D01*
X129400000Y48650000D02*
X129400000Y50428000D01*
X129400000Y59572000D02*
X129400000Y61350000D01*
%TO.C,K36(G)1*%
X148400000Y59572000D02*
X148400000Y61350000D01*
X148400000Y48650000D02*
X148400000Y50428000D01*
X150178000Y48650000D02*
X148400000Y48650000D01*
X161100000Y48650000D02*
X159322000Y48650000D01*
X161100000Y50428000D02*
X161100000Y48650000D01*
X161100000Y61350000D02*
X161100000Y59572000D01*
X159322000Y61350000D02*
X161100000Y61350000D01*
X148400000Y61350000D02*
X150178000Y61350000D01*
%TO.C,K37(H)1*%
X167400000Y61350000D02*
X169178000Y61350000D01*
X178322000Y61350000D02*
X180100000Y61350000D01*
X180100000Y61350000D02*
X180100000Y59572000D01*
X180100000Y50428000D02*
X180100000Y48650000D01*
X180100000Y48650000D02*
X178322000Y48650000D01*
X169178000Y48650000D02*
X167400000Y48650000D01*
X167400000Y48650000D02*
X167400000Y50428000D01*
X167400000Y59572000D02*
X167400000Y61350000D01*
%TO.C,K38(IoT1)1*%
X195900000Y42350000D02*
X197678000Y42350000D01*
X206822000Y42350000D02*
X208600000Y42350000D01*
X208600000Y42350000D02*
X208600000Y40572000D01*
X208600000Y31428000D02*
X208600000Y29650000D01*
X208600000Y29650000D02*
X206822000Y29650000D01*
X197678000Y29650000D02*
X195900000Y29650000D01*
X195900000Y29650000D02*
X195900000Y31428000D01*
X195900000Y40572000D02*
X195900000Y42350000D01*
%TO.C,K40(M3)1*%
X10650000Y40572000D02*
X10650000Y42350000D01*
X10650000Y29650000D02*
X10650000Y31428000D01*
X12428000Y29650000D02*
X10650000Y29650000D01*
X23350000Y29650000D02*
X21572000Y29650000D01*
X23350000Y31428000D02*
X23350000Y29650000D01*
X23350000Y42350000D02*
X23350000Y40572000D01*
X21572000Y42350000D02*
X23350000Y42350000D01*
X10650000Y42350000D02*
X12428000Y42350000D01*
%TO.C,K41(L_Shift)1*%
X51030000Y42350000D02*
X52808000Y42350000D01*
X61952000Y42350000D02*
X63730000Y42350000D01*
X63730000Y42350000D02*
X63730000Y40572000D01*
X63730000Y31428000D02*
X63730000Y29650000D01*
X63730000Y29650000D02*
X61952000Y29650000D01*
X52808000Y29650000D02*
X51030000Y29650000D01*
X51030000Y29650000D02*
X51030000Y31428000D01*
X51030000Y40572000D02*
X51030000Y42350000D01*
%TO.C,K42(Z)1*%
X81900000Y42350000D02*
X83678000Y42350000D01*
X92822000Y42350000D02*
X94600000Y42350000D01*
X94600000Y42350000D02*
X94600000Y40572000D01*
X94600000Y31428000D02*
X94600000Y29650000D01*
X94600000Y29650000D02*
X92822000Y29650000D01*
X83678000Y29650000D02*
X81900000Y29650000D01*
X81900000Y29650000D02*
X81900000Y31428000D01*
X81900000Y40572000D02*
X81900000Y42350000D01*
%TO.C,K43(X)1*%
X100900000Y40572000D02*
X100900000Y42350000D01*
X100900000Y29650000D02*
X100900000Y31428000D01*
X102678000Y29650000D02*
X100900000Y29650000D01*
X113600000Y29650000D02*
X111822000Y29650000D01*
X113600000Y31428000D02*
X113600000Y29650000D01*
X113600000Y42350000D02*
X113600000Y40572000D01*
X111822000Y42350000D02*
X113600000Y42350000D01*
X100900000Y42350000D02*
X102678000Y42350000D01*
%TO.C,K44(C)1*%
X119900000Y42350000D02*
X121678000Y42350000D01*
X130822000Y42350000D02*
X132600000Y42350000D01*
X132600000Y42350000D02*
X132600000Y40572000D01*
X132600000Y31428000D02*
X132600000Y29650000D01*
X132600000Y29650000D02*
X130822000Y29650000D01*
X121678000Y29650000D02*
X119900000Y29650000D01*
X119900000Y29650000D02*
X119900000Y31428000D01*
X119900000Y40572000D02*
X119900000Y42350000D01*
%TO.C,K45(V)1*%
X138900000Y42350000D02*
X140678000Y42350000D01*
X149822000Y42350000D02*
X151600000Y42350000D01*
X151600000Y42350000D02*
X151600000Y40572000D01*
X151600000Y31428000D02*
X151600000Y29650000D01*
X151600000Y29650000D02*
X149822000Y29650000D01*
X140678000Y29650000D02*
X138900000Y29650000D01*
X138900000Y29650000D02*
X138900000Y31428000D01*
X138900000Y40572000D02*
X138900000Y42350000D01*
%TO.C,K46(B)1*%
X157900000Y40572000D02*
X157900000Y42350000D01*
X157900000Y29650000D02*
X157900000Y31428000D01*
X159678000Y29650000D02*
X157900000Y29650000D01*
X170600000Y29650000D02*
X168822000Y29650000D01*
X170600000Y31428000D02*
X170600000Y29650000D01*
X170600000Y42350000D02*
X170600000Y40572000D01*
X168822000Y42350000D02*
X170600000Y42350000D01*
X157900000Y42350000D02*
X159678000Y42350000D01*
%TO.C,K48(IoT2)1*%
X195900000Y21572000D02*
X195900000Y23350000D01*
X195900000Y10650000D02*
X195900000Y12428000D01*
X197678000Y10650000D02*
X195900000Y10650000D01*
X208600000Y10650000D02*
X206822000Y10650000D01*
X208600000Y12428000D02*
X208600000Y10650000D01*
X208600000Y23350000D02*
X208600000Y21572000D01*
X206822000Y23350000D02*
X208600000Y23350000D01*
X195900000Y23350000D02*
X197678000Y23350000D01*
%TO.C,K50(M4)1*%
X10650000Y23350000D02*
X12428000Y23350000D01*
X21572000Y23350000D02*
X23350000Y23350000D01*
X23350000Y23350000D02*
X23350000Y21572000D01*
X23350000Y12428000D02*
X23350000Y10650000D01*
X23350000Y10650000D02*
X21572000Y10650000D01*
X12428000Y10650000D02*
X10650000Y10650000D01*
X10650000Y10650000D02*
X10650000Y12428000D01*
X10650000Y21572000D02*
X10650000Y23350000D01*
%TO.C,K51(L_CTRL)1*%
X41530000Y23350000D02*
X43308000Y23350000D01*
X52452000Y23350000D02*
X54230000Y23350000D01*
X54230000Y23350000D02*
X54230000Y21572000D01*
X54230000Y12428000D02*
X54230000Y10650000D01*
X54230000Y10650000D02*
X52452000Y10650000D01*
X43308000Y10650000D02*
X41530000Y10650000D01*
X41530000Y10650000D02*
X41530000Y12428000D01*
X41530000Y21572000D02*
X41530000Y23350000D01*
%TO.C,K52(Win)1*%
X65280000Y21572000D02*
X65280000Y23350000D01*
X65280000Y10650000D02*
X65280000Y12428000D01*
X67058000Y10650000D02*
X65280000Y10650000D01*
X77980000Y10650000D02*
X76202000Y10650000D01*
X77980000Y12428000D02*
X77980000Y10650000D01*
X77980000Y23350000D02*
X77980000Y21572000D01*
X76202000Y23350000D02*
X77980000Y23350000D01*
X65280000Y23350000D02*
X67058000Y23350000D01*
%TO.C,K53(L_ALT)1*%
X89030000Y23350000D02*
X90808000Y23350000D01*
X99952000Y23350000D02*
X101730000Y23350000D01*
X101730000Y23350000D02*
X101730000Y21572000D01*
X101730000Y12428000D02*
X101730000Y10650000D01*
X101730000Y10650000D02*
X99952000Y10650000D01*
X90808000Y10650000D02*
X89030000Y10650000D01*
X89030000Y10650000D02*
X89030000Y12428000D01*
X89030000Y21572000D02*
X89030000Y23350000D01*
%TO.C,K54(Space)1*%
X127030000Y23350000D02*
X128808000Y23350000D01*
X137952000Y23350000D02*
X139730000Y23350000D01*
X139730000Y23350000D02*
X139730000Y21572000D01*
X139730000Y12428000D02*
X139730000Y10650000D01*
X139730000Y10650000D02*
X137952000Y10650000D01*
X128808000Y10650000D02*
X127030000Y10650000D01*
X127030000Y10650000D02*
X127030000Y12428000D01*
X127030000Y21572000D02*
X127030000Y23350000D01*
%TO.C,B0*%
D12*
X199753257Y100283542D02*
X199840342Y100254514D01*
X199869371Y100225485D01*
X199898400Y100167428D01*
X199898400Y100080342D01*
X199869371Y100022285D01*
X199840342Y99993257D01*
X199782285Y99964228D01*
X199550057Y99964228D01*
X199550057Y100573828D01*
X199753257Y100573828D01*
X199811314Y100544800D01*
X199840342Y100515771D01*
X199869371Y100457714D01*
X199869371Y100399657D01*
X199840342Y100341600D01*
X199811314Y100312571D01*
X199753257Y100283542D01*
X199550057Y100283542D01*
X200275771Y100573828D02*
X200333828Y100573828D01*
X200391885Y100544800D01*
X200420914Y100515771D01*
X200449942Y100457714D01*
X200478971Y100341600D01*
X200478971Y100196457D01*
X200449942Y100080342D01*
X200420914Y100022285D01*
X200391885Y99993257D01*
X200333828Y99964228D01*
X200275771Y99964228D01*
X200217714Y99993257D01*
X200188685Y100022285D01*
X200159657Y100080342D01*
X200130628Y100196457D01*
X200130628Y100341600D01*
X200159657Y100457714D01*
X200188685Y100515771D01*
X200217714Y100544800D01*
X200275771Y100573828D01*
X194934514Y69513257D02*
X195021600Y69484228D01*
X195166742Y69484228D01*
X195224800Y69513257D01*
X195253828Y69542285D01*
X195282857Y69600342D01*
X195282857Y69658400D01*
X195253828Y69716457D01*
X195224800Y69745485D01*
X195166742Y69774514D01*
X195050628Y69803542D01*
X194992571Y69832571D01*
X194963542Y69861600D01*
X194934514Y69919657D01*
X194934514Y69977714D01*
X194963542Y70035771D01*
X194992571Y70064800D01*
X195050628Y70093828D01*
X195195771Y70093828D01*
X195282857Y70064800D01*
X195544114Y69484228D02*
X195544114Y70093828D01*
X195776342Y70093828D01*
X195834400Y70064800D01*
X195863428Y70035771D01*
X195892457Y69977714D01*
X195892457Y69890628D01*
X195863428Y69832571D01*
X195834400Y69803542D01*
X195776342Y69774514D01*
X195544114Y69774514D01*
X196124685Y69658400D02*
X196414971Y69658400D01*
X196066628Y69484228D02*
X196269828Y70093828D01*
X196473028Y69484228D01*
X197024571Y69484228D02*
X196821371Y69774514D01*
X196676228Y69484228D02*
X196676228Y70093828D01*
X196908457Y70093828D01*
X196966514Y70064800D01*
X196995542Y70035771D01*
X197024571Y69977714D01*
X197024571Y69890628D01*
X196995542Y69832571D01*
X196966514Y69803542D01*
X196908457Y69774514D01*
X196676228Y69774514D01*
X197285828Y69484228D02*
X197285828Y70093828D01*
X197634171Y69484228D02*
X197372914Y69832571D01*
X197634171Y70093828D02*
X197285828Y69745485D01*
X198098628Y69803542D02*
X197895428Y69803542D01*
X197895428Y69484228D02*
X197895428Y70093828D01*
X198185714Y70093828D01*
X198417942Y70093828D02*
X198417942Y69600342D01*
X198446971Y69542285D01*
X198476000Y69513257D01*
X198534057Y69484228D01*
X198650171Y69484228D01*
X198708228Y69513257D01*
X198737257Y69542285D01*
X198766285Y69600342D01*
X198766285Y70093828D01*
X199056571Y69484228D02*
X199056571Y70093828D01*
X199404914Y69484228D01*
X199404914Y70093828D01*
X199550057Y69426171D02*
X200014514Y69426171D01*
X200159657Y69484228D02*
X200159657Y70093828D01*
X200391885Y70093828D01*
X200449942Y70064800D01*
X200478971Y70035771D01*
X200508000Y69977714D01*
X200508000Y69890628D01*
X200478971Y69832571D01*
X200449942Y69803542D01*
X200391885Y69774514D01*
X200159657Y69774514D01*
X201117600Y69484228D02*
X200914400Y69774514D01*
X200769257Y69484228D02*
X200769257Y70093828D01*
X201001485Y70093828D01*
X201059542Y70064800D01*
X201088571Y70035771D01*
X201117600Y69977714D01*
X201117600Y69890628D01*
X201088571Y69832571D01*
X201059542Y69803542D01*
X201001485Y69774514D01*
X200769257Y69774514D01*
X201494971Y70093828D02*
X201611085Y70093828D01*
X201669142Y70064800D01*
X201727200Y70006742D01*
X201756228Y69890628D01*
X201756228Y69687428D01*
X201727200Y69571314D01*
X201669142Y69513257D01*
X201611085Y69484228D01*
X201494971Y69484228D01*
X201436914Y69513257D01*
X201378857Y69571314D01*
X201349828Y69687428D01*
X201349828Y69890628D01*
X201378857Y70006742D01*
X201436914Y70064800D01*
X201494971Y70093828D01*
X201872342Y69426171D02*
X202336800Y69426171D01*
X202481942Y69484228D02*
X202481942Y70093828D01*
X202685142Y69658400D01*
X202888342Y70093828D01*
X202888342Y69484228D01*
X203178628Y69484228D02*
X203178628Y70093828D01*
X203817257Y69542285D02*
X203788228Y69513257D01*
X203701142Y69484228D01*
X203643085Y69484228D01*
X203556000Y69513257D01*
X203497942Y69571314D01*
X203468914Y69629371D01*
X203439885Y69745485D01*
X203439885Y69832571D01*
X203468914Y69948685D01*
X203497942Y70006742D01*
X203556000Y70064800D01*
X203643085Y70093828D01*
X203701142Y70093828D01*
X203788228Y70064800D01*
X203817257Y70035771D01*
X204426857Y69484228D02*
X204223657Y69774514D01*
X204078514Y69484228D02*
X204078514Y70093828D01*
X204310742Y70093828D01*
X204368800Y70064800D01*
X204397828Y70035771D01*
X204426857Y69977714D01*
X204426857Y69890628D01*
X204397828Y69832571D01*
X204368800Y69803542D01*
X204310742Y69774514D01*
X204078514Y69774514D01*
X204804228Y70093828D02*
X204920342Y70093828D01*
X204978400Y70064800D01*
X205036457Y70006742D01*
X205065485Y69890628D01*
X205065485Y69687428D01*
X205036457Y69571314D01*
X204978400Y69513257D01*
X204920342Y69484228D01*
X204804228Y69484228D01*
X204746171Y69513257D01*
X204688114Y69571314D01*
X204659085Y69687428D01*
X204659085Y69890628D01*
X204688114Y70006742D01*
X204746171Y70064800D01*
X204804228Y70093828D01*
%TO.C,D1*%
D13*
X57286904Y116159523D02*
X56486904Y116159523D01*
X56486904Y116350000D01*
X56525000Y116464285D01*
X56601190Y116540476D01*
X56677380Y116578571D01*
X56829761Y116616666D01*
X56944047Y116616666D01*
X57096428Y116578571D01*
X57172619Y116540476D01*
X57248809Y116464285D01*
X57286904Y116350000D01*
X57286904Y116159523D01*
X57286904Y117378571D02*
X57286904Y116921428D01*
X57286904Y117150000D02*
X56486904Y117150000D01*
X56601190Y117073809D01*
X56677380Y116997619D01*
X56715476Y116921428D01*
%TO.C,D2*%
X85786904Y116159523D02*
X84986904Y116159523D01*
X84986904Y116350000D01*
X85025000Y116464285D01*
X85101190Y116540476D01*
X85177380Y116578571D01*
X85329761Y116616666D01*
X85444047Y116616666D01*
X85596428Y116578571D01*
X85672619Y116540476D01*
X85748809Y116464285D01*
X85786904Y116350000D01*
X85786904Y116159523D01*
X85063095Y116921428D02*
X85025000Y116959523D01*
X84986904Y117035714D01*
X84986904Y117226190D01*
X85025000Y117302380D01*
X85063095Y117340476D01*
X85139285Y117378571D01*
X85215476Y117378571D01*
X85329761Y117340476D01*
X85786904Y116883333D01*
X85786904Y117378571D01*
%TO.C,D3*%
X104786904Y116159523D02*
X103986904Y116159523D01*
X103986904Y116350000D01*
X104025000Y116464285D01*
X104101190Y116540476D01*
X104177380Y116578571D01*
X104329761Y116616666D01*
X104444047Y116616666D01*
X104596428Y116578571D01*
X104672619Y116540476D01*
X104748809Y116464285D01*
X104786904Y116350000D01*
X104786904Y116159523D01*
X103986904Y116883333D02*
X103986904Y117378571D01*
X104291666Y117111904D01*
X104291666Y117226190D01*
X104329761Y117302380D01*
X104367857Y117340476D01*
X104444047Y117378571D01*
X104634523Y117378571D01*
X104710714Y117340476D01*
X104748809Y117302380D01*
X104786904Y117226190D01*
X104786904Y116997619D01*
X104748809Y116921428D01*
X104710714Y116883333D01*
%TO.C,D4*%
X123786904Y116159523D02*
X122986904Y116159523D01*
X122986904Y116350000D01*
X123025000Y116464285D01*
X123101190Y116540476D01*
X123177380Y116578571D01*
X123329761Y116616666D01*
X123444047Y116616666D01*
X123596428Y116578571D01*
X123672619Y116540476D01*
X123748809Y116464285D01*
X123786904Y116350000D01*
X123786904Y116159523D01*
X123253571Y117302380D02*
X123786904Y117302380D01*
X122948809Y117111904D02*
X123520238Y116921428D01*
X123520238Y117416666D01*
%TO.C,D5*%
X142786904Y116159523D02*
X141986904Y116159523D01*
X141986904Y116350000D01*
X142025000Y116464285D01*
X142101190Y116540476D01*
X142177380Y116578571D01*
X142329761Y116616666D01*
X142444047Y116616666D01*
X142596428Y116578571D01*
X142672619Y116540476D01*
X142748809Y116464285D01*
X142786904Y116350000D01*
X142786904Y116159523D01*
X141986904Y117340476D02*
X141986904Y116959523D01*
X142367857Y116921428D01*
X142329761Y116959523D01*
X142291666Y117035714D01*
X142291666Y117226190D01*
X142329761Y117302380D01*
X142367857Y117340476D01*
X142444047Y117378571D01*
X142634523Y117378571D01*
X142710714Y117340476D01*
X142748809Y117302380D01*
X142786904Y117226190D01*
X142786904Y117035714D01*
X142748809Y116959523D01*
X142710714Y116921428D01*
%TO.C,D7*%
X171286904Y116159523D02*
X170486904Y116159523D01*
X170486904Y116350000D01*
X170525000Y116464285D01*
X170601190Y116540476D01*
X170677380Y116578571D01*
X170829761Y116616666D01*
X170944047Y116616666D01*
X171096428Y116578571D01*
X171172619Y116540476D01*
X171248809Y116464285D01*
X171286904Y116350000D01*
X171286904Y116159523D01*
X170486904Y116883333D02*
X170486904Y117416666D01*
X171286904Y117073809D01*
%TO.C,D10*%
X28786904Y92028571D02*
X27986904Y92028571D01*
X27986904Y92219047D01*
X28025000Y92333333D01*
X28101190Y92409523D01*
X28177380Y92447619D01*
X28329761Y92485714D01*
X28444047Y92485714D01*
X28596428Y92447619D01*
X28672619Y92409523D01*
X28748809Y92333333D01*
X28786904Y92219047D01*
X28786904Y92028571D01*
X28786904Y93247619D02*
X28786904Y92790476D01*
X28786904Y93019047D02*
X27986904Y93019047D01*
X28101190Y92942857D01*
X28177380Y92866666D01*
X28215476Y92790476D01*
X27986904Y93742857D02*
X27986904Y93819047D01*
X28025000Y93895238D01*
X28063095Y93933333D01*
X28139285Y93971428D01*
X28291666Y94009523D01*
X28482142Y94009523D01*
X28634523Y93971428D01*
X28710714Y93933333D01*
X28748809Y93895238D01*
X28786904Y93819047D01*
X28786904Y93742857D01*
X28748809Y93666666D01*
X28710714Y93628571D01*
X28634523Y93590476D01*
X28482142Y93552380D01*
X28291666Y93552380D01*
X28139285Y93590476D01*
X28063095Y93628571D01*
X28025000Y93666666D01*
X27986904Y93742857D01*
%TO.C,D11*%
X57286904Y92028571D02*
X56486904Y92028571D01*
X56486904Y92219047D01*
X56525000Y92333333D01*
X56601190Y92409523D01*
X56677380Y92447619D01*
X56829761Y92485714D01*
X56944047Y92485714D01*
X57096428Y92447619D01*
X57172619Y92409523D01*
X57248809Y92333333D01*
X57286904Y92219047D01*
X57286904Y92028571D01*
X57286904Y93247619D02*
X57286904Y92790476D01*
X57286904Y93019047D02*
X56486904Y93019047D01*
X56601190Y92942857D01*
X56677380Y92866666D01*
X56715476Y92790476D01*
X57286904Y94009523D02*
X57286904Y93552380D01*
X57286904Y93780952D02*
X56486904Y93780952D01*
X56601190Y93704761D01*
X56677380Y93628571D01*
X56715476Y93552380D01*
%TO.C,D12*%
X76286904Y92028571D02*
X75486904Y92028571D01*
X75486904Y92219047D01*
X75525000Y92333333D01*
X75601190Y92409523D01*
X75677380Y92447619D01*
X75829761Y92485714D01*
X75944047Y92485714D01*
X76096428Y92447619D01*
X76172619Y92409523D01*
X76248809Y92333333D01*
X76286904Y92219047D01*
X76286904Y92028571D01*
X76286904Y93247619D02*
X76286904Y92790476D01*
X76286904Y93019047D02*
X75486904Y93019047D01*
X75601190Y92942857D01*
X75677380Y92866666D01*
X75715476Y92790476D01*
X75563095Y93552380D02*
X75525000Y93590476D01*
X75486904Y93666666D01*
X75486904Y93857142D01*
X75525000Y93933333D01*
X75563095Y93971428D01*
X75639285Y94009523D01*
X75715476Y94009523D01*
X75829761Y93971428D01*
X76286904Y93514285D01*
X76286904Y94009523D01*
%TO.C,D13*%
X95286904Y92028571D02*
X94486904Y92028571D01*
X94486904Y92219047D01*
X94525000Y92333333D01*
X94601190Y92409523D01*
X94677380Y92447619D01*
X94829761Y92485714D01*
X94944047Y92485714D01*
X95096428Y92447619D01*
X95172619Y92409523D01*
X95248809Y92333333D01*
X95286904Y92219047D01*
X95286904Y92028571D01*
X95286904Y93247619D02*
X95286904Y92790476D01*
X95286904Y93019047D02*
X94486904Y93019047D01*
X94601190Y92942857D01*
X94677380Y92866666D01*
X94715476Y92790476D01*
X94486904Y93514285D02*
X94486904Y94009523D01*
X94791666Y93742857D01*
X94791666Y93857142D01*
X94829761Y93933333D01*
X94867857Y93971428D01*
X94944047Y94009523D01*
X95134523Y94009523D01*
X95210714Y93971428D01*
X95248809Y93933333D01*
X95286904Y93857142D01*
X95286904Y93628571D01*
X95248809Y93552380D01*
X95210714Y93514285D01*
%TO.C,D14*%
X114286904Y92028571D02*
X113486904Y92028571D01*
X113486904Y92219047D01*
X113525000Y92333333D01*
X113601190Y92409523D01*
X113677380Y92447619D01*
X113829761Y92485714D01*
X113944047Y92485714D01*
X114096428Y92447619D01*
X114172619Y92409523D01*
X114248809Y92333333D01*
X114286904Y92219047D01*
X114286904Y92028571D01*
X114286904Y93247619D02*
X114286904Y92790476D01*
X114286904Y93019047D02*
X113486904Y93019047D01*
X113601190Y92942857D01*
X113677380Y92866666D01*
X113715476Y92790476D01*
X113753571Y93933333D02*
X114286904Y93933333D01*
X113448809Y93742857D02*
X114020238Y93552380D01*
X114020238Y94047619D01*
%TO.C,D15*%
X133286904Y92028571D02*
X132486904Y92028571D01*
X132486904Y92219047D01*
X132525000Y92333333D01*
X132601190Y92409523D01*
X132677380Y92447619D01*
X132829761Y92485714D01*
X132944047Y92485714D01*
X133096428Y92447619D01*
X133172619Y92409523D01*
X133248809Y92333333D01*
X133286904Y92219047D01*
X133286904Y92028571D01*
X133286904Y93247619D02*
X133286904Y92790476D01*
X133286904Y93019047D02*
X132486904Y93019047D01*
X132601190Y92942857D01*
X132677380Y92866666D01*
X132715476Y92790476D01*
X132486904Y93971428D02*
X132486904Y93590476D01*
X132867857Y93552380D01*
X132829761Y93590476D01*
X132791666Y93666666D01*
X132791666Y93857142D01*
X132829761Y93933333D01*
X132867857Y93971428D01*
X132944047Y94009523D01*
X133134523Y94009523D01*
X133210714Y93971428D01*
X133248809Y93933333D01*
X133286904Y93857142D01*
X133286904Y93666666D01*
X133248809Y93590476D01*
X133210714Y93552380D01*
%TO.C,D16*%
X152286904Y92028571D02*
X151486904Y92028571D01*
X151486904Y92219047D01*
X151525000Y92333333D01*
X151601190Y92409523D01*
X151677380Y92447619D01*
X151829761Y92485714D01*
X151944047Y92485714D01*
X152096428Y92447619D01*
X152172619Y92409523D01*
X152248809Y92333333D01*
X152286904Y92219047D01*
X152286904Y92028571D01*
X152286904Y93247619D02*
X152286904Y92790476D01*
X152286904Y93019047D02*
X151486904Y93019047D01*
X151601190Y92942857D01*
X151677380Y92866666D01*
X151715476Y92790476D01*
X151486904Y93933333D02*
X151486904Y93780952D01*
X151525000Y93704761D01*
X151563095Y93666666D01*
X151677380Y93590476D01*
X151829761Y93552380D01*
X152134523Y93552380D01*
X152210714Y93590476D01*
X152248809Y93628571D01*
X152286904Y93704761D01*
X152286904Y93857142D01*
X152248809Y93933333D01*
X152210714Y93971428D01*
X152134523Y94009523D01*
X151944047Y94009523D01*
X151867857Y93971428D01*
X151829761Y93933333D01*
X151791666Y93857142D01*
X151791666Y93704761D01*
X151829761Y93628571D01*
X151867857Y93590476D01*
X151944047Y93552380D01*
%TO.C,D17*%
X171286904Y92028571D02*
X170486904Y92028571D01*
X170486904Y92219047D01*
X170525000Y92333333D01*
X170601190Y92409523D01*
X170677380Y92447619D01*
X170829761Y92485714D01*
X170944047Y92485714D01*
X171096428Y92447619D01*
X171172619Y92409523D01*
X171248809Y92333333D01*
X171286904Y92219047D01*
X171286904Y92028571D01*
X171286904Y93247619D02*
X171286904Y92790476D01*
X171286904Y93019047D02*
X170486904Y93019047D01*
X170601190Y92942857D01*
X170677380Y92866666D01*
X170715476Y92790476D01*
X170486904Y93514285D02*
X170486904Y94047619D01*
X171286904Y93704761D01*
%TO.C,D20*%
X28786904Y73028571D02*
X27986904Y73028571D01*
X27986904Y73219047D01*
X28025000Y73333333D01*
X28101190Y73409523D01*
X28177380Y73447619D01*
X28329761Y73485714D01*
X28444047Y73485714D01*
X28596428Y73447619D01*
X28672619Y73409523D01*
X28748809Y73333333D01*
X28786904Y73219047D01*
X28786904Y73028571D01*
X28063095Y73790476D02*
X28025000Y73828571D01*
X27986904Y73904761D01*
X27986904Y74095238D01*
X28025000Y74171428D01*
X28063095Y74209523D01*
X28139285Y74247619D01*
X28215476Y74247619D01*
X28329761Y74209523D01*
X28786904Y73752380D01*
X28786904Y74247619D01*
X27986904Y74742857D02*
X27986904Y74819047D01*
X28025000Y74895238D01*
X28063095Y74933333D01*
X28139285Y74971428D01*
X28291666Y75009523D01*
X28482142Y75009523D01*
X28634523Y74971428D01*
X28710714Y74933333D01*
X28748809Y74895238D01*
X28786904Y74819047D01*
X28786904Y74742857D01*
X28748809Y74666666D01*
X28710714Y74628571D01*
X28634523Y74590476D01*
X28482142Y74552380D01*
X28291666Y74552380D01*
X28139285Y74590476D01*
X28063095Y74628571D01*
X28025000Y74666666D01*
X27986904Y74742857D01*
%TO.C,D21*%
X62036904Y73028571D02*
X61236904Y73028571D01*
X61236904Y73219047D01*
X61275000Y73333333D01*
X61351190Y73409523D01*
X61427380Y73447619D01*
X61579761Y73485714D01*
X61694047Y73485714D01*
X61846428Y73447619D01*
X61922619Y73409523D01*
X61998809Y73333333D01*
X62036904Y73219047D01*
X62036904Y73028571D01*
X61313095Y73790476D02*
X61275000Y73828571D01*
X61236904Y73904761D01*
X61236904Y74095238D01*
X61275000Y74171428D01*
X61313095Y74209523D01*
X61389285Y74247619D01*
X61465476Y74247619D01*
X61579761Y74209523D01*
X62036904Y73752380D01*
X62036904Y74247619D01*
X62036904Y75009523D02*
X62036904Y74552380D01*
X62036904Y74780952D02*
X61236904Y74780952D01*
X61351190Y74704761D01*
X61427380Y74628571D01*
X61465476Y74552380D01*
%TO.C,D22*%
X85786904Y73028571D02*
X84986904Y73028571D01*
X84986904Y73219047D01*
X85025000Y73333333D01*
X85101190Y73409523D01*
X85177380Y73447619D01*
X85329761Y73485714D01*
X85444047Y73485714D01*
X85596428Y73447619D01*
X85672619Y73409523D01*
X85748809Y73333333D01*
X85786904Y73219047D01*
X85786904Y73028571D01*
X85063095Y73790476D02*
X85025000Y73828571D01*
X84986904Y73904761D01*
X84986904Y74095238D01*
X85025000Y74171428D01*
X85063095Y74209523D01*
X85139285Y74247619D01*
X85215476Y74247619D01*
X85329761Y74209523D01*
X85786904Y73752380D01*
X85786904Y74247619D01*
X85063095Y74552380D02*
X85025000Y74590476D01*
X84986904Y74666666D01*
X84986904Y74857142D01*
X85025000Y74933333D01*
X85063095Y74971428D01*
X85139285Y75009523D01*
X85215476Y75009523D01*
X85329761Y74971428D01*
X85786904Y74514285D01*
X85786904Y75009523D01*
%TO.C,D23*%
X104786904Y73028571D02*
X103986904Y73028571D01*
X103986904Y73219047D01*
X104025000Y73333333D01*
X104101190Y73409523D01*
X104177380Y73447619D01*
X104329761Y73485714D01*
X104444047Y73485714D01*
X104596428Y73447619D01*
X104672619Y73409523D01*
X104748809Y73333333D01*
X104786904Y73219047D01*
X104786904Y73028571D01*
X104063095Y73790476D02*
X104025000Y73828571D01*
X103986904Y73904761D01*
X103986904Y74095238D01*
X104025000Y74171428D01*
X104063095Y74209523D01*
X104139285Y74247619D01*
X104215476Y74247619D01*
X104329761Y74209523D01*
X104786904Y73752380D01*
X104786904Y74247619D01*
X103986904Y74514285D02*
X103986904Y75009523D01*
X104291666Y74742857D01*
X104291666Y74857142D01*
X104329761Y74933333D01*
X104367857Y74971428D01*
X104444047Y75009523D01*
X104634523Y75009523D01*
X104710714Y74971428D01*
X104748809Y74933333D01*
X104786904Y74857142D01*
X104786904Y74628571D01*
X104748809Y74552380D01*
X104710714Y74514285D01*
%TO.C,D24*%
X123786904Y73028571D02*
X122986904Y73028571D01*
X122986904Y73219047D01*
X123025000Y73333333D01*
X123101190Y73409523D01*
X123177380Y73447619D01*
X123329761Y73485714D01*
X123444047Y73485714D01*
X123596428Y73447619D01*
X123672619Y73409523D01*
X123748809Y73333333D01*
X123786904Y73219047D01*
X123786904Y73028571D01*
X123063095Y73790476D02*
X123025000Y73828571D01*
X122986904Y73904761D01*
X122986904Y74095238D01*
X123025000Y74171428D01*
X123063095Y74209523D01*
X123139285Y74247619D01*
X123215476Y74247619D01*
X123329761Y74209523D01*
X123786904Y73752380D01*
X123786904Y74247619D01*
X123253571Y74933333D02*
X123786904Y74933333D01*
X122948809Y74742857D02*
X123520238Y74552380D01*
X123520238Y75047619D01*
%TO.C,D25*%
X142786904Y73028571D02*
X141986904Y73028571D01*
X141986904Y73219047D01*
X142025000Y73333333D01*
X142101190Y73409523D01*
X142177380Y73447619D01*
X142329761Y73485714D01*
X142444047Y73485714D01*
X142596428Y73447619D01*
X142672619Y73409523D01*
X142748809Y73333333D01*
X142786904Y73219047D01*
X142786904Y73028571D01*
X142063095Y73790476D02*
X142025000Y73828571D01*
X141986904Y73904761D01*
X141986904Y74095238D01*
X142025000Y74171428D01*
X142063095Y74209523D01*
X142139285Y74247619D01*
X142215476Y74247619D01*
X142329761Y74209523D01*
X142786904Y73752380D01*
X142786904Y74247619D01*
X141986904Y74971428D02*
X141986904Y74590476D01*
X142367857Y74552380D01*
X142329761Y74590476D01*
X142291666Y74666666D01*
X142291666Y74857142D01*
X142329761Y74933333D01*
X142367857Y74971428D01*
X142444047Y75009523D01*
X142634523Y75009523D01*
X142710714Y74971428D01*
X142748809Y74933333D01*
X142786904Y74857142D01*
X142786904Y74666666D01*
X142748809Y74590476D01*
X142710714Y74552380D01*
%TO.C,D26*%
X161786904Y73028571D02*
X160986904Y73028571D01*
X160986904Y73219047D01*
X161025000Y73333333D01*
X161101190Y73409523D01*
X161177380Y73447619D01*
X161329761Y73485714D01*
X161444047Y73485714D01*
X161596428Y73447619D01*
X161672619Y73409523D01*
X161748809Y73333333D01*
X161786904Y73219047D01*
X161786904Y73028571D01*
X161063095Y73790476D02*
X161025000Y73828571D01*
X160986904Y73904761D01*
X160986904Y74095238D01*
X161025000Y74171428D01*
X161063095Y74209523D01*
X161139285Y74247619D01*
X161215476Y74247619D01*
X161329761Y74209523D01*
X161786904Y73752380D01*
X161786904Y74247619D01*
X160986904Y74933333D02*
X160986904Y74780952D01*
X161025000Y74704761D01*
X161063095Y74666666D01*
X161177380Y74590476D01*
X161329761Y74552380D01*
X161634523Y74552380D01*
X161710714Y74590476D01*
X161748809Y74628571D01*
X161786904Y74704761D01*
X161786904Y74857142D01*
X161748809Y74933333D01*
X161710714Y74971428D01*
X161634523Y75009523D01*
X161444047Y75009523D01*
X161367857Y74971428D01*
X161329761Y74933333D01*
X161291666Y74857142D01*
X161291666Y74704761D01*
X161329761Y74628571D01*
X161367857Y74590476D01*
X161444047Y74552380D01*
%TO.C,D27*%
X180786904Y73028571D02*
X179986904Y73028571D01*
X179986904Y73219047D01*
X180025000Y73333333D01*
X180101190Y73409523D01*
X180177380Y73447619D01*
X180329761Y73485714D01*
X180444047Y73485714D01*
X180596428Y73447619D01*
X180672619Y73409523D01*
X180748809Y73333333D01*
X180786904Y73219047D01*
X180786904Y73028571D01*
X180063095Y73790476D02*
X180025000Y73828571D01*
X179986904Y73904761D01*
X179986904Y74095238D01*
X180025000Y74171428D01*
X180063095Y74209523D01*
X180139285Y74247619D01*
X180215476Y74247619D01*
X180329761Y74209523D01*
X180786904Y73752380D01*
X180786904Y74247619D01*
X179986904Y74514285D02*
X179986904Y75047619D01*
X180786904Y74704761D01*
%TO.C,D28*%
X214036904Y54028571D02*
X213236904Y54028571D01*
X213236904Y54219047D01*
X213275000Y54333333D01*
X213351190Y54409523D01*
X213427380Y54447619D01*
X213579761Y54485714D01*
X213694047Y54485714D01*
X213846428Y54447619D01*
X213922619Y54409523D01*
X213998809Y54333333D01*
X214036904Y54219047D01*
X214036904Y54028571D01*
X213313095Y54790476D02*
X213275000Y54828571D01*
X213236904Y54904761D01*
X213236904Y55095238D01*
X213275000Y55171428D01*
X213313095Y55209523D01*
X213389285Y55247619D01*
X213465476Y55247619D01*
X213579761Y55209523D01*
X214036904Y54752380D01*
X214036904Y55247619D01*
X213579761Y55704761D02*
X213541666Y55628571D01*
X213503571Y55590476D01*
X213427380Y55552380D01*
X213389285Y55552380D01*
X213313095Y55590476D01*
X213275000Y55628571D01*
X213236904Y55704761D01*
X213236904Y55857142D01*
X213275000Y55933333D01*
X213313095Y55971428D01*
X213389285Y56009523D01*
X213427380Y56009523D01*
X213503571Y55971428D01*
X213541666Y55933333D01*
X213579761Y55857142D01*
X213579761Y55704761D01*
X213617857Y55628571D01*
X213655952Y55590476D01*
X213732142Y55552380D01*
X213884523Y55552380D01*
X213960714Y55590476D01*
X213998809Y55628571D01*
X214036904Y55704761D01*
X214036904Y55857142D01*
X213998809Y55933333D01*
X213960714Y55971428D01*
X213884523Y56009523D01*
X213732142Y56009523D01*
X213655952Y55971428D01*
X213617857Y55933333D01*
X213579761Y55857142D01*
%TO.C,D30*%
X28786904Y54028571D02*
X27986904Y54028571D01*
X27986904Y54219047D01*
X28025000Y54333333D01*
X28101190Y54409523D01*
X28177380Y54447619D01*
X28329761Y54485714D01*
X28444047Y54485714D01*
X28596428Y54447619D01*
X28672619Y54409523D01*
X28748809Y54333333D01*
X28786904Y54219047D01*
X28786904Y54028571D01*
X27986904Y54752380D02*
X27986904Y55247619D01*
X28291666Y54980952D01*
X28291666Y55095238D01*
X28329761Y55171428D01*
X28367857Y55209523D01*
X28444047Y55247619D01*
X28634523Y55247619D01*
X28710714Y55209523D01*
X28748809Y55171428D01*
X28786904Y55095238D01*
X28786904Y54866666D01*
X28748809Y54790476D01*
X28710714Y54752380D01*
X27986904Y55742857D02*
X27986904Y55819047D01*
X28025000Y55895238D01*
X28063095Y55933333D01*
X28139285Y55971428D01*
X28291666Y56009523D01*
X28482142Y56009523D01*
X28634523Y55971428D01*
X28710714Y55933333D01*
X28748809Y55895238D01*
X28786904Y55819047D01*
X28786904Y55742857D01*
X28748809Y55666666D01*
X28710714Y55628571D01*
X28634523Y55590476D01*
X28482142Y55552380D01*
X28291666Y55552380D01*
X28139285Y55590476D01*
X28063095Y55628571D01*
X28025000Y55666666D01*
X27986904Y55742857D01*
%TO.C,D31*%
X64536904Y54028571D02*
X63736904Y54028571D01*
X63736904Y54219047D01*
X63775000Y54333333D01*
X63851190Y54409523D01*
X63927380Y54447619D01*
X64079761Y54485714D01*
X64194047Y54485714D01*
X64346428Y54447619D01*
X64422619Y54409523D01*
X64498809Y54333333D01*
X64536904Y54219047D01*
X64536904Y54028571D01*
X63736904Y54752380D02*
X63736904Y55247619D01*
X64041666Y54980952D01*
X64041666Y55095238D01*
X64079761Y55171428D01*
X64117857Y55209523D01*
X64194047Y55247619D01*
X64384523Y55247619D01*
X64460714Y55209523D01*
X64498809Y55171428D01*
X64536904Y55095238D01*
X64536904Y54866666D01*
X64498809Y54790476D01*
X64460714Y54752380D01*
X64536904Y56009523D02*
X64536904Y55552380D01*
X64536904Y55780952D02*
X63736904Y55780952D01*
X63851190Y55704761D01*
X63927380Y55628571D01*
X63965476Y55552380D01*
%TO.C,D32*%
X90536904Y54028571D02*
X89736904Y54028571D01*
X89736904Y54219047D01*
X89775000Y54333333D01*
X89851190Y54409523D01*
X89927380Y54447619D01*
X90079761Y54485714D01*
X90194047Y54485714D01*
X90346428Y54447619D01*
X90422619Y54409523D01*
X90498809Y54333333D01*
X90536904Y54219047D01*
X90536904Y54028571D01*
X89736904Y54752380D02*
X89736904Y55247619D01*
X90041666Y54980952D01*
X90041666Y55095238D01*
X90079761Y55171428D01*
X90117857Y55209523D01*
X90194047Y55247619D01*
X90384523Y55247619D01*
X90460714Y55209523D01*
X90498809Y55171428D01*
X90536904Y55095238D01*
X90536904Y54866666D01*
X90498809Y54790476D01*
X90460714Y54752380D01*
X89813095Y55552380D02*
X89775000Y55590476D01*
X89736904Y55666666D01*
X89736904Y55857142D01*
X89775000Y55933333D01*
X89813095Y55971428D01*
X89889285Y56009523D01*
X89965476Y56009523D01*
X90079761Y55971428D01*
X90536904Y55514285D01*
X90536904Y56009523D01*
%TO.C,D33*%
X109536904Y54028571D02*
X108736904Y54028571D01*
X108736904Y54219047D01*
X108775000Y54333333D01*
X108851190Y54409523D01*
X108927380Y54447619D01*
X109079761Y54485714D01*
X109194047Y54485714D01*
X109346428Y54447619D01*
X109422619Y54409523D01*
X109498809Y54333333D01*
X109536904Y54219047D01*
X109536904Y54028571D01*
X108736904Y54752380D02*
X108736904Y55247619D01*
X109041666Y54980952D01*
X109041666Y55095238D01*
X109079761Y55171428D01*
X109117857Y55209523D01*
X109194047Y55247619D01*
X109384523Y55247619D01*
X109460714Y55209523D01*
X109498809Y55171428D01*
X109536904Y55095238D01*
X109536904Y54866666D01*
X109498809Y54790476D01*
X109460714Y54752380D01*
X108736904Y55514285D02*
X108736904Y56009523D01*
X109041666Y55742857D01*
X109041666Y55857142D01*
X109079761Y55933333D01*
X109117857Y55971428D01*
X109194047Y56009523D01*
X109384523Y56009523D01*
X109460714Y55971428D01*
X109498809Y55933333D01*
X109536904Y55857142D01*
X109536904Y55628571D01*
X109498809Y55552380D01*
X109460714Y55514285D01*
%TO.C,D34*%
X128536904Y54028571D02*
X127736904Y54028571D01*
X127736904Y54219047D01*
X127775000Y54333333D01*
X127851190Y54409523D01*
X127927380Y54447619D01*
X128079761Y54485714D01*
X128194047Y54485714D01*
X128346428Y54447619D01*
X128422619Y54409523D01*
X128498809Y54333333D01*
X128536904Y54219047D01*
X128536904Y54028571D01*
X127736904Y54752380D02*
X127736904Y55247619D01*
X128041666Y54980952D01*
X128041666Y55095238D01*
X128079761Y55171428D01*
X128117857Y55209523D01*
X128194047Y55247619D01*
X128384523Y55247619D01*
X128460714Y55209523D01*
X128498809Y55171428D01*
X128536904Y55095238D01*
X128536904Y54866666D01*
X128498809Y54790476D01*
X128460714Y54752380D01*
X128003571Y55933333D02*
X128536904Y55933333D01*
X127698809Y55742857D02*
X128270238Y55552380D01*
X128270238Y56047619D01*
%TO.C,D35*%
X147536904Y54028571D02*
X146736904Y54028571D01*
X146736904Y54219047D01*
X146775000Y54333333D01*
X146851190Y54409523D01*
X146927380Y54447619D01*
X147079761Y54485714D01*
X147194047Y54485714D01*
X147346428Y54447619D01*
X147422619Y54409523D01*
X147498809Y54333333D01*
X147536904Y54219047D01*
X147536904Y54028571D01*
X146736904Y54752380D02*
X146736904Y55247619D01*
X147041666Y54980952D01*
X147041666Y55095238D01*
X147079761Y55171428D01*
X147117857Y55209523D01*
X147194047Y55247619D01*
X147384523Y55247619D01*
X147460714Y55209523D01*
X147498809Y55171428D01*
X147536904Y55095238D01*
X147536904Y54866666D01*
X147498809Y54790476D01*
X147460714Y54752380D01*
X146736904Y55971428D02*
X146736904Y55590476D01*
X147117857Y55552380D01*
X147079761Y55590476D01*
X147041666Y55666666D01*
X147041666Y55857142D01*
X147079761Y55933333D01*
X147117857Y55971428D01*
X147194047Y56009523D01*
X147384523Y56009523D01*
X147460714Y55971428D01*
X147498809Y55933333D01*
X147536904Y55857142D01*
X147536904Y55666666D01*
X147498809Y55590476D01*
X147460714Y55552380D01*
%TO.C,D36*%
X166536904Y54028571D02*
X165736904Y54028571D01*
X165736904Y54219047D01*
X165775000Y54333333D01*
X165851190Y54409523D01*
X165927380Y54447619D01*
X166079761Y54485714D01*
X166194047Y54485714D01*
X166346428Y54447619D01*
X166422619Y54409523D01*
X166498809Y54333333D01*
X166536904Y54219047D01*
X166536904Y54028571D01*
X165736904Y54752380D02*
X165736904Y55247619D01*
X166041666Y54980952D01*
X166041666Y55095238D01*
X166079761Y55171428D01*
X166117857Y55209523D01*
X166194047Y55247619D01*
X166384523Y55247619D01*
X166460714Y55209523D01*
X166498809Y55171428D01*
X166536904Y55095238D01*
X166536904Y54866666D01*
X166498809Y54790476D01*
X166460714Y54752380D01*
X165736904Y55933333D02*
X165736904Y55780952D01*
X165775000Y55704761D01*
X165813095Y55666666D01*
X165927380Y55590476D01*
X166079761Y55552380D01*
X166384523Y55552380D01*
X166460714Y55590476D01*
X166498809Y55628571D01*
X166536904Y55704761D01*
X166536904Y55857142D01*
X166498809Y55933333D01*
X166460714Y55971428D01*
X166384523Y56009523D01*
X166194047Y56009523D01*
X166117857Y55971428D01*
X166079761Y55933333D01*
X166041666Y55857142D01*
X166041666Y55704761D01*
X166079761Y55628571D01*
X166117857Y55590476D01*
X166194047Y55552380D01*
%TO.C,D37*%
X185536904Y54028571D02*
X184736904Y54028571D01*
X184736904Y54219047D01*
X184775000Y54333333D01*
X184851190Y54409523D01*
X184927380Y54447619D01*
X185079761Y54485714D01*
X185194047Y54485714D01*
X185346428Y54447619D01*
X185422619Y54409523D01*
X185498809Y54333333D01*
X185536904Y54219047D01*
X185536904Y54028571D01*
X184736904Y54752380D02*
X184736904Y55247619D01*
X185041666Y54980952D01*
X185041666Y55095238D01*
X185079761Y55171428D01*
X185117857Y55209523D01*
X185194047Y55247619D01*
X185384523Y55247619D01*
X185460714Y55209523D01*
X185498809Y55171428D01*
X185536904Y55095238D01*
X185536904Y54866666D01*
X185498809Y54790476D01*
X185460714Y54752380D01*
X184736904Y55514285D02*
X184736904Y56047619D01*
X185536904Y55704761D01*
%TO.C,D38*%
X214036904Y35028571D02*
X213236904Y35028571D01*
X213236904Y35219047D01*
X213275000Y35333333D01*
X213351190Y35409523D01*
X213427380Y35447619D01*
X213579761Y35485714D01*
X213694047Y35485714D01*
X213846428Y35447619D01*
X213922619Y35409523D01*
X213998809Y35333333D01*
X214036904Y35219047D01*
X214036904Y35028571D01*
X213236904Y35752380D02*
X213236904Y36247619D01*
X213541666Y35980952D01*
X213541666Y36095238D01*
X213579761Y36171428D01*
X213617857Y36209523D01*
X213694047Y36247619D01*
X213884523Y36247619D01*
X213960714Y36209523D01*
X213998809Y36171428D01*
X214036904Y36095238D01*
X214036904Y35866666D01*
X213998809Y35790476D01*
X213960714Y35752380D01*
X213579761Y36704761D02*
X213541666Y36628571D01*
X213503571Y36590476D01*
X213427380Y36552380D01*
X213389285Y36552380D01*
X213313095Y36590476D01*
X213275000Y36628571D01*
X213236904Y36704761D01*
X213236904Y36857142D01*
X213275000Y36933333D01*
X213313095Y36971428D01*
X213389285Y37009523D01*
X213427380Y37009523D01*
X213503571Y36971428D01*
X213541666Y36933333D01*
X213579761Y36857142D01*
X213579761Y36704761D01*
X213617857Y36628571D01*
X213655952Y36590476D01*
X213732142Y36552380D01*
X213884523Y36552380D01*
X213960714Y36590476D01*
X213998809Y36628571D01*
X214036904Y36704761D01*
X214036904Y36857142D01*
X213998809Y36933333D01*
X213960714Y36971428D01*
X213884523Y37009523D01*
X213732142Y37009523D01*
X213655952Y36971428D01*
X213617857Y36933333D01*
X213579761Y36857142D01*
%TO.C,D40*%
X28786904Y35028571D02*
X27986904Y35028571D01*
X27986904Y35219047D01*
X28025000Y35333333D01*
X28101190Y35409523D01*
X28177380Y35447619D01*
X28329761Y35485714D01*
X28444047Y35485714D01*
X28596428Y35447619D01*
X28672619Y35409523D01*
X28748809Y35333333D01*
X28786904Y35219047D01*
X28786904Y35028571D01*
X28253571Y36171428D02*
X28786904Y36171428D01*
X27948809Y35980952D02*
X28520238Y35790476D01*
X28520238Y36285714D01*
X27986904Y36742857D02*
X27986904Y36819047D01*
X28025000Y36895238D01*
X28063095Y36933333D01*
X28139285Y36971428D01*
X28291666Y37009523D01*
X28482142Y37009523D01*
X28634523Y36971428D01*
X28710714Y36933333D01*
X28748809Y36895238D01*
X28786904Y36819047D01*
X28786904Y36742857D01*
X28748809Y36666666D01*
X28710714Y36628571D01*
X28634523Y36590476D01*
X28482142Y36552380D01*
X28291666Y36552380D01*
X28139285Y36590476D01*
X28063095Y36628571D01*
X28025000Y36666666D01*
X27986904Y36742857D01*
%TO.C,D41*%
X69286904Y35028571D02*
X68486904Y35028571D01*
X68486904Y35219047D01*
X68525000Y35333333D01*
X68601190Y35409523D01*
X68677380Y35447619D01*
X68829761Y35485714D01*
X68944047Y35485714D01*
X69096428Y35447619D01*
X69172619Y35409523D01*
X69248809Y35333333D01*
X69286904Y35219047D01*
X69286904Y35028571D01*
X68753571Y36171428D02*
X69286904Y36171428D01*
X68448809Y35980952D02*
X69020238Y35790476D01*
X69020238Y36285714D01*
X69286904Y37009523D02*
X69286904Y36552380D01*
X69286904Y36780952D02*
X68486904Y36780952D01*
X68601190Y36704761D01*
X68677380Y36628571D01*
X68715476Y36552380D01*
%TO.C,D42*%
X100036904Y35028571D02*
X99236904Y35028571D01*
X99236904Y35219047D01*
X99275000Y35333333D01*
X99351190Y35409523D01*
X99427380Y35447619D01*
X99579761Y35485714D01*
X99694047Y35485714D01*
X99846428Y35447619D01*
X99922619Y35409523D01*
X99998809Y35333333D01*
X100036904Y35219047D01*
X100036904Y35028571D01*
X99503571Y36171428D02*
X100036904Y36171428D01*
X99198809Y35980952D02*
X99770238Y35790476D01*
X99770238Y36285714D01*
X99313095Y36552380D02*
X99275000Y36590476D01*
X99236904Y36666666D01*
X99236904Y36857142D01*
X99275000Y36933333D01*
X99313095Y36971428D01*
X99389285Y37009523D01*
X99465476Y37009523D01*
X99579761Y36971428D01*
X100036904Y36514285D01*
X100036904Y37009523D01*
%TO.C,D43*%
X119036904Y35028571D02*
X118236904Y35028571D01*
X118236904Y35219047D01*
X118275000Y35333333D01*
X118351190Y35409523D01*
X118427380Y35447619D01*
X118579761Y35485714D01*
X118694047Y35485714D01*
X118846428Y35447619D01*
X118922619Y35409523D01*
X118998809Y35333333D01*
X119036904Y35219047D01*
X119036904Y35028571D01*
X118503571Y36171428D02*
X119036904Y36171428D01*
X118198809Y35980952D02*
X118770238Y35790476D01*
X118770238Y36285714D01*
X118236904Y36514285D02*
X118236904Y37009523D01*
X118541666Y36742857D01*
X118541666Y36857142D01*
X118579761Y36933333D01*
X118617857Y36971428D01*
X118694047Y37009523D01*
X118884523Y37009523D01*
X118960714Y36971428D01*
X118998809Y36933333D01*
X119036904Y36857142D01*
X119036904Y36628571D01*
X118998809Y36552380D01*
X118960714Y36514285D01*
%TO.C,D44*%
X138036904Y35028571D02*
X137236904Y35028571D01*
X137236904Y35219047D01*
X137275000Y35333333D01*
X137351190Y35409523D01*
X137427380Y35447619D01*
X137579761Y35485714D01*
X137694047Y35485714D01*
X137846428Y35447619D01*
X137922619Y35409523D01*
X137998809Y35333333D01*
X138036904Y35219047D01*
X138036904Y35028571D01*
X137503571Y36171428D02*
X138036904Y36171428D01*
X137198809Y35980952D02*
X137770238Y35790476D01*
X137770238Y36285714D01*
X137503571Y36933333D02*
X138036904Y36933333D01*
X137198809Y36742857D02*
X137770238Y36552380D01*
X137770238Y37047619D01*
%TO.C,D45*%
X157036904Y35028571D02*
X156236904Y35028571D01*
X156236904Y35219047D01*
X156275000Y35333333D01*
X156351190Y35409523D01*
X156427380Y35447619D01*
X156579761Y35485714D01*
X156694047Y35485714D01*
X156846428Y35447619D01*
X156922619Y35409523D01*
X156998809Y35333333D01*
X157036904Y35219047D01*
X157036904Y35028571D01*
X156503571Y36171428D02*
X157036904Y36171428D01*
X156198809Y35980952D02*
X156770238Y35790476D01*
X156770238Y36285714D01*
X156236904Y36971428D02*
X156236904Y36590476D01*
X156617857Y36552380D01*
X156579761Y36590476D01*
X156541666Y36666666D01*
X156541666Y36857142D01*
X156579761Y36933333D01*
X156617857Y36971428D01*
X156694047Y37009523D01*
X156884523Y37009523D01*
X156960714Y36971428D01*
X156998809Y36933333D01*
X157036904Y36857142D01*
X157036904Y36666666D01*
X156998809Y36590476D01*
X156960714Y36552380D01*
%TO.C,D46*%
X176036904Y35028571D02*
X175236904Y35028571D01*
X175236904Y35219047D01*
X175275000Y35333333D01*
X175351190Y35409523D01*
X175427380Y35447619D01*
X175579761Y35485714D01*
X175694047Y35485714D01*
X175846428Y35447619D01*
X175922619Y35409523D01*
X175998809Y35333333D01*
X176036904Y35219047D01*
X176036904Y35028571D01*
X175503571Y36171428D02*
X176036904Y36171428D01*
X175198809Y35980952D02*
X175770238Y35790476D01*
X175770238Y36285714D01*
X175236904Y36933333D02*
X175236904Y36780952D01*
X175275000Y36704761D01*
X175313095Y36666666D01*
X175427380Y36590476D01*
X175579761Y36552380D01*
X175884523Y36552380D01*
X175960714Y36590476D01*
X175998809Y36628571D01*
X176036904Y36704761D01*
X176036904Y36857142D01*
X175998809Y36933333D01*
X175960714Y36971428D01*
X175884523Y37009523D01*
X175694047Y37009523D01*
X175617857Y36971428D01*
X175579761Y36933333D01*
X175541666Y36857142D01*
X175541666Y36704761D01*
X175579761Y36628571D01*
X175617857Y36590476D01*
X175694047Y36552380D01*
%TO.C,D48*%
X214036904Y16028571D02*
X213236904Y16028571D01*
X213236904Y16219047D01*
X213275000Y16333333D01*
X213351190Y16409523D01*
X213427380Y16447619D01*
X213579761Y16485714D01*
X213694047Y16485714D01*
X213846428Y16447619D01*
X213922619Y16409523D01*
X213998809Y16333333D01*
X214036904Y16219047D01*
X214036904Y16028571D01*
X213503571Y17171428D02*
X214036904Y17171428D01*
X213198809Y16980952D02*
X213770238Y16790476D01*
X213770238Y17285714D01*
X213579761Y17704761D02*
X213541666Y17628571D01*
X213503571Y17590476D01*
X213427380Y17552380D01*
X213389285Y17552380D01*
X213313095Y17590476D01*
X213275000Y17628571D01*
X213236904Y17704761D01*
X213236904Y17857142D01*
X213275000Y17933333D01*
X213313095Y17971428D01*
X213389285Y18009523D01*
X213427380Y18009523D01*
X213503571Y17971428D01*
X213541666Y17933333D01*
X213579761Y17857142D01*
X213579761Y17704761D01*
X213617857Y17628571D01*
X213655952Y17590476D01*
X213732142Y17552380D01*
X213884523Y17552380D01*
X213960714Y17590476D01*
X213998809Y17628571D01*
X214036904Y17704761D01*
X214036904Y17857142D01*
X213998809Y17933333D01*
X213960714Y17971428D01*
X213884523Y18009523D01*
X213732142Y18009523D01*
X213655952Y17971428D01*
X213617857Y17933333D01*
X213579761Y17857142D01*
%TO.C,D50*%
X28786904Y16028571D02*
X27986904Y16028571D01*
X27986904Y16219047D01*
X28025000Y16333333D01*
X28101190Y16409523D01*
X28177380Y16447619D01*
X28329761Y16485714D01*
X28444047Y16485714D01*
X28596428Y16447619D01*
X28672619Y16409523D01*
X28748809Y16333333D01*
X28786904Y16219047D01*
X28786904Y16028571D01*
X27986904Y17209523D02*
X27986904Y16828571D01*
X28367857Y16790476D01*
X28329761Y16828571D01*
X28291666Y16904761D01*
X28291666Y17095238D01*
X28329761Y17171428D01*
X28367857Y17209523D01*
X28444047Y17247619D01*
X28634523Y17247619D01*
X28710714Y17209523D01*
X28748809Y17171428D01*
X28786904Y17095238D01*
X28786904Y16904761D01*
X28748809Y16828571D01*
X28710714Y16790476D01*
X27986904Y17742857D02*
X27986904Y17819047D01*
X28025000Y17895238D01*
X28063095Y17933333D01*
X28139285Y17971428D01*
X28291666Y18009523D01*
X28482142Y18009523D01*
X28634523Y17971428D01*
X28710714Y17933333D01*
X28748809Y17895238D01*
X28786904Y17819047D01*
X28786904Y17742857D01*
X28748809Y17666666D01*
X28710714Y17628571D01*
X28634523Y17590476D01*
X28482142Y17552380D01*
X28291666Y17552380D01*
X28139285Y17590476D01*
X28063095Y17628571D01*
X28025000Y17666666D01*
X27986904Y17742857D01*
%TO.C,D51*%
X59786904Y16028571D02*
X58986904Y16028571D01*
X58986904Y16219047D01*
X59025000Y16333333D01*
X59101190Y16409523D01*
X59177380Y16447619D01*
X59329761Y16485714D01*
X59444047Y16485714D01*
X59596428Y16447619D01*
X59672619Y16409523D01*
X59748809Y16333333D01*
X59786904Y16219047D01*
X59786904Y16028571D01*
X58986904Y17209523D02*
X58986904Y16828571D01*
X59367857Y16790476D01*
X59329761Y16828571D01*
X59291666Y16904761D01*
X59291666Y17095238D01*
X59329761Y17171428D01*
X59367857Y17209523D01*
X59444047Y17247619D01*
X59634523Y17247619D01*
X59710714Y17209523D01*
X59748809Y17171428D01*
X59786904Y17095238D01*
X59786904Y16904761D01*
X59748809Y16828571D01*
X59710714Y16790476D01*
X59786904Y18009523D02*
X59786904Y17552380D01*
X59786904Y17780952D02*
X58986904Y17780952D01*
X59101190Y17704761D01*
X59177380Y17628571D01*
X59215476Y17552380D01*
%TO.C,D52*%
X83536904Y16028571D02*
X82736904Y16028571D01*
X82736904Y16219047D01*
X82775000Y16333333D01*
X82851190Y16409523D01*
X82927380Y16447619D01*
X83079761Y16485714D01*
X83194047Y16485714D01*
X83346428Y16447619D01*
X83422619Y16409523D01*
X83498809Y16333333D01*
X83536904Y16219047D01*
X83536904Y16028571D01*
X82736904Y17209523D02*
X82736904Y16828571D01*
X83117857Y16790476D01*
X83079761Y16828571D01*
X83041666Y16904761D01*
X83041666Y17095238D01*
X83079761Y17171428D01*
X83117857Y17209523D01*
X83194047Y17247619D01*
X83384523Y17247619D01*
X83460714Y17209523D01*
X83498809Y17171428D01*
X83536904Y17095238D01*
X83536904Y16904761D01*
X83498809Y16828571D01*
X83460714Y16790476D01*
X82813095Y17552380D02*
X82775000Y17590476D01*
X82736904Y17666666D01*
X82736904Y17857142D01*
X82775000Y17933333D01*
X82813095Y17971428D01*
X82889285Y18009523D01*
X82965476Y18009523D01*
X83079761Y17971428D01*
X83536904Y17514285D01*
X83536904Y18009523D01*
%TO.C,D53*%
X107286904Y16028571D02*
X106486904Y16028571D01*
X106486904Y16219047D01*
X106525000Y16333333D01*
X106601190Y16409523D01*
X106677380Y16447619D01*
X106829761Y16485714D01*
X106944047Y16485714D01*
X107096428Y16447619D01*
X107172619Y16409523D01*
X107248809Y16333333D01*
X107286904Y16219047D01*
X107286904Y16028571D01*
X106486904Y17209523D02*
X106486904Y16828571D01*
X106867857Y16790476D01*
X106829761Y16828571D01*
X106791666Y16904761D01*
X106791666Y17095238D01*
X106829761Y17171428D01*
X106867857Y17209523D01*
X106944047Y17247619D01*
X107134523Y17247619D01*
X107210714Y17209523D01*
X107248809Y17171428D01*
X107286904Y17095238D01*
X107286904Y16904761D01*
X107248809Y16828571D01*
X107210714Y16790476D01*
X106486904Y17514285D02*
X106486904Y18009523D01*
X106791666Y17742857D01*
X106791666Y17857142D01*
X106829761Y17933333D01*
X106867857Y17971428D01*
X106944047Y18009523D01*
X107134523Y18009523D01*
X107210714Y17971428D01*
X107248809Y17933333D01*
X107286904Y17857142D01*
X107286904Y17628571D01*
X107248809Y17552380D01*
X107210714Y17514285D01*
%TO.C,D54*%
X145286904Y16028571D02*
X144486904Y16028571D01*
X144486904Y16219047D01*
X144525000Y16333333D01*
X144601190Y16409523D01*
X144677380Y16447619D01*
X144829761Y16485714D01*
X144944047Y16485714D01*
X145096428Y16447619D01*
X145172619Y16409523D01*
X145248809Y16333333D01*
X145286904Y16219047D01*
X145286904Y16028571D01*
X144486904Y17209523D02*
X144486904Y16828571D01*
X144867857Y16790476D01*
X144829761Y16828571D01*
X144791666Y16904761D01*
X144791666Y17095238D01*
X144829761Y17171428D01*
X144867857Y17209523D01*
X144944047Y17247619D01*
X145134523Y17247619D01*
X145210714Y17209523D01*
X145248809Y17171428D01*
X145286904Y17095238D01*
X145286904Y16904761D01*
X145248809Y16828571D01*
X145210714Y16790476D01*
X144753571Y17933333D02*
X145286904Y17933333D01*
X144448809Y17742857D02*
X145020238Y17552380D01*
X145020238Y18047619D01*
%TD*%
M02*
