%TF.GenerationSoftware,KiCad,Pcbnew,(5.1.10)-1*%
%TF.CreationDate,2021-10-14T07:24:40+09:00*%
%TF.ProjectId,G_One_PCB,475f4f6e-655f-4504-9342-2e6b69636164,rev?*%
%TF.SameCoordinates,Original*%
%TF.FileFunction,Copper,L2,Bot*%
%TF.FilePolarity,Positive*%
%FSLAX46Y46*%
G04 Gerber Fmt 4.6, Leading zero omitted, Abs format (unit mm)*
G04 Created by KiCad (PCBNEW (5.1.10)-1) date 2021-10-14 07:24:40*
%MOMM*%
%LPD*%
G01*
G04 APERTURE LIST*
%TA.AperFunction,ComponentPad*%
%ADD10C,6.400000*%
%TD*%
%TA.AperFunction,ComponentPad*%
%ADD11C,1.879600*%
%TD*%
%TA.AperFunction,ComponentPad*%
%ADD12R,1.600000X1.600000*%
%TD*%
%TA.AperFunction,ComponentPad*%
%ADD13C,1.600000*%
%TD*%
%TA.AperFunction,ViaPad*%
%ADD14C,1.200000*%
%TD*%
%TA.AperFunction,Conductor*%
%ADD15C,0.600000*%
%TD*%
G04 APERTURE END LIST*
D10*
%TO.P,REF\u002A\u002A,1*%
%TO.N,N/C*%
X215130000Y4120000D03*
%TD*%
%TO.P,REF\u002A\u002A,1*%
%TO.N,N/C*%
X215130000Y129630000D03*
%TD*%
%TO.P,REF\u002A\u002A,1*%
%TO.N,N/C*%
X4120000Y4120000D03*
%TD*%
%TO.P,REF\u002A\u002A,1*%
%TO.N,N/C*%
X4120000Y129630000D03*
%TD*%
%TO.P,K28(IoT0)1,2*%
%TO.N,Net-(D28-Pad2)*%
%TA.AperFunction,ComponentPad*%
G36*
G01*
X203503171Y59585691D02*
X203542619Y60164347D01*
G75*
G02*
X204874743Y61326433I1247105J-85019D01*
G01*
X204874743Y61326433D01*
G75*
G02*
X206036829Y59994309I-85019J-1247105D01*
G01*
X205997381Y59415653D01*
G75*
G02*
X204665257Y58253567I-1247105J85019D01*
G01*
X204665257Y58253567D01*
G75*
G02*
X203503171Y59585691I85019J1247105D01*
G01*
G37*
%TD.AperFunction*%
%TO.P,K28(IoT0)1,1*%
%TO.N,/col8*%
%TA.AperFunction,ComponentPad*%
G36*
G01*
X197336299Y58242810D02*
X198545223Y60140440D01*
G75*
G02*
X200271087Y60523054I1054239J-671625D01*
G01*
X200271087Y60523054D01*
G75*
G02*
X200653701Y58797190I-671625J-1054239D01*
G01*
X199444777Y56899560D01*
G75*
G02*
X197718913Y56516946I-1054239J671625D01*
G01*
X197718913Y56516946D01*
G75*
G02*
X197336299Y58242810I671625J1054239D01*
G01*
G37*
%TD.AperFunction*%
%TD*%
D11*
%TO.P,B0,1*%
%TO.N,Net-(B0-Pad1)*%
X192380000Y97700000D03*
%TO.P,B0,2*%
%TO.N,/col0*%
X192380000Y95160000D03*
%TO.P,B0,3*%
%TO.N,Net-(B0-Pad3)*%
X192380000Y92620000D03*
%TO.P,B0,4*%
%TO.N,Net-(B0-Pad4)*%
X192380000Y90080000D03*
%TO.P,B0,5*%
%TO.N,/col1*%
X192380000Y87540000D03*
%TO.P,B0,6*%
%TO.N,/col2*%
X192380000Y85000000D03*
%TO.P,B0,7*%
%TO.N,/col3*%
X192380000Y82460000D03*
%TO.P,B0,8*%
%TO.N,/col4*%
X192380000Y79920000D03*
%TO.P,B0,9*%
%TO.N,/col5*%
X192380000Y77380000D03*
%TO.P,B0,10*%
%TO.N,/col6*%
X192380000Y74840000D03*
%TO.P,B0,11*%
%TO.N,/col7*%
X192380000Y72300000D03*
%TO.P,B0,12*%
%TO.N,/col8*%
X192380000Y69760000D03*
%TO.P,B0,13*%
%TO.N,/row5*%
X207620000Y69760000D03*
%TO.P,B0,14*%
%TO.N,/row4*%
X207620000Y72300000D03*
%TO.P,B0,15*%
%TO.N,/row3*%
X207620000Y74840000D03*
%TO.P,B0,16*%
%TO.N,/row2*%
X207620000Y77380000D03*
%TO.P,B0,17*%
%TO.N,/row1*%
X207620000Y79920000D03*
%TO.P,B0,18*%
%TO.N,/row0*%
X207620000Y82460000D03*
%TO.P,B0,19*%
%TO.N,Net-(B0-Pad19)*%
X207620000Y85000000D03*
%TO.P,B0,20*%
%TO.N,Net-(B0-Pad20)*%
X207620000Y87540000D03*
%TO.P,B0,21*%
%TO.N,Net-(B0-Pad21)*%
X207620000Y90080000D03*
%TO.P,B0,22*%
%TO.N,Net-(B0-Pad22)*%
X207620000Y92620000D03*
%TO.P,B0,23*%
%TO.N,Net-(B0-Pad23)*%
X207620000Y95160000D03*
%TO.P,B0,24*%
%TO.N,Net-(B0-Pad24)*%
X207620000Y97700000D03*
%TD*%
D12*
%TO.P,D1,1*%
%TO.N,/row0*%
X55000000Y112850000D03*
D13*
%TO.P,D1,2*%
%TO.N,Net-(D1-Pad2)*%
X55000000Y120650000D03*
%TD*%
%TO.P,D2,2*%
%TO.N,Net-(D2-Pad2)*%
X83500000Y120650000D03*
D12*
%TO.P,D2,1*%
%TO.N,/row0*%
X83500000Y112850000D03*
%TD*%
%TO.P,D3,1*%
%TO.N,/row0*%
X102500000Y112850000D03*
D13*
%TO.P,D3,2*%
%TO.N,Net-(D3-Pad2)*%
X102500000Y120650000D03*
%TD*%
%TO.P,D4,2*%
%TO.N,Net-(D4-Pad2)*%
X121500000Y120650000D03*
D12*
%TO.P,D4,1*%
%TO.N,/row0*%
X121500000Y112850000D03*
%TD*%
%TO.P,D5,1*%
%TO.N,/row0*%
X140500000Y112850000D03*
D13*
%TO.P,D5,2*%
%TO.N,Net-(D5-Pad2)*%
X140500000Y120650000D03*
%TD*%
D12*
%TO.P,D7,1*%
%TO.N,/row0*%
X169000000Y112850000D03*
D13*
%TO.P,D7,2*%
%TO.N,Net-(D7-Pad2)*%
X169000000Y120650000D03*
%TD*%
%TO.P,D10,2*%
%TO.N,Net-(D10-Pad2)*%
X26500000Y96900000D03*
D12*
%TO.P,D10,1*%
%TO.N,/row1*%
X26500000Y89100000D03*
%TD*%
%TO.P,D11,1*%
%TO.N,/row1*%
X55000000Y89100000D03*
D13*
%TO.P,D11,2*%
%TO.N,Net-(D11-Pad2)*%
X55000000Y96900000D03*
%TD*%
%TO.P,D12,2*%
%TO.N,Net-(D12-Pad2)*%
X74000000Y96900000D03*
D12*
%TO.P,D12,1*%
%TO.N,/row1*%
X74000000Y89100000D03*
%TD*%
D13*
%TO.P,D13,2*%
%TO.N,Net-(D13-Pad2)*%
X93000000Y96900000D03*
D12*
%TO.P,D13,1*%
%TO.N,/row1*%
X93000000Y89100000D03*
%TD*%
%TO.P,D14,1*%
%TO.N,/row1*%
X112000000Y89100000D03*
D13*
%TO.P,D14,2*%
%TO.N,Net-(D14-Pad2)*%
X112000000Y96900000D03*
%TD*%
%TO.P,D15,2*%
%TO.N,Net-(D15-Pad2)*%
X131000000Y96900000D03*
D12*
%TO.P,D15,1*%
%TO.N,/row1*%
X131000000Y89100000D03*
%TD*%
%TO.P,D16,1*%
%TO.N,/row1*%
X150000000Y89100000D03*
D13*
%TO.P,D16,2*%
%TO.N,Net-(D16-Pad2)*%
X150000000Y96900000D03*
%TD*%
%TO.P,D17,2*%
%TO.N,Net-(D17-Pad2)*%
X169000000Y96900000D03*
D12*
%TO.P,D17,1*%
%TO.N,/row1*%
X169000000Y89100000D03*
%TD*%
%TO.P,D20,1*%
%TO.N,/row2*%
X26500000Y70100000D03*
D13*
%TO.P,D20,2*%
%TO.N,Net-(D20-Pad2)*%
X26500000Y77900000D03*
%TD*%
%TO.P,D21,2*%
%TO.N,Net-(D21-Pad2)*%
X59750000Y77900000D03*
D12*
%TO.P,D21,1*%
%TO.N,/row2*%
X59750000Y70100000D03*
%TD*%
%TO.P,D22,1*%
%TO.N,/row2*%
X83500000Y70100000D03*
D13*
%TO.P,D22,2*%
%TO.N,Net-(D22-Pad2)*%
X83500000Y77900000D03*
%TD*%
%TO.P,D23,2*%
%TO.N,Net-(D23-Pad2)*%
X102500000Y77900000D03*
D12*
%TO.P,D23,1*%
%TO.N,/row2*%
X102500000Y70100000D03*
%TD*%
%TO.P,D24,1*%
%TO.N,/row2*%
X121500000Y70100000D03*
D13*
%TO.P,D24,2*%
%TO.N,Net-(D24-Pad2)*%
X121500000Y77900000D03*
%TD*%
%TO.P,D25,2*%
%TO.N,Net-(D25-Pad2)*%
X140500000Y77900000D03*
D12*
%TO.P,D25,1*%
%TO.N,/row2*%
X140500000Y70100000D03*
%TD*%
%TO.P,D26,1*%
%TO.N,/row2*%
X159500000Y70100000D03*
D13*
%TO.P,D26,2*%
%TO.N,Net-(D26-Pad2)*%
X159500000Y77900000D03*
%TD*%
%TO.P,D27,2*%
%TO.N,Net-(D27-Pad2)*%
X178500000Y77900000D03*
D12*
%TO.P,D27,1*%
%TO.N,/row2*%
X178500000Y70100000D03*
%TD*%
%TO.P,D28,1*%
%TO.N,/row2*%
X211750000Y51100000D03*
D13*
%TO.P,D28,2*%
%TO.N,Net-(D28-Pad2)*%
X211750000Y58900000D03*
%TD*%
D12*
%TO.P,D30,1*%
%TO.N,/row3*%
X26500000Y51100000D03*
D13*
%TO.P,D30,2*%
%TO.N,Net-(D30-Pad2)*%
X26500000Y58900000D03*
%TD*%
D12*
%TO.P,D31,1*%
%TO.N,/row3*%
X62250000Y51100000D03*
D13*
%TO.P,D31,2*%
%TO.N,Net-(D31-Pad2)*%
X62250000Y58900000D03*
%TD*%
%TO.P,D32,2*%
%TO.N,Net-(D32-Pad2)*%
X88250000Y58900000D03*
D12*
%TO.P,D32,1*%
%TO.N,/row3*%
X88250000Y51100000D03*
%TD*%
%TO.P,D33,1*%
%TO.N,/row3*%
X107250000Y51100000D03*
D13*
%TO.P,D33,2*%
%TO.N,Net-(D33-Pad2)*%
X107250000Y58900000D03*
%TD*%
%TO.P,D34,2*%
%TO.N,Net-(D34-Pad2)*%
X126250000Y58900000D03*
D12*
%TO.P,D34,1*%
%TO.N,/row3*%
X126250000Y51100000D03*
%TD*%
%TO.P,D35,1*%
%TO.N,/row3*%
X145250000Y51100000D03*
D13*
%TO.P,D35,2*%
%TO.N,Net-(D35-Pad2)*%
X145250000Y58900000D03*
%TD*%
D12*
%TO.P,D36,1*%
%TO.N,/row3*%
X164250000Y51100000D03*
D13*
%TO.P,D36,2*%
%TO.N,Net-(D36-Pad2)*%
X164250000Y58900000D03*
%TD*%
%TO.P,D37,2*%
%TO.N,Net-(D37-Pad2)*%
X183250000Y58900000D03*
D12*
%TO.P,D37,1*%
%TO.N,/row3*%
X183250000Y51100000D03*
%TD*%
%TO.P,D38,1*%
%TO.N,/row3*%
X211750000Y32100000D03*
D13*
%TO.P,D38,2*%
%TO.N,Net-(D38-Pad2)*%
X211750000Y39900000D03*
%TD*%
%TO.P,D40,2*%
%TO.N,Net-(D40-Pad2)*%
X26500000Y39900000D03*
D12*
%TO.P,D40,1*%
%TO.N,/row4*%
X26500000Y32100000D03*
%TD*%
D13*
%TO.P,D41,2*%
%TO.N,Net-(D41-Pad2)*%
X67000000Y39900000D03*
D12*
%TO.P,D41,1*%
%TO.N,/row4*%
X67000000Y32100000D03*
%TD*%
%TO.P,D42,1*%
%TO.N,/row4*%
X97750000Y32100000D03*
D13*
%TO.P,D42,2*%
%TO.N,Net-(D42-Pad2)*%
X97750000Y39900000D03*
%TD*%
%TO.P,D43,2*%
%TO.N,Net-(D43-Pad2)*%
X116750000Y39900000D03*
D12*
%TO.P,D43,1*%
%TO.N,/row4*%
X116750000Y32100000D03*
%TD*%
%TO.P,D44,1*%
%TO.N,/row4*%
X135750000Y32100000D03*
D13*
%TO.P,D44,2*%
%TO.N,Net-(D44-Pad2)*%
X135750000Y39900000D03*
%TD*%
%TO.P,D45,2*%
%TO.N,Net-(D45-Pad2)*%
X154750000Y39900000D03*
D12*
%TO.P,D45,1*%
%TO.N,/row4*%
X154750000Y32100000D03*
%TD*%
D13*
%TO.P,D46,2*%
%TO.N,Net-(D46-Pad2)*%
X173750000Y39900000D03*
D12*
%TO.P,D46,1*%
%TO.N,/row4*%
X173750000Y32100000D03*
%TD*%
D13*
%TO.P,D48,2*%
%TO.N,Net-(D48-Pad2)*%
X211750000Y20900000D03*
D12*
%TO.P,D48,1*%
%TO.N,/row4*%
X211750000Y13100000D03*
%TD*%
%TO.P,D50,1*%
%TO.N,/row5*%
X26500000Y13100000D03*
D13*
%TO.P,D50,2*%
%TO.N,Net-(D50-Pad2)*%
X26500000Y20900000D03*
%TD*%
D12*
%TO.P,D51,1*%
%TO.N,/row5*%
X57500000Y13100000D03*
D13*
%TO.P,D51,2*%
%TO.N,Net-(D51-Pad2)*%
X57500000Y20900000D03*
%TD*%
%TO.P,D52,2*%
%TO.N,Net-(D52-Pad2)*%
X81250000Y20900000D03*
D12*
%TO.P,D52,1*%
%TO.N,/row5*%
X81250000Y13100000D03*
%TD*%
D13*
%TO.P,D53,2*%
%TO.N,Net-(D53-Pad2)*%
X105000000Y20900000D03*
D12*
%TO.P,D53,1*%
%TO.N,/row5*%
X105000000Y13100000D03*
%TD*%
%TO.P,D54,1*%
%TO.N,/row5*%
X143000000Y13100000D03*
D13*
%TO.P,D54,2*%
%TO.N,Net-(D54-Pad2)*%
X143000000Y20900000D03*
%TD*%
%TO.P,K01(ESC)1,2*%
%TO.N,Net-(D1-Pad2)*%
%TA.AperFunction,ComponentPad*%
G36*
G01*
X46753171Y121335691D02*
X46792619Y121914347D01*
G75*
G02*
X48124743Y123076433I1247105J-85019D01*
G01*
X48124743Y123076433D01*
G75*
G02*
X49286829Y121744309I-85019J-1247105D01*
G01*
X49247381Y121165653D01*
G75*
G02*
X47915257Y120003567I-1247105J85019D01*
G01*
X47915257Y120003567D01*
G75*
G02*
X46753171Y121335691I85019J1247105D01*
G01*
G37*
%TD.AperFunction*%
%TO.P,K01(ESC)1,1*%
%TO.N,/col1*%
%TA.AperFunction,ComponentPad*%
G36*
G01*
X40586299Y119992810D02*
X41795223Y121890440D01*
G75*
G02*
X43521087Y122273054I1054239J-671625D01*
G01*
X43521087Y122273054D01*
G75*
G02*
X43903701Y120547190I-671625J-1054239D01*
G01*
X42694777Y118649560D01*
G75*
G02*
X40968913Y118266946I-1054239J671625D01*
G01*
X40968913Y118266946D01*
G75*
G02*
X40586299Y119992810I671625J1054239D01*
G01*
G37*
%TD.AperFunction*%
%TD*%
%TO.P,K02(F1)1,2*%
%TO.N,Net-(D2-Pad2)*%
%TA.AperFunction,ComponentPad*%
G36*
G01*
X75253171Y121335691D02*
X75292619Y121914347D01*
G75*
G02*
X76624743Y123076433I1247105J-85019D01*
G01*
X76624743Y123076433D01*
G75*
G02*
X77786829Y121744309I-85019J-1247105D01*
G01*
X77747381Y121165653D01*
G75*
G02*
X76415257Y120003567I-1247105J85019D01*
G01*
X76415257Y120003567D01*
G75*
G02*
X75253171Y121335691I85019J1247105D01*
G01*
G37*
%TD.AperFunction*%
%TO.P,K02(F1)1,1*%
%TO.N,/col2*%
%TA.AperFunction,ComponentPad*%
G36*
G01*
X69086299Y119992810D02*
X70295223Y121890440D01*
G75*
G02*
X72021087Y122273054I1054239J-671625D01*
G01*
X72021087Y122273054D01*
G75*
G02*
X72403701Y120547190I-671625J-1054239D01*
G01*
X71194777Y118649560D01*
G75*
G02*
X69468913Y118266946I-1054239J671625D01*
G01*
X69468913Y118266946D01*
G75*
G02*
X69086299Y119992810I671625J1054239D01*
G01*
G37*
%TD.AperFunction*%
%TD*%
%TO.P,K03(F2)1,1*%
%TO.N,/col3*%
%TA.AperFunction,ComponentPad*%
G36*
G01*
X88086299Y119992810D02*
X89295223Y121890440D01*
G75*
G02*
X91021087Y122273054I1054239J-671625D01*
G01*
X91021087Y122273054D01*
G75*
G02*
X91403701Y120547190I-671625J-1054239D01*
G01*
X90194777Y118649560D01*
G75*
G02*
X88468913Y118266946I-1054239J671625D01*
G01*
X88468913Y118266946D01*
G75*
G02*
X88086299Y119992810I671625J1054239D01*
G01*
G37*
%TD.AperFunction*%
%TO.P,K03(F2)1,2*%
%TO.N,Net-(D3-Pad2)*%
%TA.AperFunction,ComponentPad*%
G36*
G01*
X94253171Y121335691D02*
X94292619Y121914347D01*
G75*
G02*
X95624743Y123076433I1247105J-85019D01*
G01*
X95624743Y123076433D01*
G75*
G02*
X96786829Y121744309I-85019J-1247105D01*
G01*
X96747381Y121165653D01*
G75*
G02*
X95415257Y120003567I-1247105J85019D01*
G01*
X95415257Y120003567D01*
G75*
G02*
X94253171Y121335691I85019J1247105D01*
G01*
G37*
%TD.AperFunction*%
%TD*%
%TO.P,K04(F3)1,1*%
%TO.N,/col4*%
%TA.AperFunction,ComponentPad*%
G36*
G01*
X107086299Y119992810D02*
X108295223Y121890440D01*
G75*
G02*
X110021087Y122273054I1054239J-671625D01*
G01*
X110021087Y122273054D01*
G75*
G02*
X110403701Y120547190I-671625J-1054239D01*
G01*
X109194777Y118649560D01*
G75*
G02*
X107468913Y118266946I-1054239J671625D01*
G01*
X107468913Y118266946D01*
G75*
G02*
X107086299Y119992810I671625J1054239D01*
G01*
G37*
%TD.AperFunction*%
%TO.P,K04(F3)1,2*%
%TO.N,Net-(D4-Pad2)*%
%TA.AperFunction,ComponentPad*%
G36*
G01*
X113253171Y121335691D02*
X113292619Y121914347D01*
G75*
G02*
X114624743Y123076433I1247105J-85019D01*
G01*
X114624743Y123076433D01*
G75*
G02*
X115786829Y121744309I-85019J-1247105D01*
G01*
X115747381Y121165653D01*
G75*
G02*
X114415257Y120003567I-1247105J85019D01*
G01*
X114415257Y120003567D01*
G75*
G02*
X113253171Y121335691I85019J1247105D01*
G01*
G37*
%TD.AperFunction*%
%TD*%
%TO.P,K05(F4)1,2*%
%TO.N,Net-(D5-Pad2)*%
%TA.AperFunction,ComponentPad*%
G36*
G01*
X132253171Y121335691D02*
X132292619Y121914347D01*
G75*
G02*
X133624743Y123076433I1247105J-85019D01*
G01*
X133624743Y123076433D01*
G75*
G02*
X134786829Y121744309I-85019J-1247105D01*
G01*
X134747381Y121165653D01*
G75*
G02*
X133415257Y120003567I-1247105J85019D01*
G01*
X133415257Y120003567D01*
G75*
G02*
X132253171Y121335691I85019J1247105D01*
G01*
G37*
%TD.AperFunction*%
%TO.P,K05(F4)1,1*%
%TO.N,/col5*%
%TA.AperFunction,ComponentPad*%
G36*
G01*
X126086299Y119992810D02*
X127295223Y121890440D01*
G75*
G02*
X129021087Y122273054I1054239J-671625D01*
G01*
X129021087Y122273054D01*
G75*
G02*
X129403701Y120547190I-671625J-1054239D01*
G01*
X128194777Y118649560D01*
G75*
G02*
X126468913Y118266946I-1054239J671625D01*
G01*
X126468913Y118266946D01*
G75*
G02*
X126086299Y119992810I671625J1054239D01*
G01*
G37*
%TD.AperFunction*%
%TD*%
%TO.P,K07(F5)1,1*%
%TO.N,/col7*%
%TA.AperFunction,ComponentPad*%
G36*
G01*
X154586299Y119992810D02*
X155795223Y121890440D01*
G75*
G02*
X157521087Y122273054I1054239J-671625D01*
G01*
X157521087Y122273054D01*
G75*
G02*
X157903701Y120547190I-671625J-1054239D01*
G01*
X156694777Y118649560D01*
G75*
G02*
X154968913Y118266946I-1054239J671625D01*
G01*
X154968913Y118266946D01*
G75*
G02*
X154586299Y119992810I671625J1054239D01*
G01*
G37*
%TD.AperFunction*%
%TO.P,K07(F5)1,2*%
%TO.N,Net-(D7-Pad2)*%
%TA.AperFunction,ComponentPad*%
G36*
G01*
X160753171Y121335691D02*
X160792619Y121914347D01*
G75*
G02*
X162124743Y123076433I1247105J-85019D01*
G01*
X162124743Y123076433D01*
G75*
G02*
X163286829Y121744309I-85019J-1247105D01*
G01*
X163247381Y121165653D01*
G75*
G02*
X161915257Y120003567I-1247105J85019D01*
G01*
X161915257Y120003567D01*
G75*
G02*
X160753171Y121335691I85019J1247105D01*
G01*
G37*
%TD.AperFunction*%
%TD*%
%TO.P,K10(M0)1,1*%
%TO.N,/col0*%
%TA.AperFunction,ComponentPad*%
G36*
G01*
X12086299Y96242810D02*
X13295223Y98140440D01*
G75*
G02*
X15021087Y98523054I1054239J-671625D01*
G01*
X15021087Y98523054D01*
G75*
G02*
X15403701Y96797190I-671625J-1054239D01*
G01*
X14194777Y94899560D01*
G75*
G02*
X12468913Y94516946I-1054239J671625D01*
G01*
X12468913Y94516946D01*
G75*
G02*
X12086299Y96242810I671625J1054239D01*
G01*
G37*
%TD.AperFunction*%
%TO.P,K10(M0)1,2*%
%TO.N,Net-(D10-Pad2)*%
%TA.AperFunction,ComponentPad*%
G36*
G01*
X18253171Y97585691D02*
X18292619Y98164347D01*
G75*
G02*
X19624743Y99326433I1247105J-85019D01*
G01*
X19624743Y99326433D01*
G75*
G02*
X20786829Y97994309I-85019J-1247105D01*
G01*
X20747381Y97415653D01*
G75*
G02*
X19415257Y96253567I-1247105J85019D01*
G01*
X19415257Y96253567D01*
G75*
G02*
X18253171Y97585691I85019J1247105D01*
G01*
G37*
%TD.AperFunction*%
%TD*%
%TO.P,K11(_`_)1,1*%
%TO.N,/col1*%
%TA.AperFunction,ComponentPad*%
G36*
G01*
X40586299Y96242810D02*
X41795223Y98140440D01*
G75*
G02*
X43521087Y98523054I1054239J-671625D01*
G01*
X43521087Y98523054D01*
G75*
G02*
X43903701Y96797190I-671625J-1054239D01*
G01*
X42694777Y94899560D01*
G75*
G02*
X40968913Y94516946I-1054239J671625D01*
G01*
X40968913Y94516946D01*
G75*
G02*
X40586299Y96242810I671625J1054239D01*
G01*
G37*
%TD.AperFunction*%
%TO.P,K11(_`_)1,2*%
%TO.N,Net-(D11-Pad2)*%
%TA.AperFunction,ComponentPad*%
G36*
G01*
X46753171Y97585691D02*
X46792619Y98164347D01*
G75*
G02*
X48124743Y99326433I1247105J-85019D01*
G01*
X48124743Y99326433D01*
G75*
G02*
X49286829Y97994309I-85019J-1247105D01*
G01*
X49247381Y97415653D01*
G75*
G02*
X47915257Y96253567I-1247105J85019D01*
G01*
X47915257Y96253567D01*
G75*
G02*
X46753171Y97585691I85019J1247105D01*
G01*
G37*
%TD.AperFunction*%
%TD*%
%TO.P,K12(1!)1,2*%
%TO.N,Net-(D12-Pad2)*%
%TA.AperFunction,ComponentPad*%
G36*
G01*
X65753171Y97585691D02*
X65792619Y98164347D01*
G75*
G02*
X67124743Y99326433I1247105J-85019D01*
G01*
X67124743Y99326433D01*
G75*
G02*
X68286829Y97994309I-85019J-1247105D01*
G01*
X68247381Y97415653D01*
G75*
G02*
X66915257Y96253567I-1247105J85019D01*
G01*
X66915257Y96253567D01*
G75*
G02*
X65753171Y97585691I85019J1247105D01*
G01*
G37*
%TD.AperFunction*%
%TO.P,K12(1!)1,1*%
%TO.N,/col2*%
%TA.AperFunction,ComponentPad*%
G36*
G01*
X59586299Y96242810D02*
X60795223Y98140440D01*
G75*
G02*
X62521087Y98523054I1054239J-671625D01*
G01*
X62521087Y98523054D01*
G75*
G02*
X62903701Y96797190I-671625J-1054239D01*
G01*
X61694777Y94899560D01*
G75*
G02*
X59968913Y94516946I-1054239J671625D01*
G01*
X59968913Y94516946D01*
G75*
G02*
X59586299Y96242810I671625J1054239D01*
G01*
G37*
%TD.AperFunction*%
%TD*%
%TO.P,K13(2@)1,2*%
%TO.N,Net-(D13-Pad2)*%
%TA.AperFunction,ComponentPad*%
G36*
G01*
X84753171Y97585691D02*
X84792619Y98164347D01*
G75*
G02*
X86124743Y99326433I1247105J-85019D01*
G01*
X86124743Y99326433D01*
G75*
G02*
X87286829Y97994309I-85019J-1247105D01*
G01*
X87247381Y97415653D01*
G75*
G02*
X85915257Y96253567I-1247105J85019D01*
G01*
X85915257Y96253567D01*
G75*
G02*
X84753171Y97585691I85019J1247105D01*
G01*
G37*
%TD.AperFunction*%
%TO.P,K13(2@)1,1*%
%TO.N,/col3*%
%TA.AperFunction,ComponentPad*%
G36*
G01*
X78586299Y96242810D02*
X79795223Y98140440D01*
G75*
G02*
X81521087Y98523054I1054239J-671625D01*
G01*
X81521087Y98523054D01*
G75*
G02*
X81903701Y96797190I-671625J-1054239D01*
G01*
X80694777Y94899560D01*
G75*
G02*
X78968913Y94516946I-1054239J671625D01*
G01*
X78968913Y94516946D01*
G75*
G02*
X78586299Y96242810I671625J1054239D01*
G01*
G37*
%TD.AperFunction*%
%TD*%
%TO.P,K14(3#)1,2*%
%TO.N,Net-(D14-Pad2)*%
%TA.AperFunction,ComponentPad*%
G36*
G01*
X103753171Y97585691D02*
X103792619Y98164347D01*
G75*
G02*
X105124743Y99326433I1247105J-85019D01*
G01*
X105124743Y99326433D01*
G75*
G02*
X106286829Y97994309I-85019J-1247105D01*
G01*
X106247381Y97415653D01*
G75*
G02*
X104915257Y96253567I-1247105J85019D01*
G01*
X104915257Y96253567D01*
G75*
G02*
X103753171Y97585691I85019J1247105D01*
G01*
G37*
%TD.AperFunction*%
%TO.P,K14(3#)1,1*%
%TO.N,/col4*%
%TA.AperFunction,ComponentPad*%
G36*
G01*
X97586299Y96242810D02*
X98795223Y98140440D01*
G75*
G02*
X100521087Y98523054I1054239J-671625D01*
G01*
X100521087Y98523054D01*
G75*
G02*
X100903701Y96797190I-671625J-1054239D01*
G01*
X99694777Y94899560D01*
G75*
G02*
X97968913Y94516946I-1054239J671625D01*
G01*
X97968913Y94516946D01*
G75*
G02*
X97586299Y96242810I671625J1054239D01*
G01*
G37*
%TD.AperFunction*%
%TD*%
%TO.P,K15(4$)1,1*%
%TO.N,/col5*%
%TA.AperFunction,ComponentPad*%
G36*
G01*
X116586299Y96242810D02*
X117795223Y98140440D01*
G75*
G02*
X119521087Y98523054I1054239J-671625D01*
G01*
X119521087Y98523054D01*
G75*
G02*
X119903701Y96797190I-671625J-1054239D01*
G01*
X118694777Y94899560D01*
G75*
G02*
X116968913Y94516946I-1054239J671625D01*
G01*
X116968913Y94516946D01*
G75*
G02*
X116586299Y96242810I671625J1054239D01*
G01*
G37*
%TD.AperFunction*%
%TO.P,K15(4$)1,2*%
%TO.N,Net-(D15-Pad2)*%
%TA.AperFunction,ComponentPad*%
G36*
G01*
X122753171Y97585691D02*
X122792619Y98164347D01*
G75*
G02*
X124124743Y99326433I1247105J-85019D01*
G01*
X124124743Y99326433D01*
G75*
G02*
X125286829Y97994309I-85019J-1247105D01*
G01*
X125247381Y97415653D01*
G75*
G02*
X123915257Y96253567I-1247105J85019D01*
G01*
X123915257Y96253567D01*
G75*
G02*
X122753171Y97585691I85019J1247105D01*
G01*
G37*
%TD.AperFunction*%
%TD*%
%TO.P,K16(5\u0025)1,2*%
%TO.N,Net-(D16-Pad2)*%
%TA.AperFunction,ComponentPad*%
G36*
G01*
X141753171Y97585691D02*
X141792619Y98164347D01*
G75*
G02*
X143124743Y99326433I1247105J-85019D01*
G01*
X143124743Y99326433D01*
G75*
G02*
X144286829Y97994309I-85019J-1247105D01*
G01*
X144247381Y97415653D01*
G75*
G02*
X142915257Y96253567I-1247105J85019D01*
G01*
X142915257Y96253567D01*
G75*
G02*
X141753171Y97585691I85019J1247105D01*
G01*
G37*
%TD.AperFunction*%
%TO.P,K16(5\u0025)1,1*%
%TO.N,/col6*%
%TA.AperFunction,ComponentPad*%
G36*
G01*
X135586299Y96242810D02*
X136795223Y98140440D01*
G75*
G02*
X138521087Y98523054I1054239J-671625D01*
G01*
X138521087Y98523054D01*
G75*
G02*
X138903701Y96797190I-671625J-1054239D01*
G01*
X137694777Y94899560D01*
G75*
G02*
X135968913Y94516946I-1054239J671625D01*
G01*
X135968913Y94516946D01*
G75*
G02*
X135586299Y96242810I671625J1054239D01*
G01*
G37*
%TD.AperFunction*%
%TD*%
%TO.P,K17(6^)1,1*%
%TO.N,/col7*%
%TA.AperFunction,ComponentPad*%
G36*
G01*
X154586299Y96242810D02*
X155795223Y98140440D01*
G75*
G02*
X157521087Y98523054I1054239J-671625D01*
G01*
X157521087Y98523054D01*
G75*
G02*
X157903701Y96797190I-671625J-1054239D01*
G01*
X156694777Y94899560D01*
G75*
G02*
X154968913Y94516946I-1054239J671625D01*
G01*
X154968913Y94516946D01*
G75*
G02*
X154586299Y96242810I671625J1054239D01*
G01*
G37*
%TD.AperFunction*%
%TO.P,K17(6^)1,2*%
%TO.N,Net-(D17-Pad2)*%
%TA.AperFunction,ComponentPad*%
G36*
G01*
X160753171Y97585691D02*
X160792619Y98164347D01*
G75*
G02*
X162124743Y99326433I1247105J-85019D01*
G01*
X162124743Y99326433D01*
G75*
G02*
X163286829Y97994309I-85019J-1247105D01*
G01*
X163247381Y97415653D01*
G75*
G02*
X161915257Y96253567I-1247105J85019D01*
G01*
X161915257Y96253567D01*
G75*
G02*
X160753171Y97585691I85019J1247105D01*
G01*
G37*
%TD.AperFunction*%
%TD*%
%TO.P,K20(M1)1,1*%
%TO.N,/col0*%
%TA.AperFunction,ComponentPad*%
G36*
G01*
X12086299Y77242810D02*
X13295223Y79140440D01*
G75*
G02*
X15021087Y79523054I1054239J-671625D01*
G01*
X15021087Y79523054D01*
G75*
G02*
X15403701Y77797190I-671625J-1054239D01*
G01*
X14194777Y75899560D01*
G75*
G02*
X12468913Y75516946I-1054239J671625D01*
G01*
X12468913Y75516946D01*
G75*
G02*
X12086299Y77242810I671625J1054239D01*
G01*
G37*
%TD.AperFunction*%
%TO.P,K20(M1)1,2*%
%TO.N,Net-(D20-Pad2)*%
%TA.AperFunction,ComponentPad*%
G36*
G01*
X18253171Y78585691D02*
X18292619Y79164347D01*
G75*
G02*
X19624743Y80326433I1247105J-85019D01*
G01*
X19624743Y80326433D01*
G75*
G02*
X20786829Y78994309I-85019J-1247105D01*
G01*
X20747381Y78415653D01*
G75*
G02*
X19415257Y77253567I-1247105J85019D01*
G01*
X19415257Y77253567D01*
G75*
G02*
X18253171Y78585691I85019J1247105D01*
G01*
G37*
%TD.AperFunction*%
%TD*%
%TO.P,K21(Tap)1,1*%
%TO.N,/col1*%
%TA.AperFunction,ComponentPad*%
G36*
G01*
X45336299Y77242810D02*
X46545223Y79140440D01*
G75*
G02*
X48271087Y79523054I1054239J-671625D01*
G01*
X48271087Y79523054D01*
G75*
G02*
X48653701Y77797190I-671625J-1054239D01*
G01*
X47444777Y75899560D01*
G75*
G02*
X45718913Y75516946I-1054239J671625D01*
G01*
X45718913Y75516946D01*
G75*
G02*
X45336299Y77242810I671625J1054239D01*
G01*
G37*
%TD.AperFunction*%
%TO.P,K21(Tap)1,2*%
%TO.N,Net-(D21-Pad2)*%
%TA.AperFunction,ComponentPad*%
G36*
G01*
X51503171Y78585691D02*
X51542619Y79164347D01*
G75*
G02*
X52874743Y80326433I1247105J-85019D01*
G01*
X52874743Y80326433D01*
G75*
G02*
X54036829Y78994309I-85019J-1247105D01*
G01*
X53997381Y78415653D01*
G75*
G02*
X52665257Y77253567I-1247105J85019D01*
G01*
X52665257Y77253567D01*
G75*
G02*
X51503171Y78585691I85019J1247105D01*
G01*
G37*
%TD.AperFunction*%
%TD*%
%TO.P,K22(Q)1,2*%
%TO.N,Net-(D22-Pad2)*%
%TA.AperFunction,ComponentPad*%
G36*
G01*
X75253171Y78585691D02*
X75292619Y79164347D01*
G75*
G02*
X76624743Y80326433I1247105J-85019D01*
G01*
X76624743Y80326433D01*
G75*
G02*
X77786829Y78994309I-85019J-1247105D01*
G01*
X77747381Y78415653D01*
G75*
G02*
X76415257Y77253567I-1247105J85019D01*
G01*
X76415257Y77253567D01*
G75*
G02*
X75253171Y78585691I85019J1247105D01*
G01*
G37*
%TD.AperFunction*%
%TO.P,K22(Q)1,1*%
%TO.N,/col2*%
%TA.AperFunction,ComponentPad*%
G36*
G01*
X69086299Y77242810D02*
X70295223Y79140440D01*
G75*
G02*
X72021087Y79523054I1054239J-671625D01*
G01*
X72021087Y79523054D01*
G75*
G02*
X72403701Y77797190I-671625J-1054239D01*
G01*
X71194777Y75899560D01*
G75*
G02*
X69468913Y75516946I-1054239J671625D01*
G01*
X69468913Y75516946D01*
G75*
G02*
X69086299Y77242810I671625J1054239D01*
G01*
G37*
%TD.AperFunction*%
%TD*%
%TO.P,K23(W)1,1*%
%TO.N,/col3*%
%TA.AperFunction,ComponentPad*%
G36*
G01*
X88086299Y77242810D02*
X89295223Y79140440D01*
G75*
G02*
X91021087Y79523054I1054239J-671625D01*
G01*
X91021087Y79523054D01*
G75*
G02*
X91403701Y77797190I-671625J-1054239D01*
G01*
X90194777Y75899560D01*
G75*
G02*
X88468913Y75516946I-1054239J671625D01*
G01*
X88468913Y75516946D01*
G75*
G02*
X88086299Y77242810I671625J1054239D01*
G01*
G37*
%TD.AperFunction*%
%TO.P,K23(W)1,2*%
%TO.N,Net-(D23-Pad2)*%
%TA.AperFunction,ComponentPad*%
G36*
G01*
X94253171Y78585691D02*
X94292619Y79164347D01*
G75*
G02*
X95624743Y80326433I1247105J-85019D01*
G01*
X95624743Y80326433D01*
G75*
G02*
X96786829Y78994309I-85019J-1247105D01*
G01*
X96747381Y78415653D01*
G75*
G02*
X95415257Y77253567I-1247105J85019D01*
G01*
X95415257Y77253567D01*
G75*
G02*
X94253171Y78585691I85019J1247105D01*
G01*
G37*
%TD.AperFunction*%
%TD*%
%TO.P,K24(E)1,2*%
%TO.N,Net-(D24-Pad2)*%
%TA.AperFunction,ComponentPad*%
G36*
G01*
X113253171Y78585691D02*
X113292619Y79164347D01*
G75*
G02*
X114624743Y80326433I1247105J-85019D01*
G01*
X114624743Y80326433D01*
G75*
G02*
X115786829Y78994309I-85019J-1247105D01*
G01*
X115747381Y78415653D01*
G75*
G02*
X114415257Y77253567I-1247105J85019D01*
G01*
X114415257Y77253567D01*
G75*
G02*
X113253171Y78585691I85019J1247105D01*
G01*
G37*
%TD.AperFunction*%
%TO.P,K24(E)1,1*%
%TO.N,/col4*%
%TA.AperFunction,ComponentPad*%
G36*
G01*
X107086299Y77242810D02*
X108295223Y79140440D01*
G75*
G02*
X110021087Y79523054I1054239J-671625D01*
G01*
X110021087Y79523054D01*
G75*
G02*
X110403701Y77797190I-671625J-1054239D01*
G01*
X109194777Y75899560D01*
G75*
G02*
X107468913Y75516946I-1054239J671625D01*
G01*
X107468913Y75516946D01*
G75*
G02*
X107086299Y77242810I671625J1054239D01*
G01*
G37*
%TD.AperFunction*%
%TD*%
%TO.P,K25(R)1,2*%
%TO.N,Net-(D25-Pad2)*%
%TA.AperFunction,ComponentPad*%
G36*
G01*
X132253171Y78585691D02*
X132292619Y79164347D01*
G75*
G02*
X133624743Y80326433I1247105J-85019D01*
G01*
X133624743Y80326433D01*
G75*
G02*
X134786829Y78994309I-85019J-1247105D01*
G01*
X134747381Y78415653D01*
G75*
G02*
X133415257Y77253567I-1247105J85019D01*
G01*
X133415257Y77253567D01*
G75*
G02*
X132253171Y78585691I85019J1247105D01*
G01*
G37*
%TD.AperFunction*%
%TO.P,K25(R)1,1*%
%TO.N,/col5*%
%TA.AperFunction,ComponentPad*%
G36*
G01*
X126086299Y77242810D02*
X127295223Y79140440D01*
G75*
G02*
X129021087Y79523054I1054239J-671625D01*
G01*
X129021087Y79523054D01*
G75*
G02*
X129403701Y77797190I-671625J-1054239D01*
G01*
X128194777Y75899560D01*
G75*
G02*
X126468913Y75516946I-1054239J671625D01*
G01*
X126468913Y75516946D01*
G75*
G02*
X126086299Y77242810I671625J1054239D01*
G01*
G37*
%TD.AperFunction*%
%TD*%
%TO.P,K26(T)1,1*%
%TO.N,/col6*%
%TA.AperFunction,ComponentPad*%
G36*
G01*
X145086299Y77242810D02*
X146295223Y79140440D01*
G75*
G02*
X148021087Y79523054I1054239J-671625D01*
G01*
X148021087Y79523054D01*
G75*
G02*
X148403701Y77797190I-671625J-1054239D01*
G01*
X147194777Y75899560D01*
G75*
G02*
X145468913Y75516946I-1054239J671625D01*
G01*
X145468913Y75516946D01*
G75*
G02*
X145086299Y77242810I671625J1054239D01*
G01*
G37*
%TD.AperFunction*%
%TO.P,K26(T)1,2*%
%TO.N,Net-(D26-Pad2)*%
%TA.AperFunction,ComponentPad*%
G36*
G01*
X151253171Y78585691D02*
X151292619Y79164347D01*
G75*
G02*
X152624743Y80326433I1247105J-85019D01*
G01*
X152624743Y80326433D01*
G75*
G02*
X153786829Y78994309I-85019J-1247105D01*
G01*
X153747381Y78415653D01*
G75*
G02*
X152415257Y77253567I-1247105J85019D01*
G01*
X152415257Y77253567D01*
G75*
G02*
X151253171Y78585691I85019J1247105D01*
G01*
G37*
%TD.AperFunction*%
%TD*%
%TO.P,K27(P)1,2*%
%TO.N,Net-(D27-Pad2)*%
%TA.AperFunction,ComponentPad*%
G36*
G01*
X170253171Y78585691D02*
X170292619Y79164347D01*
G75*
G02*
X171624743Y80326433I1247105J-85019D01*
G01*
X171624743Y80326433D01*
G75*
G02*
X172786829Y78994309I-85019J-1247105D01*
G01*
X172747381Y78415653D01*
G75*
G02*
X171415257Y77253567I-1247105J85019D01*
G01*
X171415257Y77253567D01*
G75*
G02*
X170253171Y78585691I85019J1247105D01*
G01*
G37*
%TD.AperFunction*%
%TO.P,K27(P)1,1*%
%TO.N,/col7*%
%TA.AperFunction,ComponentPad*%
G36*
G01*
X164086299Y77242810D02*
X165295223Y79140440D01*
G75*
G02*
X167021087Y79523054I1054239J-671625D01*
G01*
X167021087Y79523054D01*
G75*
G02*
X167403701Y77797190I-671625J-1054239D01*
G01*
X166194777Y75899560D01*
G75*
G02*
X164468913Y75516946I-1054239J671625D01*
G01*
X164468913Y75516946D01*
G75*
G02*
X164086299Y77242810I671625J1054239D01*
G01*
G37*
%TD.AperFunction*%
%TD*%
%TO.P,K30(M2)1,2*%
%TO.N,Net-(D30-Pad2)*%
%TA.AperFunction,ComponentPad*%
G36*
G01*
X18253171Y59585691D02*
X18292619Y60164347D01*
G75*
G02*
X19624743Y61326433I1247105J-85019D01*
G01*
X19624743Y61326433D01*
G75*
G02*
X20786829Y59994309I-85019J-1247105D01*
G01*
X20747381Y59415653D01*
G75*
G02*
X19415257Y58253567I-1247105J85019D01*
G01*
X19415257Y58253567D01*
G75*
G02*
X18253171Y59585691I85019J1247105D01*
G01*
G37*
%TD.AperFunction*%
%TO.P,K30(M2)1,1*%
%TO.N,/col0*%
%TA.AperFunction,ComponentPad*%
G36*
G01*
X12086299Y58242810D02*
X13295223Y60140440D01*
G75*
G02*
X15021087Y60523054I1054239J-671625D01*
G01*
X15021087Y60523054D01*
G75*
G02*
X15403701Y58797190I-671625J-1054239D01*
G01*
X14194777Y56899560D01*
G75*
G02*
X12468913Y56516946I-1054239J671625D01*
G01*
X12468913Y56516946D01*
G75*
G02*
X12086299Y58242810I671625J1054239D01*
G01*
G37*
%TD.AperFunction*%
%TD*%
%TO.P,K31(Caps_Lock)1,1*%
%TO.N,/col1*%
%TA.AperFunction,ComponentPad*%
G36*
G01*
X47716299Y58242810D02*
X48925223Y60140440D01*
G75*
G02*
X50651087Y60523054I1054239J-671625D01*
G01*
X50651087Y60523054D01*
G75*
G02*
X51033701Y58797190I-671625J-1054239D01*
G01*
X49824777Y56899560D01*
G75*
G02*
X48098913Y56516946I-1054239J671625D01*
G01*
X48098913Y56516946D01*
G75*
G02*
X47716299Y58242810I671625J1054239D01*
G01*
G37*
%TD.AperFunction*%
%TO.P,K31(Caps_Lock)1,2*%
%TO.N,Net-(D31-Pad2)*%
%TA.AperFunction,ComponentPad*%
G36*
G01*
X53883171Y59585691D02*
X53922619Y60164347D01*
G75*
G02*
X55254743Y61326433I1247105J-85019D01*
G01*
X55254743Y61326433D01*
G75*
G02*
X56416829Y59994309I-85019J-1247105D01*
G01*
X56377381Y59415653D01*
G75*
G02*
X55045257Y58253567I-1247105J85019D01*
G01*
X55045257Y58253567D01*
G75*
G02*
X53883171Y59585691I85019J1247105D01*
G01*
G37*
%TD.AperFunction*%
%TD*%
%TO.P,K32(A)1,1*%
%TO.N,/col2*%
%TA.AperFunction,ComponentPad*%
G36*
G01*
X73836299Y58242810D02*
X75045223Y60140440D01*
G75*
G02*
X76771087Y60523054I1054239J-671625D01*
G01*
X76771087Y60523054D01*
G75*
G02*
X77153701Y58797190I-671625J-1054239D01*
G01*
X75944777Y56899560D01*
G75*
G02*
X74218913Y56516946I-1054239J671625D01*
G01*
X74218913Y56516946D01*
G75*
G02*
X73836299Y58242810I671625J1054239D01*
G01*
G37*
%TD.AperFunction*%
%TO.P,K32(A)1,2*%
%TO.N,Net-(D32-Pad2)*%
%TA.AperFunction,ComponentPad*%
G36*
G01*
X80003171Y59585691D02*
X80042619Y60164347D01*
G75*
G02*
X81374743Y61326433I1247105J-85019D01*
G01*
X81374743Y61326433D01*
G75*
G02*
X82536829Y59994309I-85019J-1247105D01*
G01*
X82497381Y59415653D01*
G75*
G02*
X81165257Y58253567I-1247105J85019D01*
G01*
X81165257Y58253567D01*
G75*
G02*
X80003171Y59585691I85019J1247105D01*
G01*
G37*
%TD.AperFunction*%
%TD*%
%TO.P,K33(S)1,2*%
%TO.N,Net-(D33-Pad2)*%
%TA.AperFunction,ComponentPad*%
G36*
G01*
X99003171Y59585691D02*
X99042619Y60164347D01*
G75*
G02*
X100374743Y61326433I1247105J-85019D01*
G01*
X100374743Y61326433D01*
G75*
G02*
X101536829Y59994309I-85019J-1247105D01*
G01*
X101497381Y59415653D01*
G75*
G02*
X100165257Y58253567I-1247105J85019D01*
G01*
X100165257Y58253567D01*
G75*
G02*
X99003171Y59585691I85019J1247105D01*
G01*
G37*
%TD.AperFunction*%
%TO.P,K33(S)1,1*%
%TO.N,/col3*%
%TA.AperFunction,ComponentPad*%
G36*
G01*
X92836299Y58242810D02*
X94045223Y60140440D01*
G75*
G02*
X95771087Y60523054I1054239J-671625D01*
G01*
X95771087Y60523054D01*
G75*
G02*
X96153701Y58797190I-671625J-1054239D01*
G01*
X94944777Y56899560D01*
G75*
G02*
X93218913Y56516946I-1054239J671625D01*
G01*
X93218913Y56516946D01*
G75*
G02*
X92836299Y58242810I671625J1054239D01*
G01*
G37*
%TD.AperFunction*%
%TD*%
%TO.P,K34(D)1,1*%
%TO.N,/col4*%
%TA.AperFunction,ComponentPad*%
G36*
G01*
X111836299Y58242810D02*
X113045223Y60140440D01*
G75*
G02*
X114771087Y60523054I1054239J-671625D01*
G01*
X114771087Y60523054D01*
G75*
G02*
X115153701Y58797190I-671625J-1054239D01*
G01*
X113944777Y56899560D01*
G75*
G02*
X112218913Y56516946I-1054239J671625D01*
G01*
X112218913Y56516946D01*
G75*
G02*
X111836299Y58242810I671625J1054239D01*
G01*
G37*
%TD.AperFunction*%
%TO.P,K34(D)1,2*%
%TO.N,Net-(D34-Pad2)*%
%TA.AperFunction,ComponentPad*%
G36*
G01*
X118003171Y59585691D02*
X118042619Y60164347D01*
G75*
G02*
X119374743Y61326433I1247105J-85019D01*
G01*
X119374743Y61326433D01*
G75*
G02*
X120536829Y59994309I-85019J-1247105D01*
G01*
X120497381Y59415653D01*
G75*
G02*
X119165257Y58253567I-1247105J85019D01*
G01*
X119165257Y58253567D01*
G75*
G02*
X118003171Y59585691I85019J1247105D01*
G01*
G37*
%TD.AperFunction*%
%TD*%
%TO.P,K35(F)1,1*%
%TO.N,/col5*%
%TA.AperFunction,ComponentPad*%
G36*
G01*
X130836299Y58242810D02*
X132045223Y60140440D01*
G75*
G02*
X133771087Y60523054I1054239J-671625D01*
G01*
X133771087Y60523054D01*
G75*
G02*
X134153701Y58797190I-671625J-1054239D01*
G01*
X132944777Y56899560D01*
G75*
G02*
X131218913Y56516946I-1054239J671625D01*
G01*
X131218913Y56516946D01*
G75*
G02*
X130836299Y58242810I671625J1054239D01*
G01*
G37*
%TD.AperFunction*%
%TO.P,K35(F)1,2*%
%TO.N,Net-(D35-Pad2)*%
%TA.AperFunction,ComponentPad*%
G36*
G01*
X137003171Y59585691D02*
X137042619Y60164347D01*
G75*
G02*
X138374743Y61326433I1247105J-85019D01*
G01*
X138374743Y61326433D01*
G75*
G02*
X139536829Y59994309I-85019J-1247105D01*
G01*
X139497381Y59415653D01*
G75*
G02*
X138165257Y58253567I-1247105J85019D01*
G01*
X138165257Y58253567D01*
G75*
G02*
X137003171Y59585691I85019J1247105D01*
G01*
G37*
%TD.AperFunction*%
%TD*%
%TO.P,K36(G)1,2*%
%TO.N,Net-(D36-Pad2)*%
%TA.AperFunction,ComponentPad*%
G36*
G01*
X156003171Y59585691D02*
X156042619Y60164347D01*
G75*
G02*
X157374743Y61326433I1247105J-85019D01*
G01*
X157374743Y61326433D01*
G75*
G02*
X158536829Y59994309I-85019J-1247105D01*
G01*
X158497381Y59415653D01*
G75*
G02*
X157165257Y58253567I-1247105J85019D01*
G01*
X157165257Y58253567D01*
G75*
G02*
X156003171Y59585691I85019J1247105D01*
G01*
G37*
%TD.AperFunction*%
%TO.P,K36(G)1,1*%
%TO.N,/col6*%
%TA.AperFunction,ComponentPad*%
G36*
G01*
X149836299Y58242810D02*
X151045223Y60140440D01*
G75*
G02*
X152771087Y60523054I1054239J-671625D01*
G01*
X152771087Y60523054D01*
G75*
G02*
X153153701Y58797190I-671625J-1054239D01*
G01*
X151944777Y56899560D01*
G75*
G02*
X150218913Y56516946I-1054239J671625D01*
G01*
X150218913Y56516946D01*
G75*
G02*
X149836299Y58242810I671625J1054239D01*
G01*
G37*
%TD.AperFunction*%
%TD*%
%TO.P,K37(H)1,1*%
%TO.N,/col7*%
%TA.AperFunction,ComponentPad*%
G36*
G01*
X168836299Y58242810D02*
X170045223Y60140440D01*
G75*
G02*
X171771087Y60523054I1054239J-671625D01*
G01*
X171771087Y60523054D01*
G75*
G02*
X172153701Y58797190I-671625J-1054239D01*
G01*
X170944777Y56899560D01*
G75*
G02*
X169218913Y56516946I-1054239J671625D01*
G01*
X169218913Y56516946D01*
G75*
G02*
X168836299Y58242810I671625J1054239D01*
G01*
G37*
%TD.AperFunction*%
%TO.P,K37(H)1,2*%
%TO.N,Net-(D37-Pad2)*%
%TA.AperFunction,ComponentPad*%
G36*
G01*
X175003171Y59585691D02*
X175042619Y60164347D01*
G75*
G02*
X176374743Y61326433I1247105J-85019D01*
G01*
X176374743Y61326433D01*
G75*
G02*
X177536829Y59994309I-85019J-1247105D01*
G01*
X177497381Y59415653D01*
G75*
G02*
X176165257Y58253567I-1247105J85019D01*
G01*
X176165257Y58253567D01*
G75*
G02*
X175003171Y59585691I85019J1247105D01*
G01*
G37*
%TD.AperFunction*%
%TD*%
%TO.P,K38(IoT1)1,1*%
%TO.N,/col8*%
%TA.AperFunction,ComponentPad*%
G36*
G01*
X197336299Y39242810D02*
X198545223Y41140440D01*
G75*
G02*
X200271087Y41523054I1054239J-671625D01*
G01*
X200271087Y41523054D01*
G75*
G02*
X200653701Y39797190I-671625J-1054239D01*
G01*
X199444777Y37899560D01*
G75*
G02*
X197718913Y37516946I-1054239J671625D01*
G01*
X197718913Y37516946D01*
G75*
G02*
X197336299Y39242810I671625J1054239D01*
G01*
G37*
%TD.AperFunction*%
%TO.P,K38(IoT1)1,2*%
%TO.N,Net-(D38-Pad2)*%
%TA.AperFunction,ComponentPad*%
G36*
G01*
X203503171Y40585691D02*
X203542619Y41164347D01*
G75*
G02*
X204874743Y42326433I1247105J-85019D01*
G01*
X204874743Y42326433D01*
G75*
G02*
X206036829Y40994309I-85019J-1247105D01*
G01*
X205997381Y40415653D01*
G75*
G02*
X204665257Y39253567I-1247105J85019D01*
G01*
X204665257Y39253567D01*
G75*
G02*
X203503171Y40585691I85019J1247105D01*
G01*
G37*
%TD.AperFunction*%
%TD*%
%TO.P,K40(M3)1,2*%
%TO.N,Net-(D40-Pad2)*%
%TA.AperFunction,ComponentPad*%
G36*
G01*
X18253171Y40585691D02*
X18292619Y41164347D01*
G75*
G02*
X19624743Y42326433I1247105J-85019D01*
G01*
X19624743Y42326433D01*
G75*
G02*
X20786829Y40994309I-85019J-1247105D01*
G01*
X20747381Y40415653D01*
G75*
G02*
X19415257Y39253567I-1247105J85019D01*
G01*
X19415257Y39253567D01*
G75*
G02*
X18253171Y40585691I85019J1247105D01*
G01*
G37*
%TD.AperFunction*%
%TO.P,K40(M3)1,1*%
%TO.N,/col0*%
%TA.AperFunction,ComponentPad*%
G36*
G01*
X12086299Y39242810D02*
X13295223Y41140440D01*
G75*
G02*
X15021087Y41523054I1054239J-671625D01*
G01*
X15021087Y41523054D01*
G75*
G02*
X15403701Y39797190I-671625J-1054239D01*
G01*
X14194777Y37899560D01*
G75*
G02*
X12468913Y37516946I-1054239J671625D01*
G01*
X12468913Y37516946D01*
G75*
G02*
X12086299Y39242810I671625J1054239D01*
G01*
G37*
%TD.AperFunction*%
%TD*%
%TO.P,K41(L_Shift)1,1*%
%TO.N,/col1*%
%TA.AperFunction,ComponentPad*%
G36*
G01*
X52466299Y39242810D02*
X53675223Y41140440D01*
G75*
G02*
X55401087Y41523054I1054239J-671625D01*
G01*
X55401087Y41523054D01*
G75*
G02*
X55783701Y39797190I-671625J-1054239D01*
G01*
X54574777Y37899560D01*
G75*
G02*
X52848913Y37516946I-1054239J671625D01*
G01*
X52848913Y37516946D01*
G75*
G02*
X52466299Y39242810I671625J1054239D01*
G01*
G37*
%TD.AperFunction*%
%TO.P,K41(L_Shift)1,2*%
%TO.N,Net-(D41-Pad2)*%
%TA.AperFunction,ComponentPad*%
G36*
G01*
X58633171Y40585691D02*
X58672619Y41164347D01*
G75*
G02*
X60004743Y42326433I1247105J-85019D01*
G01*
X60004743Y42326433D01*
G75*
G02*
X61166829Y40994309I-85019J-1247105D01*
G01*
X61127381Y40415653D01*
G75*
G02*
X59795257Y39253567I-1247105J85019D01*
G01*
X59795257Y39253567D01*
G75*
G02*
X58633171Y40585691I85019J1247105D01*
G01*
G37*
%TD.AperFunction*%
%TD*%
%TO.P,K42(Z)1,1*%
%TO.N,/col2*%
%TA.AperFunction,ComponentPad*%
G36*
G01*
X83336299Y39242810D02*
X84545223Y41140440D01*
G75*
G02*
X86271087Y41523054I1054239J-671625D01*
G01*
X86271087Y41523054D01*
G75*
G02*
X86653701Y39797190I-671625J-1054239D01*
G01*
X85444777Y37899560D01*
G75*
G02*
X83718913Y37516946I-1054239J671625D01*
G01*
X83718913Y37516946D01*
G75*
G02*
X83336299Y39242810I671625J1054239D01*
G01*
G37*
%TD.AperFunction*%
%TO.P,K42(Z)1,2*%
%TO.N,Net-(D42-Pad2)*%
%TA.AperFunction,ComponentPad*%
G36*
G01*
X89503171Y40585691D02*
X89542619Y41164347D01*
G75*
G02*
X90874743Y42326433I1247105J-85019D01*
G01*
X90874743Y42326433D01*
G75*
G02*
X92036829Y40994309I-85019J-1247105D01*
G01*
X91997381Y40415653D01*
G75*
G02*
X90665257Y39253567I-1247105J85019D01*
G01*
X90665257Y39253567D01*
G75*
G02*
X89503171Y40585691I85019J1247105D01*
G01*
G37*
%TD.AperFunction*%
%TD*%
%TO.P,K43(X)1,2*%
%TO.N,Net-(D43-Pad2)*%
%TA.AperFunction,ComponentPad*%
G36*
G01*
X108503171Y40585691D02*
X108542619Y41164347D01*
G75*
G02*
X109874743Y42326433I1247105J-85019D01*
G01*
X109874743Y42326433D01*
G75*
G02*
X111036829Y40994309I-85019J-1247105D01*
G01*
X110997381Y40415653D01*
G75*
G02*
X109665257Y39253567I-1247105J85019D01*
G01*
X109665257Y39253567D01*
G75*
G02*
X108503171Y40585691I85019J1247105D01*
G01*
G37*
%TD.AperFunction*%
%TO.P,K43(X)1,1*%
%TO.N,/col3*%
%TA.AperFunction,ComponentPad*%
G36*
G01*
X102336299Y39242810D02*
X103545223Y41140440D01*
G75*
G02*
X105271087Y41523054I1054239J-671625D01*
G01*
X105271087Y41523054D01*
G75*
G02*
X105653701Y39797190I-671625J-1054239D01*
G01*
X104444777Y37899560D01*
G75*
G02*
X102718913Y37516946I-1054239J671625D01*
G01*
X102718913Y37516946D01*
G75*
G02*
X102336299Y39242810I671625J1054239D01*
G01*
G37*
%TD.AperFunction*%
%TD*%
%TO.P,K44(C)1,1*%
%TO.N,/col4*%
%TA.AperFunction,ComponentPad*%
G36*
G01*
X121336299Y39242810D02*
X122545223Y41140440D01*
G75*
G02*
X124271087Y41523054I1054239J-671625D01*
G01*
X124271087Y41523054D01*
G75*
G02*
X124653701Y39797190I-671625J-1054239D01*
G01*
X123444777Y37899560D01*
G75*
G02*
X121718913Y37516946I-1054239J671625D01*
G01*
X121718913Y37516946D01*
G75*
G02*
X121336299Y39242810I671625J1054239D01*
G01*
G37*
%TD.AperFunction*%
%TO.P,K44(C)1,2*%
%TO.N,Net-(D44-Pad2)*%
%TA.AperFunction,ComponentPad*%
G36*
G01*
X127503171Y40585691D02*
X127542619Y41164347D01*
G75*
G02*
X128874743Y42326433I1247105J-85019D01*
G01*
X128874743Y42326433D01*
G75*
G02*
X130036829Y40994309I-85019J-1247105D01*
G01*
X129997381Y40415653D01*
G75*
G02*
X128665257Y39253567I-1247105J85019D01*
G01*
X128665257Y39253567D01*
G75*
G02*
X127503171Y40585691I85019J1247105D01*
G01*
G37*
%TD.AperFunction*%
%TD*%
%TO.P,K45(V)1,1*%
%TO.N,/col5*%
%TA.AperFunction,ComponentPad*%
G36*
G01*
X140336299Y39242810D02*
X141545223Y41140440D01*
G75*
G02*
X143271087Y41523054I1054239J-671625D01*
G01*
X143271087Y41523054D01*
G75*
G02*
X143653701Y39797190I-671625J-1054239D01*
G01*
X142444777Y37899560D01*
G75*
G02*
X140718913Y37516946I-1054239J671625D01*
G01*
X140718913Y37516946D01*
G75*
G02*
X140336299Y39242810I671625J1054239D01*
G01*
G37*
%TD.AperFunction*%
%TO.P,K45(V)1,2*%
%TO.N,Net-(D45-Pad2)*%
%TA.AperFunction,ComponentPad*%
G36*
G01*
X146503171Y40585691D02*
X146542619Y41164347D01*
G75*
G02*
X147874743Y42326433I1247105J-85019D01*
G01*
X147874743Y42326433D01*
G75*
G02*
X149036829Y40994309I-85019J-1247105D01*
G01*
X148997381Y40415653D01*
G75*
G02*
X147665257Y39253567I-1247105J85019D01*
G01*
X147665257Y39253567D01*
G75*
G02*
X146503171Y40585691I85019J1247105D01*
G01*
G37*
%TD.AperFunction*%
%TD*%
%TO.P,K46(B)1,2*%
%TO.N,Net-(D46-Pad2)*%
%TA.AperFunction,ComponentPad*%
G36*
G01*
X165503171Y40585691D02*
X165542619Y41164347D01*
G75*
G02*
X166874743Y42326433I1247105J-85019D01*
G01*
X166874743Y42326433D01*
G75*
G02*
X168036829Y40994309I-85019J-1247105D01*
G01*
X167997381Y40415653D01*
G75*
G02*
X166665257Y39253567I-1247105J85019D01*
G01*
X166665257Y39253567D01*
G75*
G02*
X165503171Y40585691I85019J1247105D01*
G01*
G37*
%TD.AperFunction*%
%TO.P,K46(B)1,1*%
%TO.N,/col6*%
%TA.AperFunction,ComponentPad*%
G36*
G01*
X159336299Y39242810D02*
X160545223Y41140440D01*
G75*
G02*
X162271087Y41523054I1054239J-671625D01*
G01*
X162271087Y41523054D01*
G75*
G02*
X162653701Y39797190I-671625J-1054239D01*
G01*
X161444777Y37899560D01*
G75*
G02*
X159718913Y37516946I-1054239J671625D01*
G01*
X159718913Y37516946D01*
G75*
G02*
X159336299Y39242810I671625J1054239D01*
G01*
G37*
%TD.AperFunction*%
%TD*%
%TO.P,K48(IoT2)1,2*%
%TO.N,Net-(D48-Pad2)*%
%TA.AperFunction,ComponentPad*%
G36*
G01*
X203503171Y21585691D02*
X203542619Y22164347D01*
G75*
G02*
X204874743Y23326433I1247105J-85019D01*
G01*
X204874743Y23326433D01*
G75*
G02*
X206036829Y21994309I-85019J-1247105D01*
G01*
X205997381Y21415653D01*
G75*
G02*
X204665257Y20253567I-1247105J85019D01*
G01*
X204665257Y20253567D01*
G75*
G02*
X203503171Y21585691I85019J1247105D01*
G01*
G37*
%TD.AperFunction*%
%TO.P,K48(IoT2)1,1*%
%TO.N,/col8*%
%TA.AperFunction,ComponentPad*%
G36*
G01*
X197336299Y20242810D02*
X198545223Y22140440D01*
G75*
G02*
X200271087Y22523054I1054239J-671625D01*
G01*
X200271087Y22523054D01*
G75*
G02*
X200653701Y20797190I-671625J-1054239D01*
G01*
X199444777Y18899560D01*
G75*
G02*
X197718913Y18516946I-1054239J671625D01*
G01*
X197718913Y18516946D01*
G75*
G02*
X197336299Y20242810I671625J1054239D01*
G01*
G37*
%TD.AperFunction*%
%TD*%
%TO.P,K50(M4)1,1*%
%TO.N,/col0*%
%TA.AperFunction,ComponentPad*%
G36*
G01*
X12086299Y20242810D02*
X13295223Y22140440D01*
G75*
G02*
X15021087Y22523054I1054239J-671625D01*
G01*
X15021087Y22523054D01*
G75*
G02*
X15403701Y20797190I-671625J-1054239D01*
G01*
X14194777Y18899560D01*
G75*
G02*
X12468913Y18516946I-1054239J671625D01*
G01*
X12468913Y18516946D01*
G75*
G02*
X12086299Y20242810I671625J1054239D01*
G01*
G37*
%TD.AperFunction*%
%TO.P,K50(M4)1,2*%
%TO.N,Net-(D50-Pad2)*%
%TA.AperFunction,ComponentPad*%
G36*
G01*
X18253171Y21585691D02*
X18292619Y22164347D01*
G75*
G02*
X19624743Y23326433I1247105J-85019D01*
G01*
X19624743Y23326433D01*
G75*
G02*
X20786829Y21994309I-85019J-1247105D01*
G01*
X20747381Y21415653D01*
G75*
G02*
X19415257Y20253567I-1247105J85019D01*
G01*
X19415257Y20253567D01*
G75*
G02*
X18253171Y21585691I85019J1247105D01*
G01*
G37*
%TD.AperFunction*%
%TD*%
%TO.P,K51(L_CTRL)1,1*%
%TO.N,/col1*%
%TA.AperFunction,ComponentPad*%
G36*
G01*
X42966299Y20242810D02*
X44175223Y22140440D01*
G75*
G02*
X45901087Y22523054I1054239J-671625D01*
G01*
X45901087Y22523054D01*
G75*
G02*
X46283701Y20797190I-671625J-1054239D01*
G01*
X45074777Y18899560D01*
G75*
G02*
X43348913Y18516946I-1054239J671625D01*
G01*
X43348913Y18516946D01*
G75*
G02*
X42966299Y20242810I671625J1054239D01*
G01*
G37*
%TD.AperFunction*%
%TO.P,K51(L_CTRL)1,2*%
%TO.N,Net-(D51-Pad2)*%
%TA.AperFunction,ComponentPad*%
G36*
G01*
X49133171Y21585691D02*
X49172619Y22164347D01*
G75*
G02*
X50504743Y23326433I1247105J-85019D01*
G01*
X50504743Y23326433D01*
G75*
G02*
X51666829Y21994309I-85019J-1247105D01*
G01*
X51627381Y21415653D01*
G75*
G02*
X50295257Y20253567I-1247105J85019D01*
G01*
X50295257Y20253567D01*
G75*
G02*
X49133171Y21585691I85019J1247105D01*
G01*
G37*
%TD.AperFunction*%
%TD*%
%TO.P,K52(Win)1,2*%
%TO.N,Net-(D52-Pad2)*%
%TA.AperFunction,ComponentPad*%
G36*
G01*
X72883171Y21585691D02*
X72922619Y22164347D01*
G75*
G02*
X74254743Y23326433I1247105J-85019D01*
G01*
X74254743Y23326433D01*
G75*
G02*
X75416829Y21994309I-85019J-1247105D01*
G01*
X75377381Y21415653D01*
G75*
G02*
X74045257Y20253567I-1247105J85019D01*
G01*
X74045257Y20253567D01*
G75*
G02*
X72883171Y21585691I85019J1247105D01*
G01*
G37*
%TD.AperFunction*%
%TO.P,K52(Win)1,1*%
%TO.N,/col2*%
%TA.AperFunction,ComponentPad*%
G36*
G01*
X66716299Y20242810D02*
X67925223Y22140440D01*
G75*
G02*
X69651087Y22523054I1054239J-671625D01*
G01*
X69651087Y22523054D01*
G75*
G02*
X70033701Y20797190I-671625J-1054239D01*
G01*
X68824777Y18899560D01*
G75*
G02*
X67098913Y18516946I-1054239J671625D01*
G01*
X67098913Y18516946D01*
G75*
G02*
X66716299Y20242810I671625J1054239D01*
G01*
G37*
%TD.AperFunction*%
%TD*%
%TO.P,K53(L_ALT)1,1*%
%TO.N,/col3*%
%TA.AperFunction,ComponentPad*%
G36*
G01*
X90466299Y20242810D02*
X91675223Y22140440D01*
G75*
G02*
X93401087Y22523054I1054239J-671625D01*
G01*
X93401087Y22523054D01*
G75*
G02*
X93783701Y20797190I-671625J-1054239D01*
G01*
X92574777Y18899560D01*
G75*
G02*
X90848913Y18516946I-1054239J671625D01*
G01*
X90848913Y18516946D01*
G75*
G02*
X90466299Y20242810I671625J1054239D01*
G01*
G37*
%TD.AperFunction*%
%TO.P,K53(L_ALT)1,2*%
%TO.N,Net-(D53-Pad2)*%
%TA.AperFunction,ComponentPad*%
G36*
G01*
X96633171Y21585691D02*
X96672619Y22164347D01*
G75*
G02*
X98004743Y23326433I1247105J-85019D01*
G01*
X98004743Y23326433D01*
G75*
G02*
X99166829Y21994309I-85019J-1247105D01*
G01*
X99127381Y21415653D01*
G75*
G02*
X97795257Y20253567I-1247105J85019D01*
G01*
X97795257Y20253567D01*
G75*
G02*
X96633171Y21585691I85019J1247105D01*
G01*
G37*
%TD.AperFunction*%
%TD*%
%TO.P,K54(Space)1,1*%
%TO.N,/col4*%
%TA.AperFunction,ComponentPad*%
G36*
G01*
X128466299Y20242810D02*
X129675223Y22140440D01*
G75*
G02*
X131401087Y22523054I1054239J-671625D01*
G01*
X131401087Y22523054D01*
G75*
G02*
X131783701Y20797190I-671625J-1054239D01*
G01*
X130574777Y18899560D01*
G75*
G02*
X128848913Y18516946I-1054239J671625D01*
G01*
X128848913Y18516946D01*
G75*
G02*
X128466299Y20242810I671625J1054239D01*
G01*
G37*
%TD.AperFunction*%
%TO.P,K54(Space)1,2*%
%TO.N,Net-(D54-Pad2)*%
%TA.AperFunction,ComponentPad*%
G36*
G01*
X134633171Y21585691D02*
X134672619Y22164347D01*
G75*
G02*
X136004743Y23326433I1247105J-85019D01*
G01*
X136004743Y23326433D01*
G75*
G02*
X137166829Y21994309I-85019J-1247105D01*
G01*
X137127381Y21415653D01*
G75*
G02*
X135795257Y20253567I-1247105J85019D01*
G01*
X135795257Y20253567D01*
G75*
G02*
X134633171Y21585691I85019J1247105D01*
G01*
G37*
%TD.AperFunction*%
%TD*%
D14*
%TO.N,/col4*%
X124600000Y106050000D03*
X130950000Y106050000D03*
X153000000Y105850000D03*
X160050000Y105900000D03*
%TO.N,/col5*%
X153000000Y103950000D03*
X160050000Y104000000D03*
%TO.N,/col6*%
X153000000Y102300000D03*
X160050000Y102350000D03*
%TO.N,/col7*%
X180000000Y106350000D03*
X180000000Y95050000D03*
%TO.N,/row5*%
X177250000Y16750000D03*
X181000000Y20500000D03*
X187500000Y30000000D03*
X187500000Y42500000D03*
X187500000Y57250000D03*
X187500000Y64250000D03*
%TO.N,/row4*%
X212250000Y64000000D03*
X215000000Y47500000D03*
%TO.N,/row3*%
X213500000Y60500000D03*
X213500000Y47500000D03*
%TD*%
D15*
%TO.N,/col0*%
X13745000Y96520000D02*
X13745000Y77520000D01*
X13745000Y77520000D02*
X13745000Y58520000D01*
X13745000Y58520000D02*
X13745000Y39520000D01*
X13745000Y39520000D02*
X13745000Y20520000D01*
X195000000Y97780000D02*
X192380000Y95160000D01*
X195000000Y113400000D02*
X195000000Y97780000D01*
X36350000Y127600000D02*
X180800000Y127600000D01*
X34000000Y125250000D02*
X36350000Y127600000D01*
X34000000Y104250000D02*
X34000000Y125250000D01*
X32650000Y102900000D02*
X34000000Y104250000D01*
X17050000Y102900000D02*
X32650000Y102900000D01*
X13745000Y99595000D02*
X17050000Y102900000D01*
X180800000Y127600000D02*
X195000000Y113400000D01*
X13745000Y96520000D02*
X13745000Y99595000D01*
%TO.N,/col1*%
X42245000Y117471185D02*
X42245000Y96520000D01*
X42245000Y120270000D02*
X42245000Y117471185D01*
X42245000Y82270000D02*
X46995000Y77520000D01*
X42245000Y96520000D02*
X42245000Y82270000D01*
X46995000Y60900000D02*
X49375000Y58520000D01*
X46995000Y77520000D02*
X46995000Y60900000D01*
X49375000Y44270000D02*
X54125000Y39520000D01*
X49375000Y58520000D02*
X49375000Y44270000D01*
X54125000Y30020000D02*
X44625000Y20520000D01*
X54125000Y39520000D02*
X54125000Y30020000D01*
X42245000Y120270000D02*
X42245000Y123895000D01*
X42245000Y123895000D02*
X44550000Y126200000D01*
X44550000Y126200000D02*
X180150000Y126200000D01*
X180150000Y126200000D02*
X189650000Y116700000D01*
X189650000Y116700000D02*
X189650000Y88950000D01*
X191060000Y87540000D02*
X192380000Y87540000D01*
X189650000Y88950000D02*
X191060000Y87540000D01*
%TO.N,/col2*%
X70745000Y106020000D02*
X61245000Y96520000D01*
X70745000Y120270000D02*
X70745000Y106020000D01*
X61245000Y87020000D02*
X70745000Y77520000D01*
X61245000Y96520000D02*
X61245000Y87020000D01*
X71506099Y62508901D02*
X75495000Y58520000D01*
X71506099Y73960086D02*
X71506099Y62508901D01*
X70745000Y74721185D02*
X71506099Y73960086D01*
X70745000Y77520000D02*
X70745000Y74721185D01*
X75495000Y49020000D02*
X84995000Y39520000D01*
X75495000Y58520000D02*
X75495000Y49020000D01*
X84995000Y39520000D02*
X84995000Y35345000D01*
X84995000Y35345000D02*
X74750000Y25100000D01*
X72955000Y25100000D02*
X68375000Y20520000D01*
X74750000Y25100000D02*
X72955000Y25100000D01*
X70745000Y120270000D02*
X70745000Y122995000D01*
X70745000Y122995000D02*
X72750000Y125000000D01*
X72750000Y125000000D02*
X179250000Y125000000D01*
X179250000Y125000000D02*
X188100000Y116150000D01*
X188100000Y116150000D02*
X188100000Y87350000D01*
X190450000Y85000000D02*
X192380000Y85000000D01*
X188100000Y87350000D02*
X190450000Y85000000D01*
%TO.N,/col3*%
X89745000Y106020000D02*
X80245000Y96520000D01*
X89745000Y120270000D02*
X89745000Y106020000D01*
X80245000Y87020000D02*
X89745000Y77520000D01*
X80245000Y96520000D02*
X80245000Y87020000D01*
X89745000Y63270000D02*
X94495000Y58520000D01*
X89745000Y77520000D02*
X89745000Y63270000D01*
X94495000Y49020000D02*
X103995000Y39520000D01*
X94495000Y58520000D02*
X94495000Y49020000D01*
X103995000Y32390000D02*
X92125000Y20520000D01*
X103995000Y39520000D02*
X103995000Y32390000D01*
X89745000Y120270000D02*
X89745000Y121945000D01*
X91424586Y123624586D02*
X178725414Y123624586D01*
X89745000Y121945000D02*
X91424586Y123624586D01*
X178725414Y123624586D02*
X186850000Y115500000D01*
X186850000Y115500000D02*
X186850000Y85750000D01*
X190140000Y82460000D02*
X192380000Y82460000D01*
X186850000Y85750000D02*
X190140000Y82460000D01*
%TO.N,/col4*%
X108745000Y106020000D02*
X99245000Y96520000D01*
X108745000Y120270000D02*
X108745000Y106020000D01*
X99245000Y87020000D02*
X108745000Y77520000D01*
X99245000Y96520000D02*
X99245000Y87020000D01*
X108745000Y63270000D02*
X113495000Y58520000D01*
X108745000Y77520000D02*
X108745000Y63270000D01*
X113495000Y49020000D02*
X122995000Y39520000D01*
X113495000Y58520000D02*
X113495000Y49020000D01*
X122995000Y27650000D02*
X130125000Y20520000D01*
X122995000Y39520000D02*
X122995000Y27650000D01*
X124570000Y106020000D02*
X124600000Y106050000D01*
X108745000Y106020000D02*
X124570000Y106020000D01*
X152800000Y106050000D02*
X153000000Y105850000D01*
X130950000Y106050000D02*
X152800000Y106050000D01*
X160050000Y105900000D02*
X177550000Y105900000D01*
X177550000Y105900000D02*
X185300000Y98150000D01*
X185300000Y98150000D02*
X185300000Y84500000D01*
X189880000Y79920000D02*
X192380000Y79920000D01*
X185300000Y84500000D02*
X189880000Y79920000D01*
%TO.N,/col5*%
X127745000Y106020000D02*
X118245000Y96520000D01*
X127745000Y120270000D02*
X127745000Y106020000D01*
X118245000Y87020000D02*
X127745000Y77520000D01*
X118245000Y96520000D02*
X118245000Y87020000D01*
X127745000Y63270000D02*
X132495000Y58520000D01*
X127745000Y77520000D02*
X127745000Y63270000D01*
X132495000Y49020000D02*
X141995000Y39520000D01*
X132495000Y58520000D02*
X132495000Y49020000D01*
X127745000Y106020000D02*
X127745000Y105905000D01*
X127745000Y105905000D02*
X129700000Y103950000D01*
X129700000Y103950000D02*
X153000000Y103950000D01*
X160050000Y104000000D02*
X176250000Y104000000D01*
X176250000Y104000000D02*
X183400000Y96850000D01*
X183400000Y96850000D02*
X183400000Y84050000D01*
X190070000Y77380000D02*
X192380000Y77380000D01*
X183400000Y84050000D02*
X190070000Y77380000D01*
%TO.N,/col6*%
X137245000Y87020000D02*
X146745000Y77520000D01*
X137245000Y96520000D02*
X137245000Y87020000D01*
X146745000Y63270000D02*
X151495000Y58520000D01*
X146745000Y77520000D02*
X146745000Y63270000D01*
X151495000Y49020000D02*
X160995000Y39520000D01*
X151495000Y58520000D02*
X151495000Y49020000D01*
X140226185Y102300000D02*
X153000000Y102300000D01*
X137245000Y99318815D02*
X140226185Y102300000D01*
X137245000Y96520000D02*
X137245000Y99318815D01*
X160050000Y102350000D02*
X175600000Y102350000D01*
X175600000Y102350000D02*
X181550000Y96400000D01*
X181550000Y96400000D02*
X181550000Y83400000D01*
X190110000Y74840000D02*
X192380000Y74840000D01*
X181550000Y83400000D02*
X190110000Y74840000D01*
%TO.N,/col7*%
X156245000Y120270000D02*
X156245000Y96520000D01*
X156245000Y87020000D02*
X165745000Y77520000D01*
X156245000Y96520000D02*
X156245000Y87020000D01*
X165745000Y63270000D02*
X170495000Y58520000D01*
X165745000Y77520000D02*
X165745000Y63270000D01*
X156245000Y120270000D02*
X156245000Y104955000D01*
X156245000Y120270000D02*
X156245000Y111255000D01*
X156245000Y111255000D02*
X159900000Y107600000D01*
X178750000Y107600000D02*
X180000000Y106350000D01*
X159900000Y107600000D02*
X178750000Y107600000D01*
X180000000Y95050000D02*
X180000000Y82550000D01*
X190250000Y72300000D02*
X192380000Y72300000D01*
X180000000Y82550000D02*
X190250000Y72300000D01*
%TO.N,/col8*%
X198995000Y58520000D02*
X198995000Y39520000D01*
X198995000Y39520000D02*
X198995000Y20520000D01*
X198995000Y58520000D02*
X196930000Y58520000D01*
X192380000Y63070000D02*
X192380000Y69760000D01*
X196930000Y58520000D02*
X192380000Y63070000D01*
%TO.N,/row5*%
X177250000Y16750000D02*
X181000000Y20500000D01*
X187500000Y30000000D02*
X187500000Y42500000D01*
X187500000Y57250000D02*
X187500000Y64250000D01*
%TO.N,/row4*%
X215000000Y61250000D02*
X215000000Y47500000D01*
X212250000Y64000000D02*
X215000000Y61250000D01*
%TO.N,/row3*%
X213500000Y60500000D02*
X213500000Y47500000D01*
%TD*%
M02*
